<?xml version="1.0" encoding="UTF-8" standalone="no"?>
<svg
   xmlns:dc="http://purl.org/dc/elements/1.1/"
   xmlns:cc="http://creativecommons.org/ns#"
   xmlns:rdf="http://www.w3.org/1999/02/22-rdf-syntax-ns#"
   xmlns:svg="http://www.w3.org/2000/svg"
   xmlns="http://www.w3.org/2000/svg"
   xmlns:xlink="http://www.w3.org/1999/xlink"
   xmlns:sodipodi="http://sodipodi.sourceforge.net/DTD/sodipodi-0.dtd"
   xmlns:inkscape="http://www.inkscape.org/namespaces/inkscape"
   width="8"
   height="8"
   viewBox="0 0 2.1166666 2.1166667"
   version="1.1"
   id="svg4660"
   inkscape:version="1.0.2-2 (e86c870879, 2021-01-15)"
   sodipodi:docname="finalback.svg">
  <defs
     id="defs4654">
    <linearGradient
       inkscape:collect="always"
       id="linearGradient936">
      <stop
         style="stop-color:#000000;stop-opacity:1"
         offset="0"
         id="stop932" />
      <stop
         style="stop-color:#ffffff;stop-opacity:0"
         offset="1"
         id="stop934" />
    </linearGradient>
    <linearGradient
       inkscape:collect="always"
       id="linearGradient3669">
      <stop
         style="stop-color:#ffee2e;stop-opacity:1;"
         offset="0"
         id="stop3665" />
      <stop
         style="stop-color:#fff048;stop-opacity:0"
         offset="1"
         id="stop3667" />
    </linearGradient>
    <linearGradient
       inkscape:collect="always"
       id="linearGradient2550">
      <stop
         style="stop-color:#ffee2e;stop-opacity:1;"
         offset="0"
         id="stop2546" />
      <stop
         style="stop-color:#ffee2e;stop-opacity:0;"
         offset="1"
         id="stop2548" />
    </linearGradient>
    <filter
       style="color-interpolation-filters:sRGB"
       inkscape:label="Drop Shadow"
       id="filter4100"
       x="-0.02434188"
       width="1.0486838"
       y="-0.020114261"
       height="1.0402285">
      <feFlood
         flood-opacity="0.498039"
         flood-color="rgb(0,0,0)"
         result="flood"
         id="feFlood4090" />
      <feComposite
         in="flood"
         in2="SourceGraphic"
         operator="in"
         result="composite1"
         id="feComposite4092" />
      <feGaussianBlur
         in="composite1"
         stdDeviation="1.4510593"
         result="blur"
         id="feGaussianBlur4094" />
      <feOffset
         dx="-0.9"
         dy="-0.7"
         result="offset"
         id="feOffset4096" />
      <feComposite
         in="SourceGraphic"
         in2="offset"
         operator="over"
         result="fbSourceGraphic"
         id="feComposite4098" />
      <feColorMatrix
         result="fbSourceGraphicAlpha"
         in="fbSourceGraphic"
         values="0 0 0 -1 0 0 0 0 -1 0 0 0 0 -1 0 0 0 0 1 0"
         id="feColorMatrix4102" />
      <feFlood
         id="feFlood4104"
         flood-opacity="0.498039"
         flood-color="rgb(0,0,0)"
         result="flood"
         in="fbSourceGraphic" />
      <feComposite
         in2="fbSourceGraphic"
         id="feComposite4106"
         in="flood"
         operator="in"
         result="composite1" />
      <feGaussianBlur
         id="feGaussianBlur4108"
         in="composite1"
         stdDeviation="3"
         result="blur" />
      <feOffset
         id="feOffset4110"
         dx="-0.9"
         dy="-0.7"
         result="offset" />
      <feComposite
         in2="offset"
         id="feComposite4112"
         in="fbSourceGraphic"
         operator="over"
         result="composite2" />
    </filter>
    <filter
       inkscape:collect="always"
       style="color-interpolation-filters:sRGB"
       id="filter1810"
       x="-0.48601264"
       width="1.9720253"
       y="-1.5381728"
       height="4.0763454">
      <feGaussianBlur
         inkscape:collect="always"
         stdDeviation="3.4771411"
         id="feGaussianBlur1812" />
    </filter>
    <filter
       inkscape:collect="always"
       style="color-interpolation-filters:sRGB"
       id="filter1814"
       x="-0.41585797"
       width="1.8317159"
       y="-1.5904709"
       height="4.1809416">
      <feGaussianBlur
         inkscape:collect="always"
         stdDeviation="3.4771411"
         id="feGaussianBlur1816" />
    </filter>
    <filter
       inkscape:collect="always"
       style="color-interpolation-filters:sRGB"
       id="filter1818"
       x="-0.4115043"
       width="1.8230087"
       y="-3.4861808"
       height="7.9723616">
      <feGaussianBlur
         inkscape:collect="always"
         stdDeviation="3.4771411"
         id="feGaussianBlur1820" />
    </filter>
    <filter
       inkscape:collect="always"
       style="color-interpolation-filters:sRGB"
       id="filter1822"
       x="-0.50833106"
       width="2.0166621"
       y="-5.7777233"
       height="12.555447">
      <feGaussianBlur
         inkscape:collect="always"
         stdDeviation="3.4771411"
         id="feGaussianBlur1824" />
    </filter>
    <filter
       inkscape:collect="always"
       style="color-interpolation-filters:sRGB"
       id="filter1826"
       x="-0.63210142"
       width="2.2642028"
       y="-3.2165992"
       height="7.4331985">
      <feGaussianBlur
         inkscape:collect="always"
         stdDeviation="3.4771411"
         id="feGaussianBlur1828" />
    </filter>
    <filter
       style="color-interpolation-filters:sRGB"
       inkscape:label="Drop Shadow"
       id="filter4548">
      <feFlood
         flood-opacity="0.498039"
         flood-color="rgb(0,0,0)"
         result="flood"
         id="feFlood4538" />
      <feComposite
         in="flood"
         in2="SourceGraphic"
         operator="out"
         result="composite1"
         id="feComposite4540" />
      <feGaussianBlur
         in="composite1"
         stdDeviation="2"
         result="blur"
         id="feGaussianBlur4542" />
      <feOffset
         dx="-0.9"
         dy="-0.7"
         result="offset"
         id="feOffset4544" />
      <feComposite
         in="offset"
         in2="SourceGraphic"
         operator="atop"
         result="fbSourceGraphic"
         id="feComposite4546" />
      <feColorMatrix
         result="fbSourceGraphicAlpha"
         in="fbSourceGraphic"
         values="0 0 0 -1 0 0 0 0 -1 0 0 0 0 -1 0 0 0 0 1 0"
         id="feColorMatrix4550" />
      <feFlood
         id="feFlood4552"
         flood-opacity="0.498039"
         flood-color="rgb(0,0,0)"
         result="flood"
         in="fbSourceGraphic" />
      <feComposite
         in2="fbSourceGraphic"
         id="feComposite4554"
         in="flood"
         operator="out"
         result="composite1" />
      <feGaussianBlur
         id="feGaussianBlur4556"
         in="composite1"
         stdDeviation="2"
         result="blur" />
      <feOffset
         id="feOffset4558"
         dx="-0.9"
         dy="-0.7"
         result="offset" />
      <feComposite
         in2="fbSourceGraphic"
         id="feComposite4560"
         in="offset"
         operator="atop"
         result="composite2" />
    </filter>
    <filter
       inkscape:collect="always"
       style="color-interpolation-filters:sRGB"
       id="filter5297"
       x="-0.11046773"
       width="1.2209355"
       y="-0.089719065"
       height="1.1794381">
      <feGaussianBlur
         inkscape:collect="always"
         stdDeviation="1.0938825"
         id="feGaussianBlur5299" />
    </filter>
    <filter
       inkscape:collect="always"
       style="color-interpolation-filters:sRGB"
       id="filter4580"
       x="-0.091870077"
       width="1.1837403"
       y="-0.099349499"
       height="1.198699">
      <feGaussianBlur
         inkscape:collect="always"
         stdDeviation="0.55153919"
         id="feGaussianBlur4582" />
    </filter>
    <linearGradient
       inkscape:collect="always"
       xlink:href="#linearGradient2550"
       id="linearGradient2552"
       x1="3.4853306"
       y1="4.7773271"
       x2="-1.8435935"
       y2="9.9735956"
       gradientUnits="userSpaceOnUse"
       gradientTransform="matrix(23.740689,0,0,23.740689,0.35034756,77.084398)" />
    <linearGradient
       inkscape:collect="always"
       xlink:href="#linearGradient3669"
       id="linearGradient3663"
       x1="0.65998554"
       y1="1.8162218"
       x2="-1.2370665"
       y2="3.6003952"
       gradientUnits="userSpaceOnUse" />
    <linearGradient
       inkscape:collect="always"
       xlink:href="#linearGradient3669"
       id="linearGradient3698"
       gradientUnits="userSpaceOnUse"
       x1="1.5826538"
       y1="0.3709206"
       x2="-1.4537269"
       y2="4.0139718"
       gradientTransform="matrix(0.43479053,0,0,0.43479053,0.62930762,0.52796918)" />
    <filter
       inkscape:collect="always"
       style="color-interpolation-filters:sRGB"
       id="filter3748"
       x="-7.8906263e-05"
       width="1.0001578"
       y="-7.4803259e-05"
       height="1.0001496">
      <feGaussianBlur
         inkscape:collect="always"
         stdDeviation="0.00011328071"
         id="feGaussianBlur3750" />
    </filter>
    <linearGradient
       inkscape:collect="always"
       xlink:href="#linearGradient936"
       id="linearGradient930"
       x1="2.6351452"
       y1="-0.87602341"
       x2="0.24734816"
       y2="1.7183576"
       gradientUnits="userSpaceOnUse" />
  </defs>
  <sodipodi:namedview
     id="base"
     pagecolor="#ffffff"
     bordercolor="#666666"
     borderopacity="1.0"
     inkscape:pageopacity="0.0"
     inkscape:pageshadow="2"
     inkscape:zoom="32"
     inkscape:cx="3.8440227"
     inkscape:cy="2.5808977"
     inkscape:document-units="mm"
     inkscape:current-layer="layer1"
     inkscape:document-rotation="0"
     showgrid="false"
     inkscape:window-width="1259"
     inkscape:window-height="728"
     inkscape:window-x="91"
     inkscape:window-y="0"
     inkscape:window-maximized="0"
     units="px"
     showguides="false" />
  <metadata
     id="metadata4657">
    <rdf:RDF>
      <cc:Work
         rdf:about="">
        <dc:format>image/svg+xml</dc:format>
        <dc:type
           rdf:resource="http://purl.org/dc/dcmitype/StillImage" />
        <dc:title />
      </cc:Work>
    </rdf:RDF>
  </metadata>
  <g
     inkscape:label="Capa 1"
     inkscape:groupmode="layer"
     id="layer1"
     style="display:inline;filter:url(#filter3748);opacity:1">
    <path
       id="path2623"
       style="display:inline;mix-blend-mode:hue;fill:url(#linearGradient930);fill-opacity:1;fill-rule:nonzero;stroke:none;stroke-width:0.00130437px;stroke-linecap:butt;stroke-linejoin:miter;stroke-miterlimit:4;stroke-dasharray:none;stroke-opacity:1"
       d="m 1.1058629,0.57110858 c -0.00241,-1.8016e-4 -0.00535,0.001103 -0.00831,0.002249 -9.551e-4,3.5919e-4 -0.00189,1.5689e-4 -0.00293,6.7393e-4 0,0 -2.244e-4,2.247e-4 -2.244e-4,2.247e-4 0,0 -2.243e-4,2.2462e-4 -2.243e-4,2.2462e-4 0,0 -2.243e-4,2.247e-4 -2.243e-4,2.247e-4 0,0 -2.244e-4,2.247e-4 -2.244e-4,2.247e-4 -0.00395,0.002188 -0.00842,0.005097 -0.013481,0.009886 0,0 0,2.247e-4 0,2.247e-4 0,0 -2.244e-4,0 -2.244e-4,0 0,0 -2.242e-4,2.2471e-4 -2.242e-4,2.2471e-4 0,0 0,2.2461e-4 0,2.2461e-4 0,0 -2.244e-4,2.247e-4 -2.244e-4,2.247e-4 0,0 -2.244e-4,0 -2.244e-4,0 0,0 -2.242e-4,2.2462e-4 -2.242e-4,2.2462e-4 0,0 -2.243e-4,2.247e-4 -2.243e-4,2.247e-4 0,0 0,2.247e-4 0,2.247e-4 0,0 -2.243e-4,2.2462e-4 -2.243e-4,2.2462e-4 -1.485e-4,1.3935e-4 -2.992e-4,8.292e-5 -4.479e-4,2.247e-4 0,0 0,2.247e-4 0,2.247e-4 -1.472e-4,1.3805e-4 -3.014e-4,8.414e-5 -4.478e-4,2.2462e-4 0,0 0,2.247e-4 0,2.247e-4 -1.473e-4,1.3805e-4 -3.015e-4,8.413e-5 -4.479e-4,2.247e-4 0,0 0,2.2462e-4 0,2.2462e-4 -1.472e-4,1.3805e-4 -3.014e-4,8.422e-5 -4.478e-4,2.247e-4 0,0 0,2.2461e-4 0,2.2461e-4 -1.484e-4,1.3936e-4 -2.991e-4,8.292e-5 -4.478e-4,2.2471e-4 0,0 0,2.247e-4 0,2.247e-4 -1.496e-4,1.4039e-4 -2.98e-4,8.161e-5 -4.479e-4,2.2461e-4 0,0 0,2.2471e-4 0,2.2471e-4 -2.415e-4,2.2513e-4 -4.291e-4,2.1749e-4 -6.739e-4,4.4914e-4 0,0 0,2.247e-4 0,2.247e-4 0,0 0,2.2462e-4 0,2.2462e-4 -1.484e-4,1.3918e-4 -3.003e-4,8.3e-5 -4.479e-4,2.247e-4 -2.439e-4,2.273e-4 -4.267e-4,2.1532e-4 -6.739e-4,4.4914e-4 0,0 0,2.2462e-4 0,2.2462e-4 -2.439e-4,2.273e-4 -4.267e-4,2.1541e-4 -6.739e-4,4.4914e-4 -8.49e-5,1.1383e-4 8.25e-5,3.3384e-4 0,4.4914e-4 -2.427e-4,2.2549e-4 -4.291e-4,2.1724e-4 -6.74e-4,4.4915e-4 0,0 0,2.247e-4 0,2.247e-4 -2.426e-4,2.2548e-4 -4.29e-4,2.1715e-4 -6.738e-4,4.4914e-4 -3.383e-4,3.1205e-4 -5.566e-4,3.4886e-4 -9.03e-4,6.7394e-4 -8.5e-5,1.1382e-4 8.26e-5,3.3384e-4 0,4.4914e-4 -2.427e-4,2.254e-4 -4.291e-4,2.1715e-4 -6.739e-4,4.4914e-4 -3.382e-4,3.1205e-4 -5.566e-4,3.4886e-4 -9.03e-4,6.7385e-4 0,0 0,2.247e-4 0,2.247e-4 -3.382e-4,3.1214e-4 -5.565e-4,3.4895e-4 -9.03e-4,6.7393e-4 0,0 0,2.2471e-4 0,2.2471e-4 -3.381e-4,3.1204e-4 -5.565e-4,3.4886e-4 -9.029e-4,6.7393e-4 -8.5e-5,1.1374e-4 8.25e-5,3.3384e-4 0,4.4905e-4 -3.348e-4,3.0988e-4 -5.566e-4,3.5147e-4 -9.03e-4,6.7394e-4 -4.233e-4,3.8836e-4 -6.913e-4,4.896e-4 -0.00112,9.0297e-4 0,0 0,2.247e-4 0,2.247e-4 -3.381e-4,3.1205e-4 -5.565e-4,3.4887e-4 -9.029e-4,6.7394e-4 0,0 0,2.2461e-4 0,2.2461e-4 -4.256e-4,3.9106e-4 -6.87e-4,4.87e-4 -0.00113,9.0298e-4 0,0 0,2.247e-4 0,2.247e-4 -4.233e-4,3.8837e-4 -6.912e-4,4.896e-4 -0.00112,9.0298e-4 -8.59e-5,1.1495e-4 8.34e-5,3.3271e-4 0,4.4914e-4 -3.348e-4,3.0979e-4 -5.565e-4,3.5138e-4 -9.03e-4,6.7393e-4 0,0 0,2.2462e-4 0,2.2462e-4 -4.739e-4,4.3395e-4 -8.609e-4,4.3872e-4 -0.00135,9.0297e-4 0,0 0,2.247e-4 0,2.247e-4 -4.257e-4,3.9098e-4 -6.87e-4,4.8692e-4 -0.00112,9.0298e-4 -8.59e-5,1.1496e-4 8.35e-5,3.3271e-4 0,4.4914e-4 -4.268e-4,3.9202e-4 -6.869e-4,4.8561e-4 -0.00112,9.0298e-4 0,0 0,2.2462e-4 0,2.2462e-4 -4.783e-4,4.3698e-4 -8.565e-4,4.3525e-4 -0.00135,9.0297e-4 -8.58e-5,1.1496e-4 8.34e-5,3.3271e-4 0,4.4914e-4 -4.267e-4,3.921e-4 -6.87e-4,4.857e-4 -0.00113,9.0298e-4 -8.55e-5,1.1461e-4 8.32e-5,3.3306e-4 0,4.4914e-4 -4.783e-4,4.3786e-4 -8.565e-4,4.3439e-4 -0.00135,9.0298e-4 -8.55e-5,1.1452e-4 8.31e-5,3.3306e-4 0,4.4914e-4 -4.783e-4,4.3777e-4 -8.566e-4,4.3439e-4 -0.00135,9.0298e-4 -8.55e-5,1.1452e-4 8.31e-5,3.3297e-4 0,4.4914e-4 -4.783e-4,4.3777e-4 -8.565e-4,4.3439e-4 -0.00135,9.0298e-4 0,0 0,2.247e-4 0,2.247e-4 -5.695e-4,5.1609e-4 -9.898e-4,5.6957e-4 -0.00157,0.00112 -1.288e-4,1.7243e-4 1.231e-4,4.9785e-4 0,6.7393e-4 -4.782e-4,4.3786e-4 -8.565e-4,4.3438e-4 -0.00135,9.0298e-4 0,0 0,2.2461e-4 0,2.2461e-4 -5.695e-4,5.1617e-4 -9.898e-4,5.6957e-4 -0.00157,0.00112 -8.49e-5,1.1383e-4 8.27e-5,3.3384e-4 0,4.4914e-4 -5.652e-4,5.1218e-4 -9.898e-4,5.7391e-4 -0.00157,0.00112 -8.59e-5,1.1495e-4 8.33e-5,3.3271e-4 0,4.4914e-4 -5.652e-4,5.1218e-4 -9.898e-4,5.7391e-4 -0.00157,0.00112 -8.59e-5,1.1496e-4 8.33e-5,3.3271e-4 0,4.4914e-4 -5.653e-4,5.1218e-4 -9.898e-4,5.7391e-4 -0.00157,0.00112 -8.58e-5,1.1496e-4 8.34e-5,3.3263e-4 0,4.4914e-4 -5.695e-4,5.1609e-4 -9.898e-4,5.6957e-4 -0.00157,0.00112 -1.277e-4,1.707e-4 1.22e-4,4.995e-4 0,6.7385e-4 -5.696e-4,5.1704e-4 -9.898e-4,5.687e-4 -0.00157,0.00112 0,0 0,2.2471e-4 0,2.2471e-4 -6.565e-4,5.9301e-4 -0.00112,7.0432e-4 -0.0018,0.001346 -1.288e-4,1.7243e-4 1.231e-4,4.9785e-4 0,6.7393e-4 -5.696e-4,5.1695e-4 -9.898e-4,5.687e-4 -0.00157,0.00112 -8.55e-5,1.1452e-4 8.31e-5,3.3297e-4 0,4.4905e-4 -6.609e-4,5.9441e-4 -0.00112,7.0268e-4 -0.0018,0.001346 -8.59e-5,1.1504e-4 8.35e-5,3.3271e-4 0,4.4914e-4 -6.609e-4,5.944e-4 -0.00112,7.0267e-4 -0.0018,0.001346 -8.57e-5,1.1496e-4 8.35e-5,3.3271e-4 0,4.4914e-4 -6.609e-4,5.944e-4 -0.00112,7.0259e-4 -0.0018,0.001346 -8.55e-5,1.1461e-4 8.32e-5,3.3306e-4 0,4.4915e-4 -7.087e-4,6.3608e-4 -0.00128,6.5257e-4 -0.00202,0.001346 -8.59e-5,1.1496e-4 8.33e-5,3.3262e-4 0,4.4914e-4 -6.653e-4,5.9822e-4 -0.00111,6.9781e-4 -0.0018,0.001346 -1.277e-4,1.7079e-4 1.219e-4,4.9959e-4 0,6.7394e-4 -7.088e-4,6.3616e-4 -0.00128,6.5266e-4 -0.00202,0.001346 -1.357e-4,1.8181e-4 -9.51e-5,4.8787e-4 -2.243e-4,6.7393e-4 -6.087e-4,5.509e-4 -9.464e-4,7.539e-4 -0.00157,0.001346 -8.55e-5,1.1461e-4 8.31e-5,3.3306e-4 0,4.4915e-4 -7.478e-4,6.6959e-4 -0.00124,8.3698e-4 -0.00202,0.001572 -8.55e-5,1.1452e-4 8.31e-5,3.3358e-4 0,4.5001e-4 -7.478e-4,6.6959e-4 -0.00124,8.3743e-4 -0.00202,0.001572 -8.56e-5,1.1452e-4 8.31e-5,3.3358e-4 0,4.4992e-4 -7.914e-4,7.0528e-4 -0.00142,7.9401e-4 -0.00225,0.001572 -1.29e-4,1.726e-4 1.23e-4,4.9828e-4 0,6.7393e-4 -7.175e-4,6.4181e-4 -0.00128,6.4528e-4 -0.00202,0.001346 -1.772e-4,2.3695e-4 -5.83e-5,6.544e-4 -2.244e-4,8.9429e-4 -6.609e-4,5.9475e-4 -0.00112,7.0302e-4 -0.0018,0.001346 -8.55e-5,1.1469e-4 8.33e-5,3.3245e-4 0,4.5001e-4 -8.043e-4,7.1647e-4 -0.00141,7.8003e-4 -0.00225,0.001572 -1.276e-4,1.7018e-4 1.22e-4,4.9907e-4 0,6.7385e-4 -8.043e-4,7.1656e-4 -0.00141,7.8003e-4 -0.00225,0.001572 -1.277e-4,1.7027e-4 1.219e-4,4.9916e-4 0,6.7394e-4 -7.957e-4,7.0961e-4 -0.00141,7.8697e-4 -0.00225,0.001572 -1.277e-4,1.7026e-4 1.219e-4,4.9916e-4 0,6.7393e-4 -8.043e-4,7.1657e-4 -0.00141,7.8004e-4 -0.00225,0.001572 -1.771e-4,2.3694e-4 -5.82e-5,6.5431e-4 -2.243e-4,8.9429e-4 -7.479e-4,6.6951e-4 -0.00124,8.3734e-4 -0.00202,0.001572 -8.57e-5,1.1495e-4 8.34e-5,3.3253e-4 0,4.5001e-4 -8.769e-4,7.7656e-4 -0.001554,9.2902e-4 -0.002466,0.001797 -1.2884e-4,1.726e-4 1.2312e-4,4.9828e-4 0,6.7393e-4 -8.0434e-4,7.1656e-4 -0.001407,7.8003e-4 -0.002249,0.001572 -1.2764e-4,1.714e-4 1.2199e-4,4.9916e-4 0,6.7394e-4 -8.943e-4,7.8915e-4 -0.001537,9.1166e-4 -0.002466,0.001797 -1.2772e-4,1.7139e-4 1.219e-4,4.9906e-4 0,6.7393e-4 -8.8561e-4,7.8211e-4 -0.001545,9.2034e-4 -0.002466,0.001797 -1.2885e-4,1.7261e-4 1.2312e-4,4.9698e-4 0,6.7393e-4 -8.8561e-4,7.822e-4 -0.001545,9.2034e-4 -0.002466,0.001797 -1.2997e-4,1.7374e-4 1.2433e-4,4.9698e-4 0,6.7393e-4 -5.6523e-4,4.9916e-4 -9.898e-4,5.865e-4 -0.001572,0.00112 -1.5073e-4,-5.296e-5 -5.2182e-4,5.531e-5 -6.7394e-4,0 -0.007623,-0.002787 -0.0154999,-0.00863 -0.0231431,-0.0132564 0,0 -2.2427e-4,0 -2.2427e-4,0 -0.007623,-0.004602 -0.0148887,-0.007997 -0.0215698,-0.006295 0,0 -2.2427e-4,0 -2.2427e-4,0 0,0 -2.2435e-4,2.2435e-4 -2.2435e-4,2.2435e-4 0,0 -2.2436e-4,2.2427e-4 -2.2436e-4,2.2427e-4 0,0 -2.2427e-4,2.2436e-4 -2.2427e-4,2.2436e-4 -0.003021,0.001059 -0.006095,0.002804 -0.008763,0.006512 0,0 0,2.2435e-4 0,2.2435e-4 0,0 -2.2436e-4,0 -2.2436e-4,0 0,0 0,2.2427e-4 0,2.2427e-4 0,0 -2.2435e-4,2.2436e-4 -2.2435e-4,2.2436e-4 0,0 -2.2427e-4,2.2426e-4 -2.2427e-4,2.2426e-4 0,0 -2.2435e-4,2.2436e-4 -2.2435e-4,2.2436e-4 -1.2191e-4,1.6219e-4 -5.5212e-4,2.8183e-4 -6.7394e-4,4.5001e-4 0,0 0,2.2436e-4 0,2.2436e-4 -1.9553e-4,2.5995e-4 -4.8257e-4,3.9687e-4 -6.7393e-4,6.7393e-4 0,0 0,2.2427e-4 0,2.2427e-4 0,0 -2.2435e-4,0 -2.2435e-4,0 0,0 -2.2427e-4,2.2435e-4 -2.2427e-4,2.2435e-4 0,0 0,2.2436e-4 0,2.2436e-4 0,0 -2.2427e-4,2.2426e-4 -2.2427e-4,2.2426e-4 0,0 -2.2436e-4,0 -2.2436e-4,0 -2.0021e-4,2.5883e-4 -4.7397e-4,3.9922e-4 -6.7393e-4,6.7394e-4 -1.9674e-4,2.6229e-4 -4.7831e-4,3.9574e-4 -6.7393e-4,6.7393e-4 0,0 -2.2435e-4,2.2435e-4 -2.2435e-4,2.2435e-4 0,0 0,2.2427e-4 0,2.2427e-4 -2.0014e-4,2.5891e-4 -4.7823e-4,1.7374e-4 -6.7394e-4,4.5001e-4 -2.0247e-4,2.623e-4 -4.7389e-4,3.9575e-4 -6.7393e-4,6.7394e-4 -2.0247e-4,2.6229e-4 -4.7389e-4,3.9574e-4 -6.7385e-4,6.7393e-4 -2.761e-4,3.5667e-4 -6.2617e-4,7.3523e-4 -9.0297e-4,0.00112 -1.2199e-4,1.6106e-4 -3.2907e-4,5.687e-5 -4.5218e-4,2.2435e-4 -3.5781e-4,4.4871e-4 -7.7396e-4,6.2219e-4 -0.00112,0.00112 -1.5646e-4,2.0473e-4 -2.9451e-4,2.3468e-4 -4.4784e-4,4.5001e-4 -2.8305e-4,3.5424e-4 -8.435e-4,5.1088e-4 -0.001129,8.9429e-4 -2.3703e-4,3.025e-4 -6.6525e-4,5.7304e-4 -9.0298e-4,8.943e-4 -3.4165e-4,4.3612e-4 -5.6523e-4,8.6399e-4 -9.0297e-4,0.001346 -2.0013e-4,2.5882e-4 -6.9998e-4,3.9922e-4 -9.0298e-4,6.7393e-4 -2.3694e-4,3.0258e-4 -4.3916e-4,3.486e-4 -6.7393e-4,6.7393e-4 -4.3907e-4,5.3397e-4 -9.2034e-4,7.361e-4 -0.001346,0.001346 -3.842e-4,4.8214e-4 -7.4782e-4,8.0521e-4 -0.00112,0.001346 -2.7732e-4,3.5894e-4 -6.2609e-4,5.0828e-4 -9.0298e-4,8.943e-4 -3.5433e-4,4.4523e-4 -7.7395e-4,6.2566e-4 -0.00112,0.00112 -2.8305e-4,3.5425e-4 -6.2175e-4,5.1088e-4 -9.0298e-4,8.943e-4 -4.7832e-4,5.74e-4 -0.001103,6.8088e-4 -0.001572,0.001346 -3.5781e-4,4.4871e-4 -7.7396e-4,6.2218e-4 -0.00112,0.00112 -4.6521e-4,5.6609e-4 -8.9429e-4,9.2034e-4 -0.001346,0.001572 -3.5425e-4,4.4524e-4 -7.7387e-4,6.2566e-4 -0.00112,0.00112 -4.3482e-4,5.3041e-4 -9.2034e-4,7.4087e-4 -0.001346,0.001346 -4.3482e-4,5.3041e-4 -9.2034e-4,7.4087e-4 -0.001346,0.001346 -3.5893e-4,4.3829e-4 -9.9848e-4,6.3269e-4 -0.001346,0.00112 -5.4352e-4,6.4441e-4 -0.001042,0.001033 -0.001572,0.001797 -3.5893e-4,4.3829e-4 -9.9848e-4,6.326e-4 -0.001346,0.00112 -5.8693e-4,6.9695e-4 -0.001224,0.001189 -0.001797,0.002023 -3.8776e-4,4.8648e-4 -7.4348e-4,7.9956e-4 -0.001129,0.001346 -5.1739e-4,6.1784e-4 -0.001068,8.4654e-4 -0.001572,0.001572 -4.8266e-4,5.7964e-4 -0.001103,6.7307e-4 -0.001572,0.001346 -5.6088e-4,6.5136e-4 -0.001259,7.974e-4 -0.001797,0.001572 -5.5211e-4,6.5136e-4 -0.001042,0.001025 -0.001572,0.001797 -6.3478e-4,7.3957e-4 -0.001407,0.00112 -0.002023,0.002023 -4.6521e-4,5.6827e-4 -8.943e-4,9.2034e-4 -0.001346,0.001572 -5.9136e-4,6.8921e-4 -0.001224,9.7243e-4 -0.001797,0.001797 -5.9128e-4,6.8912e-4 -0.001224,9.7243e-4 -0.001797,0.001797 -5.6089e-4,6.5353e-4 -0.00125,7.9393e-4 -0.001797,0.001572 -6.6959e-4,7.5911e-4 -0.001372,0.001085 -0.002023,0.002023 -6.1306e-4,7.0953e-4 -0.001433,9.3771e-4 -0.002023,0.001797 -6.6959e-4,7.6962e-4 -0.001372,0.001302 -0.002023,0.002249 -5.4778e-4,6.4788e-4 -0.001042,0.001033 -0.001572,0.001797 -6.7393e-4,7.6171e-4 -0.001372,0.001085 -0.002023,0.002023 -6.7393e-4,7.6171e-4 -0.001372,0.001085 -0.002023,0.002023 -6.478e-4,7.3176e-4 -0.001389,9.0298e-4 -0.002023,0.001797 -8.0868e-4,8.8561e-4 -0.001693,0.001337 -0.002466,0.002474 -5.9571e-4,6.8566e-4 -0.001216,9.7244e-4 -0.001797,0.001797 -8.0869e-4,8.7693e-4 -0.001693,0.001337 -0.002466,0.002474 -7.2612e-4,8.1702e-4 -0.001545,0.001224 -0.002249,0.002249 -7.1734e-4,8.0868e-4 -0.001554,0.001233 -0.002249,0.002249 -7.2611e-4,8.1563e-4 -0.001545,0.001224 -0.002249,0.002249 -7.565e-4,8.5002e-4 -0.001519,0.001398 -0.002249,0.002474 -6.478e-4,7.3046e-4 -0.001398,9.0298e-4 -0.002023,0.001797 -8.943e-4,9.4639e-4 -0.001841,0.00145 -0.002692,0.0027 -8.0878e-4,8.7693e-4 -0.001693,0.001337 -0.002466,0.002475 -8e-4,8.7693e-4 -0.001702,0.001346 -0.002466,0.002474 -8e-4,8.7693e-4 -0.001702,0.001346 -0.002466,0.002475 -8.3916e-4,9.1166e-4 -0.001667,0.001502 -0.002466,0.0027 -7.565e-4,8.2822e-4 -0.001519,0.001198 -0.002249,0.002249 -9.6376e-4,9.9849e-4 -0.002006,0.001563 -0.002926,0.002917 -7.5659e-4,8.2831e-4 -0.001519,0.001198 -0.002249,0.002249 -9.3771e-4,9.7243e-4 -0.002023,0.001381 -0.002926,0.0027 -9.2902e-4,9.7244e-4 -0.001815,0.001615 -0.002692,0.002917 -8.8561e-4,9.377e-4 -0.001849,0.001459 -0.002692,0.0027 -8.5653e-4,9.0298e-4 -0.001875,0.001285 -0.002692,0.002475 -9.9848e-4,0.001025 -0.001971,0.001745 -0.002926,0.003143 -8.3916e-4,8.943e-4 -0.001667,0.001311 -0.002466,0.002475 -0.001059,0.001059 -0.002145,0.001658 -0.003152,0.003143 -9.7243e-4,0.001007 -0.001997,0.001554 -0.002926,0.002917 -9.7244e-4,0.001007 -0.001997,0.001554 -0.002926,0.002917 -0.001016,0.001051 -0.002179,0.001693 -0.003143,0.003143 -8.8561e-4,9.377e-4 -0.001849,0.001459 -0.002692,0.0027 -0.001103,0.001111 -0.002327,0.001797 -0.003369,0.003369 -9.2902e-4,9.8111e-4 -0.001815,0.001615 -0.002692,0.002917 -0.001016,0.001025 -0.002179,0.001502 -0.003152,0.002917 -0.001059,0.001059 -0.002145,0.001658 -0.003152,0.003143 -0.001103,0.001103 -0.002327,0.001806 -0.003369,0.003369 -9.7244e-4,9.9848e-4 -0.001997,0.001563 -0.002926,0.002917 -0.001172,0.001146 -0.002483,0.001927 -0.003595,0.003595 -9.7243e-4,9.9848e-4 -0.001997,0.001563 -0.002926,0.002917 -0.001189,0.001155 -0.002475,0.00191 -0.003595,0.003595 -0.001077,0.001085 -0.002127,0.001841 -0.003152,0.003369 -0.001094,0.001085 -0.002336,0.001615 -0.003369,0.003143 -0.001146,0.001111 -0.002292,0.001771 -0.003369,0.003369 -0.001189,0.001155 -0.002475,0.00191 -0.003595,0.003595 -0.001172,0.001146 -0.002483,0.001927 -0.003595,0.003595 -0.001059,0.001051 -0.002145,0.001676 -0.003152,0.003143 -0.001276,0.001198 -0.002622,0.002023 -0.00382,0.00382 -0.001163,0.001129 -0.002275,0.001954 -0.003369,0.003595 -0.001242,0.001181 -0.002657,0.001841 -0.00382,0.003595 -0.001224,0.001181 -0.002448,0.002075 -0.003595,0.00382 -0.001137,0.001103 -0.002301,0.00178 -0.003369,0.003369 -0.001354,0.00125 -0.002778,0.002119 -0.004046,0.004046 -0.001181,0.001146 -0.002257,0.001936 -0.003369,0.003595 -0.001302,0.001198 -0.002596,0.001997 -0.00382,0.00382 -0.001302,0.001198 -0.002596,0.001997 -0.00382,0.00382 -0.001268,0.001172 -0.002631,0.001832 -0.00382,0.003595 -0.001398,0.00125 -0.002969,0.002084 -0.004272,0.004046 -0.001311,0.001224 -0.002596,0.002179 -0.00382,0.004046 -0.001346,0.001242 -0.002787,0.002136 -0.004046,0.004046 -0.001268,0.001189 -0.002631,0.002032 -0.003818,0.00382 -0.001352,0.001233 -0.002783,0.002136 -0.004043,0.004046 -0.001352,0.001233 -0.002778,0.002136 -0.004043,0.004046 -0.001352,0.001233 -0.002778,0.002136 -0.004043,0.004046 -0.001427,0.001276 -0.002939,0.002249 -0.00427,0.004272 -0.001304,0.00119 -0.002596,0.002006 -0.003822,0.00382 -0.001535,0.001311 -0.003069,0.002327 -0.004493,0.004497 -0.001461,0.0013 -0.002913,0.00241 -0.00427,0.0045 -0.001326,0.00122 -0.0028,0.00194 -0.004043,0.00382 -0.001513,0.00131 -0.003087,0.00235 -0.004493,0.0045 -0.001479,0.00131 -0.002896,0.00238 -0.00427,0.0045 -0.0014,0.00125 -0.002961,0.00208 -0.00427,0.00405 -0.001548,0.00134 -0.003061,0.00252 -0.004493,0.00471 -0.001448,0.00128 -0.002922,0.00221 -0.00427,0.00427 -0.001522,0.00131 -0.003082,0.00234 -0.004493,0.0045 -0.001522,0.00131 -0.003082,0.00234 -0.004493,0.0045 -0.001535,0.00132 -0.003069,0.00233 -0.004493,0.0045 -0.001596,0.00135 -0.003244,0.00245 -0.004718,0.00471 -0.001487,0.00128 -0.003114,0.00219 -0.004493,0.00427 -0.001704,0.00141 -0.003378,0.00272 -0.004943,0.00517 -0.001479,0.00131 -0.002896,0.00239 -0.00427,0.0045 -0.001618,0.00135 -0.003222,0.00241 -0.004718,0.00471 -0.001587,0.00133 -0.003252,0.00226 -0.004718,0.0045 -0.001652,0.00135 -0.003417,0.0024 -0.004943,0.00471 -0.00167,0.00138 -0.003404,0.00257 -0.004943,0.00494 -0.001648,0.00137 -0.003422,0.0026 -0.004943,0.00494 -0.001526,0.00129 -0.003078,0.00236 -0.004493,0.0045 -0.001743,0.00139 -0.003339,0.0027 -0.004943,0.00517 -0.001752,0.00142 -0.003561,0.00266 -0.005168,0.00517 -0.001657,0.00137 -0.003417,0.00258 -0.004943,0.00494 -0.001626,0.00135 -0.003218,0.00243 -0.004718,0.00471 -0.001843,0.00143 -0.003709,0.00276 -0.005393,0.00539 -0.001657,0.00137 -0.003192,0.00259 -0.004718,0.00494 -0.001748,0.00137 -0.003561,0.0025 -0.005168,0.00494 -0.001809,0.00141 -0.003735,0.0026 -0.005393,0.00517 -0.001791,0.00142 -0.003526,0.00283 -0.005168,0.00539 -0.00173,0.00139 -0.003352,0.00272 -0.004943,0.00517 -0.001826,0.00141 -0.003722,0.0026 -0.005393,0.00517 -0.001843,0.00143 -0.003709,0.00276 -0.005393,0.00539 -0.001843,0.00143 -0.003709,0.00276 -0.005393,0.00539 -0.001852,0.00146 -0.0037,0.00295 -0.005393,0.00562 -0.001722,0.00139 -0.003582,0.00249 -0.005168,0.00494 -0.001874,0.00142 -0.003904,0.00274 -0.005617,0.00539 -0.001882,0.00144 -0.003674,0.00294 -0.005393,0.00562 -0.001787,0.00138 -0.00353,0.00267 -0.005168,0.00517 -0.002022,0.00146 -0.004004,0.00298 -0.005842,0.00584 -0.001908,0.00144 -0.003878,0.0029 -0.005617,0.00562 -0.001835,0.00142 -0.003713,0.0028 -0.005393,0.00539 -0.001921,0.00142 -0.003865,0.00291 -0.005617,0.00562 -0.002,0.00146 -0.004026,0.003 -0.005842,0.00584 -0.001965,0.00147 -0.003831,0.00302 -0.005617,0.00584 -0.001869,0.00142 -0.003683,0.00276 -0.005393,0.00539 -0.002074,0.00146 -0.004187,0.00291 -0.006066,0.00584 -0.002057,0.00148 -0.003978,0.00313 -0.005842,0.00607 -0.00196,0.00145 -0.004056,0.00283 -0.005842,0.00562 -0.002026,0.00146 -0.004004,0.00297 -0.005842,0.00584 -0.002057,0.00148 -0.003978,0.00313 -0.005842,0.00607 -0.001974,0.00143 -0.004043,0.00284 -0.005842,0.00562 -0.002161,0.00149 -0.004339,0.0032 -0.006291,0.00629 -0.002031,0.00148 -0.004,0.00316 -0.005842,0.00607 -0.002005,0.00146 -0.004017,0.003 -0.005842,0.00584 -0.002096,0.00147 -0.004169,0.0031 -0.006066,0.00607 -0.002174,0.00148 -0.004331,0.0032 -0.006291,0.00629 -0.002122,0.00149 -0.004373,0.00303 -0.006291,0.00607 -0.002048,0.00146 -0.003987,0.00317 -0.005842,0.00607 -0.002248,0.00152 -0.004496,0.00328 -0.006516,0.00651 -0.002083,0.00148 -0.004182,0.00309 -0.006066,0.00607 -0.002174,0.00148 -0.004331,0.0032 -0.006291,0.00629 -0.002174,0.00148 -0.004331,0.0032 -0.006291,0.00629 -0.0022,0.00148 -0.004309,0.00317 -0.006291,0.00629 -0.002248,0.00152 -0.004496,0.00328 -0.006516,0.00651 -0.002204,0.00151 -0.004305,0.00335 -0.006291,0.00651 -0.002148,0.00147 -0.004351,0.00304 -0.006291,0.00607 -0.002309,0.00149 -0.004669,0.00324 -0.00674,0.00651 -0.002287,0.00152 -0.004463,0.00346 -0.006516,0.00674 -0.002235,0.0015 -0.004504,0.00333 -0.006516,0.00651 -0.002213,0.00147 -0.004296,0.00318 -0.006291,0.00629 -0.002465,0.00153 -0.004767,0.00364 -0.006965,0.00719 -0.002204,0.00148 -0.004305,0.00316 -0.006291,0.00629 -0.00233,0.00146 -0.004648,0.00325 -0.00674,0.00651 -0.002435,0.00151 -0.004792,0.00349 -0.006965,0.00696 -0.002339,0.00151 -0.004644,0.00339 -0.00674,0.00674 -0.002326,0.00149 -0.004653,0.00343 -0.00674,0.00674 -0.005182,0.00326 -0.009849,0.00952 -0.0137059,0.022917 -0.002026,0.018524 0.022597,0.037098 0.0671805,0.029433 7.9567e-4,5.174e-4 0.001235,0.00106 0.002022,0.00157 -0.002739,8.943e-4 -0.005858,0.00258 -0.008538,0.00337 0.001143,7.435e-4 0.001787,0.0015 0.002922,0.00225 -0.002657,8.652e-4 -0.005716,0.00238 -0.008313,0.00314 0.001143,7.435e-4 0.001787,0.0015 0.002922,0.00225 -0.002744,8.943e-4 -0.005855,0.00258 -0.008538,0.00337 0.001143,7.434e-4 0.001787,0.0015 0.002922,0.00225 -0.002739,8.943e-4 -0.005858,0.00258 -0.008538,0.00337 0.001143,7.435e-4 0.001787,0.0015 0.002922,0.00225 -0.002739,8.943e-4 -0.005858,0.00258 -0.008538,0.00337 0.001143,7.435e-4 0.001787,0.0015 0.002922,0.00225 -0.002744,8.943e-4 -0.005855,0.00258 -0.008538,0.00337 0.001143,7.435e-4 0.001787,0.0015 0.002922,0.00225 -0.002744,8.943e-4 -0.005855,0.00258 -0.008538,0.00337 0.001243,8.043e-4 0.001913,0.00167 0.003148,0.00247 -0.00287,9.377e-4 -0.006185,0.00254 -0.008988,0.00337 0.001243,8.043e-4 0.001913,0.00167 0.003148,0.00247 -0.002804,9.203e-4 -0.006021,0.00256 -0.008763,0.00337 0.001148,7.435e-4 0.001783,0.0015 0.002922,0.00225 -0.002809,9.203e-4 -0.006019,0.00256 -0.008763,0.00337 0.001243,8.043e-4 0.001913,0.00167 0.003144,0.00247 -0.00287,9.464e-4 -0.006182,0.00254 -0.008988,0.00337 0.001243,8.044e-4 0.001913,0.00167 0.003148,0.00247 -0.00287,9.464e-4 -0.006182,0.00254 -0.008988,0.00337 0.0013,8.39e-4 0.002087,0.00162 0.00337,0.00247 -0.002956,9.724e-4 -0.006325,0.00274 -0.009212,0.00359 0.001243,8.044e-4 0.001913,0.00166 0.003144,0.00247 -0.00293,9.637e-4 -0.006349,0.00253 -0.009212,0.00337 0.001243,8.044e-4 0.001913,0.00167 0.003148,0.00247 -0.00287,9.464e-4 -0.006182,0.00254 -0.008988,0.00337 0.001243,8.044e-4 0.001913,0.00167 0.003148,0.00247 -0.002961,9.724e-4 -0.006322,0.00274 -0.009212,0.00359 0.001243,8.044e-4 0.001913,0.00167 0.003144,0.00247 -0.002956,9.725e-4 -0.006325,0.00274 -0.009212,0.00359 0.001243,8.043e-4 0.001913,0.00167 0.003148,0.00247 -0.002956,9.724e-4 -0.006325,0.00274 -0.009212,0.00359 0.001243,8.044e-4 0.001913,0.00167 0.003148,0.00247 -0.002961,9.725e-4 -0.006322,0.00274 -0.009212,0.00359 0.001243,8.044e-4 0.001913,0.00167 0.003144,0.00247 -0.002961,9.724e-4 -0.006322,0.00274 -0.009212,0.00359 0.001339,8.683e-4 0.002044,0.00182 0.00337,0.00269 -0.003087,0.00102 -0.006652,0.00271 -0.009661,0.00359 0.001243,8.044e-4 0.001913,0.00167 0.003144,0.00247 -0.002961,9.724e-4 -0.006322,0.00274 -0.009212,0.00359 0.001339,8.682e-4 0.002044,0.00182 0.00337,0.00269 -0.003087,0.00102 -0.006648,0.00271 -0.009661,0.00359 0.001339,8.682e-4 0.002044,0.00182 0.00337,0.00269 -0.003087,0.00102 -0.006648,0.00271 -0.009661,0.00359 0.001339,8.682e-4 0.002044,0.00182 0.00337,0.00269 -0.003087,0.00102 -0.006648,0.00271 -0.009661,0.00359 0.001339,8.682e-4 0.002044,0.00182 0.00337,0.00269 -0.003087,0.00102 -0.006648,0.00271 -0.009661,0.00359 0.001339,8.682e-4 0.002044,0.00182 0.00337,0.00269 -0.003174,0.00105 -0.006792,0.00291 -0.009886,0.00382 0.001343,8.683e-4 0.00204,0.00182 0.00337,0.00269 -0.003087,0.00102 -0.006648,0.00271 -0.009661,0.00359 0.001339,8.683e-4 0.002044,0.00182 0.00337,0.00269 -0.003174,0.00105 -0.006792,0.00291 -0.009886,0.00382 0.001339,8.682e-4 0.002044,0.00182 0.00337,0.00269 -0.003174,0.00105 -0.006791,0.00291 -0.009886,0.00382 0.001395,9.03e-4 0.002213,0.00179 0.003595,0.00269 -0.003183,0.00106 -0.006783,0.00291 -0.009886,0.00382 0.001343,8.682e-4 0.00204,0.00182 0.00337,0.00269 -0.003239,0.00108 -0.006955,0.00289 -0.0101106,0.00382 0.001395,9.03e-4 0.002213,0.00179 0.003595,0.00269 -0.003244,0.00108 -0.006952,0.00289 -0.0101106,0.00382 0.001439,9.29e-4 0.002174,0.00199 0.003595,0.00293 -0.003239,0.00108 -0.006955,0.00289 -0.0101106,0.00382 0.001343,8.683e-4 0.00204,0.00182 0.00337,0.00269 -0.003244,0.00108 -0.0069521,0.00289 -0.01011107,0.00382 0.0013953,9.03e-4 0.0022132,0.00179 0.0035954,0.00269 -0.0033263,0.00111 -0.0070953,0.00309 -0.01033542,0.00405 0.0014395,9.29e-4 0.0021741,0.00199 0.0035954,0.00293 -0.0032481,0.00108 -0.0069468,0.00289 -0.01011063,0.00382 0.0013953,9.03e-4 0.0022132,0.00179 0.0035954,0.00269 -0.0033349,0.00111 -0.0070866,0.00309 -0.01033542,0.00405 0.0013953,9.03e-4 0.0022132,0.00179 0.0035954,0.00269 -0.0033914,0.00113 -0.0072585,0.00307 -0.01056021,0.00405 0.0014396,9.29e-4 0.0021741,0.00199 0.0035954,0.00293 -0.0033045,0.0011 -0.0071153,0.00287 -0.01033543,0.00382 0.05519639,0.035766 0.0995022,0.074028 0.09661419,0.1069497 0.0319402,-0.010287 0.0576592,-0.028524 0.0891998,-0.030108 1.0753e-4,0.00127 -1.0548e-4,0.0019 4.4783e-4,0.00382 -6.6522e-4,-3.222e-4 -0.005545,-0.00246 -0.005617,-0.00247 -0.002365,-4.695e-4 -0.002265,0.00306 -6.7392e-4,0.00853 -6.5654e-4,-3.107e-4 -0.005545,-0.00246 -0.005617,-0.00247 -0.002387,-4.826e-4 -0.002079,0.0032 -4.4783e-4,0.00876 -6.6522e-4,-3.221e-4 -0.005545,-0.00246 -0.005617,-0.00247 -0.002409,-4.826e-4 -0.002135,0.00332 -4.5218e-4,0.00899 -7.2176e-4,-3.451e-4 -0.005765,-0.00267 -0.005842,-0.00269 -0.002409,-4.826e-4 -0.002131,0.0031 -4.5218e-4,0.00876 -7.2176e-4,-3.452e-4 -0.005765,-0.00267 -0.005842,-0.00269 -0.002387,-4.827e-4 -0.002083,0.0032 -4.5218e-4,0.00876 -6.6524e-4,-3.221e-4 -0.005545,-0.00246 -0.005617,-0.00247 -0.002409,-4.825e-4 -0.002356,0.00332 -6.7393e-4,0.00899 -7.2175e-4,-3.451e-4 -0.005765,-0.00267 -0.005842,-0.00269 -0.002409,-4.826e-4 -0.002126,0.00333 -4.4783e-4,0.00899 -7.1741e-4,-3.451e-4 -0.005766,-0.00267 -0.005842,-0.00269 -0.002439,-4.957e-4 -0.001969,0.00341 -2.2431e-4,0.00921 -7.6958e-4,-3.682e-4 -0.005987,-0.00267 -0.006066,-0.00269 -0.002409,-4.827e-4 -0.002135,0.00331 -4.4785e-4,0.00899 -7.6087e-4,-3.681e-4 -0.005987,-0.00267 -0.006066,-0.00269 -0.002439,-4.956e-4 -0.001969,0.00341 -2.2431e-4,0.00921 -7.6958e-4,-3.681e-4 -0.005987,-0.00267 -0.006066,-0.00269 -0.002439,-4.957e-4 -0.001979,0.0034 -2.2431e-4,0.00921 -8.1305e-4,-3.91e-4 -0.00621,-0.00267 -0.006291,-0.00269 -0.002439,-4.957e-4 -0.001978,0.0034 -2.2431e-4,0.00921 -8.1305e-4,-3.912e-4 -0.00621,-0.00267 -0.006291,-0.00269 -0.002439,-4.957e-4 -0.001979,0.0034 -2.2431e-4,0.00921 -8.1306e-4,-3.912e-4 -0.00621,-0.00267 -0.006291,-0.00269 -0.002439,-4.956e-4 -0.001978,0.0034 -2.2431e-4,0.00921 -8.1306e-4,-3.911e-4 -0.00621,-0.00267 -0.006291,-0.00269 -0.002491,-5.043e-4 -0.001874,0.00361 0,0.00966 -9.1774e-4,-4.39e-4 -0.006653,-0.00291 -0.00674,-0.00293 -0.002482,-4.956e-4 -0.00207,0.00344 -2.2431e-4,0.00944 -8.3481e-4,-4.027e-4 -0.006208,-0.00291 -0.006291,-0.00293 -0.002491,-5.043e-4 -0.001874,0.00361 0,0.00966 -9.2642e-4,-4.479e-4 -0.006653,-0.00291 -0.00674,-0.00293 -0.002491,-5.044e-4 -0.001874,0.00361 0,0.00966 -9.2642e-4,-4.479e-4 -0.006653,-0.00291 -0.00674,-0.00293 -0.002491,-5.044e-4 -0.001874,0.00361 0,0.00966 -9.2642e-4,-4.479e-4 -0.006653,-0.00291 -0.00674,-0.00293 -0.002491,-5.044e-4 -0.001874,0.00361 0,0.00966 -9.2642e-4,-4.478e-4 -0.006652,-0.00291 -0.00674,-0.00293 -0.002513,-5.043e-4 -0.001921,0.00373 0,0.00989 -9.9153e-4,-4.696e-4 -0.006875,-0.00313 -0.006965,-0.00314 -0.01703385,-0.00341 0.0803111,0.1752777 0.12697443,0.145172 0.0189356,0.029568 0.053076,0.050015 0.10987057,0.053474 l 0.0442628,-0.00113 c 0.009039,0.015651 0.006545,0.031617 0.0274114,0.039544 0.005983,0.00227 0.007869,-0.00166 0.008313,-0.00719 0.00437,7.479e-4 0.006303,-0.00207 0.00674,-0.00674 0.002469,4.257e-4 0.004751,4.826e-4 0.005842,-0.00113 0.007735,0.00636 0.0133924,0.00728 0.0148294,-0.00225 0.003692,0.00109 0.005885,-0.00128 0.00674,-0.00674 0.003779,0.0012 0.006073,-0.00125 0.006965,-0.00674 0.003669,0.00109 0.005866,-0.00136 0.00674,-0.00674 0.003613,0.00102 0.005875,-0.00142 0.00674,-0.00674 0.001861,5.044e-4 0.003922,0.00166 0.005168,6.783e-4 0.0115571,0.00628 0.0234821,0.01534 0.035725,0.017525 0.008441,0.0015 0.007959,-0.00287 0.004718,-0.00787 6.7827e-4,1.611e-4 0.001339,7.827e-4 0.002022,8.943e-4 0.008441,0.0015 0.007959,-0.00265 0.004718,-0.00764 6.7828e-4,1.61e-4 0.001339,7.826e-4 0.002022,8.943e-4 0.007871,0.00141 0.007731,-0.00223 0.005168,-0.00674 1.8704e-4,-1.611e-4 9.165e-5,-4.827e-4 2.2465e-4,-6.783e-4 4.6523e-4,1.03e-4 8.8734e-4,5.869e-4 0.001348,6.783e-4 0.007905,0.00141 0.007772,-0.0022 0.005168,-0.00674 1.4748e-4,-1.092e-4 1.0509e-4,-3.221e-4 2.247e-4,-4.479e-4 4.3479e-4,9.61e-5 9.1339e-4,3.682e-4 0.001348,4.479e-4 0.007733,0.00138 0.007571,-0.00213 0.005168,-0.00651 2.9436e-4,-1.84e-4 2.452e-5,-6.565e-4 2.2465e-4,-8.943e-4 4.6524e-4,1.037e-4 8.8301e-4,5.871e-4 0.001348,6.783e-4 0.007732,0.00138 0.007571,-0.00213 0.005168,-0.00651 1.59e-4,-1.016e-4 9.256e-5,-3.336e-4 2.2465e-4,-4.479e-4 3.7205e-4,7.98e-5 7.5219e-4,3.796e-4 0.001122,4.479e-4 0.007775,0.00139 0.007845,-0.00231 0.005393,-0.00674 1.59e-4,-1.016e-4 9.257e-5,-3.337e-4 2.247e-4,-4.479e-4 3.734e-4,8.01e-5 7.4784e-4,3.796e-4 0.001122,4.479e-4 0.007853,0.0014 0.007712,-0.00224 0.005168,-0.00674 0,0 2.2465e-4,-2.301e-4 2.2465e-4,-2.301e-4 3.7201e-4,7.96e-5 7.5219e-4,3.796e-4 0.001122,4.478e-4 0.00756,0.00135 0.007599,-0.00205 0.005393,-0.00629 2.3101e-4,-1.144e-4 -1.8892e-4,-5.392e-4 0,-6.783e-4 3.7201e-4,7.98e-5 7.5219e-4,3.796e-4 0.001122,4.478e-4 0.007853,0.0014 0.007937,-0.00247 0.005393,-0.00696 3.7053e-4,7.92e-5 7.5219e-4,3.796e-4 0.001122,4.478e-4 0.00758,0.00135 0.007621,-0.00203 0.005393,-0.00629 2.7761e-4,-1.151e-4 -2e-6,-5.304e-4 2.2469e-4,-6.783e-4 3.0854e-4,6.43e-5 5.9132e-4,3.911e-4 9.0038e-4,4.478e-4 0.007438,0.00133 0.007462,-0.00193 0.005393,-0.00607 2.9184e-4,-1.08e-4 -1.765e-5,-5.392e-4 2.2466e-4,-6.783e-4 3.0852e-4,6.42e-5 5.9131e-4,3.912e-4 9.0037e-4,4.479e-4 0.007437,0.00133 0.00746,-0.00215 0.005393,-0.00629 1.7447e-4,-6.44e-5 -1.5705e-4,-3.796e-4 0,-4.478e-4 2.8287e-4,5.82e-5 6.174e-4,1.725e-4 9.0037e-4,2.301e-4 0.007461,0.00133 0.007488,-0.00191 0.005393,-0.00607 2.1892e-4,-6.86e-5 2.927e-5,-3.681e-4 2.2466e-4,-4.479e-4 2.1996e-4,4.39e-5 4.5218e-4,1.841e-4 6.7392e-4,2.301e-4 0.00756,0.00135 0.007824,-0.00227 0.005617,-0.00651 0,0 0,-2.301e-4 0,-2.301e-4 2.8335e-4,5.82e-5 6.174e-4,1.725e-4 9.0037e-4,2.301e-4 0.007316,0.0013 0.007326,-0.00181 0.005393,-0.00584 0,0 0,-2.301e-4 0,-2.301e-4 2.1779e-4,-6.81e-5 3.01e-5,-3.681e-4 2.2466e-4,-4.478e-4 2.1897e-4,4.37e-5 4.5653e-4,1.841e-4 6.7393e-4,2.301e-4 0.007316,0.0013 0.007326,-0.00181 0.005393,-0.00584 0,0 0,-2.301e-4 0,-2.301e-4 2.1048e-4,-6.55e-5 3.574e-5,-3.681e-4 2.2469e-4,-4.478e-4 2.1892e-4,4.38e-5 4.5654e-4,1.842e-4 6.7394e-4,2.301e-4 0.007438,0.00133 0.007462,-0.00215 0.005393,-0.00629 2.1805e-4,4.35e-5 4.5653e-4,1.841e-4 6.7393e-4,2.301e-4 0.007438,0.00133 0.007687,-0.00238 0.005617,-0.00651 2.1613e-4,4.32e-5 4.5652e-4,1.841e-4 6.7392e-4,2.301e-4 0.007611,0.00135 0.007433,-0.00201 0.005168,-0.00629 1.1109e-4,-2.65e-5 3.4292e-4,2.94e-5 4.4783e-4,0 1.5575e-4,3.02e-5 2.9358e-4,1.956e-4 4.4784e-4,2.301e-4 0.007438,0.00133 0.007687,-0.00215 0.005617,-0.00629 0,0 2.2466e-4,0 2.2466e-4,0 0,0 0,-2.301e-4 0,-2.301e-4 1.5496e-4,3e-5 2.944e-4,1.955e-4 4.4783e-4,2.301e-4 0.007611,0.00135 0.007433,-0.00201 0.005168,-0.00629 1.1118e-4,-2.49e-5 3.4271e-4,2.75e-5 4.4783e-4,0 0,0 2.2466e-4,0 2.2466e-4,0 0,0 2.247e-4,2.301e-4 2.247e-4,2.301e-4 0.007611,0.00135 0.007433,-0.00201 0.005168,-0.00629 1.1335e-4,-2.52e-5 3.4062e-4,2.78e-5 4.4784e-4,0 0,0 2.2466e-4,0 2.2466e-4,0 0,0 2.2465e-4,2.301e-4 2.2465e-4,2.301e-4 0.007733,0.00138 0.007571,-0.00213 0.005168,-0.00651 3.0979e-4,6.45e-5 5.8697e-4,3.912e-4 9.0038e-4,4.479e-4 0.007438,0.00133 0.007463,-0.00193 0.005393,-0.00607 1.5579e-4,3.01e-5 2.9362e-4,1.955e-4 4.4783e-4,2.301e-4 0.007438,0.00133 0.007687,-0.00215 0.005617,-0.00629 1.5452e-4,2.98e-5 2.9487e-4,1.956e-4 4.4783e-4,2.302e-4 0.007438,0.00133 0.007463,-0.00194 0.005393,-0.00607 1.5453e-4,2.99e-5 2.9488e-4,1.956e-4 4.4785e-4,2.301e-4 0.007095,0.00127 0.007759,-0.00201 0.006066,-0.00584 0.007439,0.00133 0.007463,-0.00215 0.005393,-0.00629 1.5499e-4,2.99e-5 2.9434e-4,1.956e-4 4.4785e-4,2.3e-4 0.007094,0.00127 0.007536,-0.00178 0.005843,-0.00562 0.007146,0.00128 0.007363,-0.00196 0.005618,-0.00584 0.007146,0.00128 0.007588,-0.00196 0.005843,-0.00584 0.007146,0.00128 0.007363,-0.00174 0.005618,-0.00562 0.007146,0.00128 0.007588,-0.00196 0.005843,-0.00584 0.007146,0.00128 0.007363,-0.00174 0.005618,-0.00562 0.007146,0.00128 0.007363,-0.00174 0.005618,-0.00562 0.007146,0.00128 0.007363,-0.00174 0.005618,-0.00562 0.007024,0.00125 0.007232,-0.00162 0.005618,-0.00539 0.007024,0.00125 0.007232,-0.00185 0.005618,-0.00562 0.006668,0.00109 0.006972,-0.00169 0.005392,-0.00539 0.006677,0.00109 0.007198,-0.00192 0.005618,-0.00562 0.006668,0.00109 0.006972,-0.00169 0.005392,-0.00539 0.006668,0.00109 0.006972,-0.00169 0.005392,-0.00539 0.006668,0.00109 0.006972,-0.00169 0.005392,-0.00539 0.006668,0.00109 0.006972,-0.00169 0.005392,-0.00539 0.006312,8.943e-4 0.006998,-0.00173 0.005392,-0.00539 0.006234,8.769e-4 0.006712,-0.00156 0.005166,-0.00517 0.006234,8.856e-4 0.006911,-0.00158 0.005392,-0.00517 0.005783,7.261e-4 0.006729,-0.00178 0.005392,-0.00517 0.00547,5.87e-4 0.006477,-0.00185 0.005166,-0.00517 0.005565,5.869e-4 0.006364,-0.00175 0.00494,-0.00517 0.005748,7e-4 0.006503,-0.00156 0.005166,-0.00494 0.005748,7.001e-4 0.006503,-0.00179 0.005166,-0.00517 0.005427,5.652e-4 0.006251,-0.00164 0.00494,-0.00494 0.005418,5.74e-4 0.006425,-0.00168 0.005166,-0.00494 0.005071,4.392e-4 0.006112,-0.0018 0.00494,-0.00494 0.005079,4.391e-4 0.006112,-0.0018 0.00494,-0.00494 0.005123,4.391e-4 0.006173,-0.00175 0.00494,-0.00494 0.005018,4.141e-4 0.005887,-0.00159 0.004715,-0.00471 0.005079,4.391e-4 0.006112,-0.0018 0.00494,-0.00494 0.005018,4.141e-4 0.005878,-0.00159 0.004715,-0.00471 0.005018,4.141e-4 0.005878,-0.00159 0.004715,-0.00471 0.005018,4.142e-4 0.005887,-0.00159 0.004715,-0.00471 0.005018,4.141e-4 0.005887,-0.00159 0.004715,-0.00471 0.005018,4.141e-4 0.005887,-0.00159 0.004715,-0.00471 0.004715,2.875e-4 0.005852,-0.00166 0.004715,-0.00471 0.004654,2.647e-4 0.005626,-0.00145 0.004498,-0.0045 0.004654,2.646e-4 0.005626,-0.00145 0.004498,-0.0045 0.004662,2.761e-4 0.005809,-0.00148 0.004715,-0.0045 0.004393,1.668e-4 0.005557,-0.00155 0.004498,-0.0045 0.004367,1.438e-4 0.005374,-0.00153 0.004272,-0.0045 0.004558,2.554e-4 0.005513,-0.00133 0.004498,-0.00427 0.004306,1.69e-4 0.005678,-0.00165 0.004715,-0.0045 0.003977,3.28e-5 0.005192,-0.00151 0.004272,-0.00427 0.003977,3.28e-5 0.005192,-0.00151 0.004272,-0.00427 0.003977,3.41e-5 0.005192,-0.00152 0.004272,-0.00427 0.003977,3.28e-5 0.005192,-0.00151 0.004272,-0.00427 0.003881,3.21e-5 0.005097,-0.00139 0.004272,-0.00405 0.003716,-3.24e-5 0.005079,-0.00166 0.004272,-0.00427 0.003629,-6.53e-5 0.004845,-0.00146 0.004046,-0.00405 0.003777,-4.06e-5 0.00494,-0.00158 0.004046,-0.00427 0.003655,-5.73e-5 0.005071,-0.00145 0.004272,-0.00405 0.003334,-1.416e-4 0.004732,-0.00139 0.004046,-0.00382 0.00343,-1.289e-4 0.004793,-0.00155 0.004046,-0.00405 0.003386,-1.565e-4 0.004602,-0.00153 0.00382,-0.00405 0.003421,-1.45e-4 0.004827,-0.00152 0.004046,-0.00405 0.003247,-1.736e-4 0.004498,-0.00119 0.00382,-0.00359 0.00343,-1.289e-4 0.004793,-0.00155 0.004046,-0.00405 0.003117,-2.208e-4 0.004489,-0.00146 0.00382,-0.00382 0.003152,-2.313e-4 0.00455,-0.0014 0.00382,-0.00382 0.0031,-2.6e-4 0.00435,-0.00139 0.003595,-0.00382 0.00325,-1.737e-4 0.0045,-0.00119 0.00382,-0.00359 0.00315,-2.313e-4 0.00455,-0.0014 0.00382,-0.00382 0.00287,-3.015e-4 0.00425,-0.0013 0.0036,-0.00359 0.00302,-2.531e-4 0.00425,-0.00126 0.0036,-0.00359 0.00302,-2.531e-4 0.00425,-0.00126 0.0036,-0.00359 0.00291,-2.439e-4 0.00435,-0.00117 0.00382,-0.00337 0.00259,-3.485e-4 0.00411,-0.00149 0.00359,-0.00359 0.00249,-3.797e-4 0.00387,-0.0013 0.00337,-0.00337 0.00259,-3.474e-4 0.00411,-0.00149 0.00359,-0.00359 0.00249,-3.796e-4 0.00387,-0.0013 0.00337,-0.00337 0.00249,-3.797e-4 0.00387,-0.0013 0.00337,-0.00337 0.00249,-3.796e-4 0.00387,-0.00131 0.00337,-0.00337 0.00249,-3.797e-4 0.00387,-0.0013 0.00337,-0.00337 0.00227,-4.095e-4 0.00378,-0.00122 0.00337,-0.00314 0.00222,-4.256e-4 0.00355,-0.00124 0.00315,-0.00314 0.00235,-4.107e-4 0.00384,-0.00137 0.00337,-0.00337 0.00217,-4.739e-4 0.00362,-0.00142 0.00314,-0.00337 0.00208,-4.652e-4 0.00354,-0.00107 0.00315,-0.00293 0.0021,-4.608e-4 0.00354,-0.00128 0.00315,-0.00314 0.00213,-4.782e-4 0.00359,-0.00123 0.00314,-0.00314 0.002,-4.87e-4 0.00331,-0.00109 0.00293,-0.00293 0.0021,-4.609e-4 0.00354,-0.00129 0.00314,-0.00314 0.00191,-5.087e-4 0.0033,-0.00113 0.00293,-0.00293 0.002,-4.87e-4 0.00331,-0.00109 0.00293,-0.00293 0.002,-4.869e-4 0.00331,-0.00109 0.00293,-0.00293 0.00185,-4.956e-4 0.00323,-9.984e-4 0.00293,-0.00269 0.00184,-4.827e-4 0.00343,-0.00125 0.00314,-0.00293 0.00158,-5.391e-4 0.00296,-0.00113 0.00269,-0.00269 0.00173,-5.435e-4 0.00305,-0.00122 0.00269,-0.00293 0.00164,-5.26e-4 0.00319,-0.0011 0.00293,-0.00269 0.00151,-5.566e-4 0.00295,-0.00115 0.00269,-0.00269 0.00149,-5.565e-4 0.00295,-0.00116 0.00269,-0.00269 0.00144,-5.391e-4 0.00289,-0.00102 0.00269,-0.00247 0.00143,-5.695e-4 0.00272,-0.00119 0.00247,-0.00269 0.00144,-5.392e-4 0.00289,-0.00102 0.00269,-0.00247 0.00138,-5.478e-4 0.00266,-0.00105 0.00247,-0.00247 0.00138,-5.477e-4 0.00266,-0.00105 0.00247,-0.00247 0.00138,-5.479e-4 0.00266,-0.00105 0.00247,-0.00247 0.00143,-5.696e-4 0.00272,-0.00119 0.00247,-0.00269 0.00128,-5.652e-4 0.00266,-8.652e-4 0.00247,-0.00225 0.00124,-5.956e-4 0.00247,-0.00107 0.00225,-0.00247 0.00128,-5.653e-4 0.00266,-8.653e-4 0.00247,-0.00225 0.00121,-5.739e-4 0.00242,-9.03e-4 0.00225,-0.00225 0.00121,-5.739e-4 0.00242,-9.029e-4 0.00225,-0.00225 0.00121,-5.74e-4 0.00242,-9.03e-4 0.00225,-0.00225 0.00121,-5.739e-4 0.00242,-9.029e-4 0.00225,-0.00225 0.00109,-5.566e-4 0.00236,-7.913e-4 0.00225,-0.00202 0.00103,-5.653e-4 0.00214,-8.218e-4 0.00202,-0.00202 0.00114,-5.74e-4 0.0024,-9.55e-4 0.00225,-0.00225 9.551e-4,-5.566e-4 0.00234,-8.856e-4 0.00225,-0.00202 8.478e-4,-5.653e-4 0.00211,-9.464e-4 0.00202,-0.00202 8.044e-4,-5.348e-4 0.00207,-7.957e-4 0.00202,-0.0018 8.045e-4,-5.783e-4 0.00168,-9.464e-4 0.00157,-0.00202 9.638e-4,-5.262e-4 0.00229,-7.044e-4 0.00225,-0.0018 7.783e-4,-5.609e-4 0.00188,-9.898e-4 0.0018,-0.00202 8.043e-4,-5.348e-4 0.00207,-7.913e-4 0.00202,-0.0018 7.13e-4,-5.348e-4 0.00184,-8.478e-4 0.0018,-0.0018 7.13e-4,-5.349e-4 0.00184,-8.479e-4 0.0018,-0.0018 7.044e-4,-5.348e-4 0.00184,-8.522e-4 0.0018,-0.0018 6.217e-4,-5.304e-4 0.00161,-6.783e-4 0.00157,-0.00157 7.13e-4,-5.348e-4 0.00184,-8.478e-4 0.0018,-0.0018 6.217e-4,-5.305e-4 0.00161,-6.782e-4 0.00157,-0.00157 6.174e-4,-5.261e-4 0.00161,-6.913e-4 0.00157,-0.00157 6.827e-4,-5.304e-4 0.00183,-6.478e-4 0.0018,-0.00157 5.304e-4,-5.174e-4 0.00138,-7.522e-4 0.00135,-0.00157 6.217e-4,-5.304e-4 0.00161,-6.782e-4 0.00157,-0.00157 5.608e-4,-4.957e-4 0.00157,-5.435e-4 0.00157,-0.00135 5.349e-4,-5.218e-4 0.00138,-7.435e-4 0.00135,-0.00157 5.566e-4,-4.957e-4 0.00157,-5.479e-4 0.00157,-0.00135 4.739e-4,-4.826e-4 0.00135,-6.044e-4 0.00135,-0.00135 4.739e-4,-4.825e-4 0.00135,-6.044e-4 0.00135,-0.00135 4.28e-4,-4.337e-4 0.00154,-4.739e-4 0.00157,-0.00113 3.497e-4,-4.521e-4 9.03e-4,-7.043e-4 9.03e-4,-0.00135 4.326e-4,-4.349e-4 0.00154,-4.697e-4 0.00157,-0.00112 3.095e-4,-3.992e-4 0.00109,-5.739e-4 0.00113,-0.00112 4.014e-4,-4.609e-4 0.00112,-6.653e-4 0.00112,-0.00135 3.578e-4,-4.153e-4 0.00131,-5.304e-4 0.00135,-0.00112 2.956e-4,-3.934e-4 0.00109,-5.87e-4 0.00113,-0.00112 2.346e-4,-3.658e-4 8.769e-4,-4.21e-4 9.03e-4,-9.03e-4 3.094e-4,-3.991e-4 0.00109,-5.739e-4 0.00112,-0.00113 2.323e-4,-3.624e-4 8.682e-4,-4.257e-4 9.03e-4,-9.029e-4 2.968e-4,-3.947e-4 0.00109,-5.827e-4 0.00113,-0.00113 2.348e-4,-3.658e-4 8.682e-4,-4.211e-4 9.03e-4,-9.029e-4 2.347e-4,-3.659e-4 8.682e-4,-4.211e-4 9.029e-4,-9.03e-4 2.267e-4,-3.612e-4 8.77e-4,-4.291e-4 9.03e-4,-9.03e-4 2.002e-4,-3.21e-4 8.565e-4,-2.669e-4 9.03e-4,-6.739e-4 1.829e-4,-3.348e-4 6.478e-4,-4.783e-4 6.739e-4,-9.03e-4 2.002e-4,-3.21e-4 8.566e-4,-2.669e-4 9.03e-4,-6.739e-4 1.552e-4,-2.899e-4 6.391e-4,-3.198e-4 6.739e-4,-6.74e-4 1.611e-4,-2.944e-4 6.392e-4,-3.128e-4 6.74e-4,-6.739e-4 1.61e-4,-2.944e-4 6.391e-4,-3.129e-4 6.739e-4,-6.739e-4 1.028e-4,-1.91e-4 6.218e-4,-2.289e-4 6.739e-4,-4.478e-4 1.173e-4,-2.542e-4 4.176e-4,-3.727e-4 4.478e-4,-6.739e-4 1.076e-4,-1.968e-4 6.217e-4,-2.22e-4 6.739e-4,-4.479e-4 7.2e-5,-1.553e-4 6.349e-4,-2.761e-4 6.74e-4,-4.478e-4 1.14e-4,-2.508e-4 4.176e-4,-3.785e-4 4.478e-4,-6.739e-4 6.83e-5,-1.508e-4 6.348e-4,-2.819e-4 6.739e-4,-4.479e-4 0,0 0,-2.242e-4 0,-2.242e-4 7.2e-5,-1.554e-4 4.096e-4,-2.761e-4 4.479e-4,-4.479e-4 6.87e-5,-1.519e-4 6.347e-4,-2.807e-4 6.739e-4,-4.478e-4 0,0 0,-2.244e-4 0,-2.244e-4 6.84e-5,-1.506e-4 6.348e-4,-2.818e-4 6.739e-4,-4.478e-4 0,0 2.244e-4,0 2.244e-4,0 0,0 0,-2.243e-4 0,-2.243e-4 0,0 2.243e-4,0 2.243e-4,0 0,0 2.243e-4,0 2.243e-4,0 0,0 0,-2.243e-4 0,-2.243e-4 0,0 0,-2.244e-4 0,-2.244e-4 0,0 2.244e-4,0 2.244e-4,0 2.473e-4,-0.00109 -9.725e-4,-0.00291 -0.0018,-0.0045 0,0 2.243e-4,0 2.243e-4,0 4.211e-4,-1.163e-4 -1.162e-4,-7.392e-4 2.243e-4,-9.03e-4 6.174e-4,-1.369e-4 4.28e-4,-6.739e-4 9.03e-4,-9.03e-4 5.174e-4,-1.145e-4 4.827e-4,-5e-4 9.03e-4,-6.739e-4 6e-4,-1.334e-4 4.391e-4,-6.826e-4 9.029e-4,-9.03e-4 5.174e-4,-1.15e-4 4.827e-4,-5e-4 9.03e-4,-6.739e-4 5.479e-4,-1.311e-4 2.485e-4,-6.956e-4 6.74e-4,-9.03e-4 4.478e-4,-1.074e-4 3.048e-4,-5.217e-4 6.739e-4,-6.738e-4 4.478e-4,-1.074e-4 3.048e-4,-5.218e-4 6.739e-4,-6.74e-4 3.486e-4,-8.32e-5 3.739e-4,-3.381e-4 6.74e-4,-4.478e-4 4.347e-4,-1.045e-4 3.14e-4,-5.262e-4 6.739e-4,-6.739e-4 4.478e-4,-1.072e-4 3.072e-4,-5.218e-4 6.739e-4,-6.74e-4 0,0 2.243e-4,0 2.243e-4,0 2.278e-4,-6.26e-5 2e-5,-3.738e-4 2.243e-4,-4.478e-4 3.474e-4,-8.33e-5 3.739e-4,-3.383e-4 6.74e-4,-4.478e-4 0,0 2.243e-4,0 2.243e-4,0 2.278e-4,-6.27e-5 2e-5,-3.739e-4 2.243e-4,-4.479e-4 0,0 2.244e-4,0 2.244e-4,0 2.277e-4,-6.26e-5 1.99e-5,-3.739e-4 2.243e-4,-4.478e-4 0,0 2.243e-4,0 2.243e-4,0 2.278e-4,-6.26e-5 1.99e-5,-3.739e-4 2.243e-4,-4.479e-4 0,0 2.244e-4,0 2.244e-4,0 2.289e-4,-6.29e-5 1.88e-5,-5.999e-4 2.243e-4,-6.739e-4 1.09e-4,-2.61e-5 3.451e-4,-1.955e-4 4.478e-4,-2.243e-4 0,0 2.243e-4,0 2.243e-4,0 0,0 0,-2.243e-4 0,-2.243e-4 0,0 2.244e-4,0 2.244e-4,0 0,0 0,-2.244e-4 0,-2.244e-4 0,0 2.243e-4,0 2.243e-4,0 0,0 0,-2.243e-4 0,-2.243e-4 0,0 2.243e-4,0 2.243e-4,0 0,0 0,-2.243e-4 0,-2.243e-4 0,0 2.243e-4,0 2.243e-4,0 0,0 0,-2.243e-4 0,-2.243e-4 0,0 2.243e-4,0 2.243e-4,0 0.00282,-7.783e-4 0.004,-0.00249 0.00202,-0.00584 0,0 -2.243e-4,0 -2.243e-4,0 -0.00722,-0.012016 -0.026139,-0.014884 -0.039768,-0.015318 0.00809,-0.00843 0.015049,-0.019343 0.021795,-0.031007 0,0 2.243e-4,-2.243e-4 2.243e-4,-2.243e-4 1.113e-4,-1.933e-4 3.383e-4,-2.554e-4 4.478e-4,-4.478e-4 0,0 2.244e-4,-2.244e-4 2.244e-4,-2.244e-4 0,0 2.243e-4,-2.243e-4 2.243e-4,-2.243e-4 0,0 2.243e-4,-2.243e-4 2.243e-4,-2.243e-4 0,0 2.244e-4,-2.244e-4 2.244e-4,-2.244e-4 0,0 2.242e-4,-2.243e-4 2.242e-4,-2.243e-4 0,0 2.244e-4,-2.243e-4 2.244e-4,-2.243e-4 0.00709,-0.012694 0.013265,-0.026857 0.018427,-0.042018 0,0 0,-2.243e-4 0,-2.243e-4 0.00806,-0.023718 0.014478,-0.049473 0.016626,-0.075494 4.65e-5,-9.15e-5 4.118e-4,-3.601e-4 4.479e-4,-4.479e-4 8.52e-5,-2.024e-4 -2.819e-4,-2.554e-4 -2.244e-4,-4.478e-4 2.761e-4,-3.796e-4 0.00188,-0.00101 0.00202,-0.00135 0,0 -2.242e-4,-2.243e-4 -2.242e-4,-2.243e-4 3.278e-4,-4.314e-4 0.00208,-0.00118 0.00225,-0.00157 8.38e-5,-1.99e-4 -2.818e-4,-2.588e-4 -2.243e-4,-4.478e-4 2.749e-4,-3.785e-4 0.00188,-0.00101 0.00202,-0.00135 8.38e-5,-1.99e-4 -2.819e-4,-2.589e-4 -2.244e-4,-4.478e-4 2.462e-4,-3.486e-4 0.00167,-0.00103 0.0018,-0.00135 0,0 -2.244e-4,-2.244e-4 -2.244e-4,-2.244e-4 2.98e-4,-4.015e-4 0.00187,-0.00121 0.00202,-0.00157 0,0 -2.243e-4,-2.244e-4 -2.243e-4,-2.244e-4 2.75e-4,-3.785e-4 0.00188,-0.00101 0.00202,-0.00135 8.38e-5,-1.991e-4 -2.819e-4,-2.589e-4 -2.244e-4,-4.479e-4 2.427e-4,-3.451e-4 0.00167,-0.00103 0.0018,-0.00135 0,0 -2.243e-4,-2.243e-4 -2.243e-4,-2.243e-4 2.462e-4,-3.485e-4 0.00167,-0.00103 0.0018,-0.00135 0,0 -2.243e-4,-2.244e-4 -2.243e-4,-2.244e-4 2.461e-4,-3.485e-4 0.00167,-0.00103 0.0018,-0.00135 0,0 -2.243e-4,-2.243e-4 -2.243e-4,-2.243e-4 2.462e-4,-3.486e-4 0.00166,-0.00103 0.0018,-0.00135 0,0 -2.243e-4,-2.242e-4 -2.243e-4,-2.242e-4 2.44e-4,-3.453e-4 0.00167,-0.00103 0.0018,-0.00135 0,0 0,-2.244e-4 0,-2.244e-4 1.977e-4,-2.956e-4 0.00146,-8.478e-4 0.00157,-0.00113 8.37e-5,-1.99e-4 -2.818e-4,-2.588e-4 -2.244e-4,-4.478e-4 1.99e-4,-2.968e-4 0.00146,-8.479e-4 0.00157,-0.00113 0,0 -2.244e-4,-2.243e-4 -2.244e-4,-2.243e-4 1.991e-4,-2.968e-4 0.00146,-8.479e-4 0.00157,-0.00113 0,0 -2.242e-4,-2.243e-4 -2.242e-4,-2.243e-4 2.001e-4,-2.98e-4 0.00146,-8.479e-4 0.00157,-0.00113 0,0 -2.244e-4,-2.244e-4 -2.244e-4,-2.244e-4 2.002e-4,-2.979e-4 0.00146,-8.478e-4 0.00157,-0.00113 0,0 -2.243e-4,-2.244e-4 -2.243e-4,-2.244e-4 1.99e-4,-2.967e-4 0.00146,-8.478e-4 0.00157,-0.00112 0,0 -2.243e-4,-2.243e-4 -2.243e-4,-2.243e-4 1.99e-4,-2.969e-4 0.00146,-8.479e-4 0.00157,-0.00113 0,0 0,-2.243e-4 0,-2.243e-4 1.553e-4,-2.45e-4 0.00125,-6.696e-4 0.00135,-9.03e-4 8.37e-5,-1.99e-4 -2.819e-4,-2.588e-4 -2.244e-4,-4.478e-4 1.553e-4,-2.451e-4 0.00125,-6.695e-4 0.00135,-9.03e-4 0,0 -2.244e-4,-2.243e-4 -2.244e-4,-2.243e-4 1.554e-4,-2.45e-4 0.00125,-6.696e-4 0.00135,-9.03e-4 0,0 -2.243e-4,-2.243e-4 -2.243e-4,-2.243e-4 1.553e-4,-2.45e-4 0.00125,-6.696e-4 0.00135,-9.03e-4 0,0 -2.242e-4,-2.243e-4 -2.242e-4,-2.243e-4 1.553e-4,-2.451e-4 0.00125,-6.695e-4 0.00135,-9.029e-4 0,0 -2.243e-4,-2.244e-4 -2.243e-4,-2.244e-4 1.553e-4,-2.45e-4 0.00125,-6.695e-4 0.00135,-9.03e-4 0,0 -2.243e-4,-2.243e-4 -2.243e-4,-2.243e-4 1.541e-4,-2.438e-4 0.00125,-6.695e-4 0.00135,-9.03e-4 0,0 0,-2.243e-4 0,-2.243e-4 9.56e-5,-1.668e-4 8.304e-4,-5.131e-4 9.03e-4,-6.74e-4 1.323e-4,-2.15e-4 0.00104,-6.956e-4 0.00113,-9.03e-4 8.38e-5,-1.99e-4 -2.819e-4,-2.588e-4 -2.243e-4,-4.478e-4 1.15e-4,-1.944e-4 0.00105,-4.913e-4 0.00113,-6.739e-4 0,0 0,-2.244e-4 0,-2.244e-4 9.46e-5,-1.656e-4 8.304e-4,-5.174e-4 9.03e-4,-6.738e-4 9.52e-5,-1.669e-4 8.304e-4,-5.132e-4 9.03e-4,-6.74e-4 0,0 -2.244e-4,-2.243e-4 -2.244e-4,-2.243e-4 9.55e-5,-1.668e-4 8.304e-4,-5.131e-4 9.03e-4,-6.74e-4 0,0 0,-2.242e-4 0,-2.242e-4 1.184e-4,-1.726e-4 8.087e-4,-5.087e-4 9.03e-4,-6.74e-4 0,0 0,-2.243e-4 0,-2.243e-4 6.32e-5,-1.185e-4 6.261e-4,-3.348e-4 6.738e-4,-4.478e-4 9.53e-5,-1.668e-4 8.305e-4,-5.131e-4 9.03e-4,-6.739e-4 0,0 -2.244e-4,-2.243e-4 -2.244e-4,-2.243e-4 0,0 2.244e-4,-2.244e-4 2.244e-4,-2.244e-4 6.26e-5,-1.184e-4 6.261e-4,-3.347e-4 6.739e-4,-4.478e-4 6.32e-5,-1.185e-4 6.261e-4,-3.348e-4 6.74e-4,-4.479e-4 0,0 -2.244e-4,-2.243e-4 -2.244e-4,-2.243e-4 6.37e-5,-1.196e-4 6.261e-4,-3.336e-4 6.739e-4,-4.479e-4 0,0 0,-2.242e-4 0,-2.242e-4 6.33e-5,-1.186e-4 6.261e-4,-3.348e-4 6.74e-4,-4.479e-4 6.3e-5,-1.185e-4 6.261e-4,-3.348e-4 6.739e-4,-4.478e-4 0,0 -2.244e-4,-2.243e-4 -2.244e-4,-2.243e-4 6.34e-5,-1.185e-4 6.262e-4,-3.348e-4 6.74e-4,-4.478e-4 4.65e-5,-9.16e-5 4.119e-4,-3.602e-4 4.478e-4,-4.479e-4 4.65e-5,-9.15e-5 4.119e-4,-3.601e-4 4.479e-4,-4.478e-4 1.089e-4,-1.852e-4 8.261e-4,-7.218e-4 9.029e-4,-9.03e-4 3.53e-5,-7.2e-5 4.199e-4,-1.541e-4 4.479e-4,-2.244e-4 0,0 -2.243e-4,-2.242e-4 -2.243e-4,-2.242e-4 3.87e-5,-7.3e-5 6.391e-4,-3.774e-4 6.739e-4,-4.479e-4 0,0 2.244e-4,-2.242e-4 2.244e-4,-2.242e-4 0,0 2.243e-4,-2.244e-4 2.243e-4,-2.244e-4 0,0 2.242e-4,-2.243e-4 2.242e-4,-2.243e-4 0,0 2.244e-4,-2.243e-4 2.244e-4,-2.243e-4 0,0 2.243e-4,-2.244e-4 2.243e-4,-2.244e-4 0.00123,-0.00293 -5.739e-4,-0.00493 -0.00382,-0.00629 -0.00846,-0.00344 -0.02398,-0.00253 -0.028985,-0.00225 0,0 2.243e-4,-2.243e-4 2.243e-4,-2.243e-4 0,0 2.243e-4,0 2.243e-4,0 1.565e-4,-1.484e-4 2.957e-4,-2.991e-4 4.479e-4,-4.478e-4 2.047e-4,-1.611e-4 2.449e-4,-5.087e-4 4.478e-4,-6.739e-4 0,0 2.243e-4,0 2.243e-4,0 0,0 0,-2.244e-4 0,-2.244e-4 1.587e-4,-1.254e-4 2.91e-4,-3.221e-4 4.478e-4,-4.478e-4 0,0 2.244e-4,-2.243e-4 2.244e-4,-2.243e-4 1.644e-4,-1.3e-4 2.852e-4,-3.163e-4 4.478e-4,-4.478e-4 0,0 2.243e-4,0 2.243e-4,0 0,0 2.243e-4,-2.244e-4 2.243e-4,-2.244e-4 0,0 2.244e-4,-2.243e-4 2.244e-4,-2.243e-4 0,0 2.243e-4,-2.243e-4 2.243e-4,-2.243e-4 0,0 0,-2.244e-4 0,-2.244e-4 0,0 2.243e-4,-2.242e-4 2.243e-4,-2.242e-4 1.231e-4,-9.66e-5 3.267e-4,-3.509e-4 4.479e-4,-4.479e-4 1.645e-4,-1.288e-4 2.853e-4,-3.175e-4 4.478e-4,-4.478e-4 1.15e-4,-1.134e-4 3.359e-4,-3.347e-4 4.478e-4,-4.479e-4 1.646e-4,-1.288e-4 2.854e-4,-3.175e-4 4.479e-4,-4.478e-4 0,0 2.243e-4,-2.243e-4 2.243e-4,-2.243e-4 1.622e-4,-1.266e-4 2.876e-4,-3.198e-4 4.478e-4,-4.478e-4 0,0 2.243e-4,-2.244e-4 2.243e-4,-2.244e-4 0,0 2.244e-4,-2.242e-4 2.244e-4,-2.242e-4 0,0 2.243e-4,-2.244e-4 2.243e-4,-2.244e-4 0,0 2.243e-4,-2.244e-4 2.243e-4,-2.244e-4 0,0 2.244e-4,-2.242e-4 2.244e-4,-2.242e-4 0,0 2.242e-4,0 2.242e-4,0 0,0 0,-2.244e-4 0,-2.244e-4 0.00115,-9.03e-4 0.00205,-0.00212 0.00314,-0.00314 0,0 0,-2.244e-4 0,-2.244e-4 9.811e-4,-9.203e-4 0.00205,-0.00168 0.00293,-0.00269 0,0 0,-2.244e-4 0,-2.244e-4 0,0 2.243e-4,-2.244e-4 2.243e-4,-2.244e-4 1.023e-4,-1.23e-4 3.498e-4,-1.006e-4 4.479e-4,-2.242e-4 0,0 2.243e-4,-2.244e-4 2.243e-4,-2.244e-4 0,0 2.244e-4,-2.243e-4 2.244e-4,-2.243e-4 0,0 2.243e-4,-2.243e-4 2.243e-4,-2.243e-4 0,0 2.243e-4,-2.244e-4 2.243e-4,-2.244e-4 0,0 2.243e-4,-2.242e-4 2.243e-4,-2.242e-4 0,0 2.243e-4,-2.244e-4 2.243e-4,-2.244e-4 8.652e-4,-0.00123 7.783e-4,-0.00272 0.00135,-0.00405 0.00173,-0.002 0.00375,-0.0032 0.00539,-0.00539 7.696e-4,-9.638e-4 0.00172,-0.00147 0.00247,-0.00247 9.204e-4,-0.00113 0.00202,-0.00173 0.00293,-0.00293 8.435e-4,-0.00104 0.00188,-0.0016 0.00269,-0.00269 7.74e-4,-8.856e-4 0.00171,-0.00132 0.00247,-0.00225 0,0 0,-2.244e-4 0,-2.244e-4 9.551e-4,-0.00117 0.00221,-0.00168 0.00314,-0.00293 9.29e-4,-0.00115 0.00201,-0.00193 0.00293,-0.00314 6.999e-4,-8.77e-4 0.00156,-0.00134 0.00225,-0.00225 8.435e-4,-0.00104 0.00188,-0.0016 0.00269,-0.00269 7.696e-4,-9.637e-4 0.00172,-0.00147 0.00247,-0.00247 8.435e-4,-0.00104 0.00188,-0.0016 0.00269,-0.00269 7.74e-4,-9.638e-4 0.00172,-0.00147 0.00247,-0.00247 7.739e-4,-9.638e-4 0.00172,-0.00147 0.00247,-0.00247 0.00165,-0.00192 0.00359,-0.00306 0.00517,-0.00517 0.00149,-0.00176 0.00329,-0.0028 0.00471,-0.00471 6.261e-4,-7.913e-4 0.00141,-0.00121 0.00202,-0.00202 7e-4,-8.769e-4 0.00156,-0.00134 0.00225,-0.00225 0.00146,-0.00172 0.00332,-0.00262 0.00471,-0.0045 5.869e-4,-7.435e-4 0.00122,-0.00125 0.0018,-0.00202 7e-4,-8.769e-4 0.00156,-0.00134 0.00225,-0.00225 6.263e-4,-7.913e-4 0.00141,-0.00121 0.00202,-0.00202 6.262e-4,-7.87e-4 0.00141,-0.00121 0.00202,-0.00202 6.261e-4,-7.87e-4 0.00141,-0.00121 0.00202,-0.00202 5.566e-4,-6.262e-4 0.00125,-9.29e-4 0.0018,-0.00157 8.86e-5,-1.174e-4 1.369e-4,-3.325e-4 2.244e-4,-4.479e-4 0.00131,-0.00156 0.00301,-0.00236 0.00427,-0.00405 4.258e-4,-5.434e-4 0.00115,-0.00102 0.00157,-0.00157 4.391e-4,-5.043e-4 9.116e-4,-8.304e-4 0.00135,-0.00135 0,0 2.244e-4,-2.244e-4 2.244e-4,-2.244e-4 6.173e-4,-7.391e-4 0.00142,-0.00103 0.00202,-0.0018 0,0 2.244e-4,-2.244e-4 2.244e-4,-2.244e-4 6.391e-4,-8.13e-4 0.0014,-0.00141 0.00202,-0.00225 3.658e-4,-4.245e-4 7.608e-4,-6.87e-4 0.00113,-0.00112 0,0 2.243e-4,-2.243e-4 2.243e-4,-2.243e-4 0.0012,-0.00144 0.00267,-0.00227 0.00382,-0.00382 3.544e-4,-4.522e-4 9.985e-4,-8.856e-4 0.00135,-0.00135 4.256e-4,-5.435e-4 0.00115,-0.00102 0.00157,-0.00157 4.257e-4,-5.434e-4 0.00115,-0.00102 0.00157,-0.00157 4.391e-4,-5.131e-4 9.203e-4,-8.217e-4 0.00135,-0.00135 0,0 2.244e-4,-2.244e-4 2.244e-4,-2.244e-4 0.00103,-0.00126 0.00214,-0.00204 0.00314,-0.00337 3.245e-4,-4.014e-4 8.045e-4,-4.913e-4 0.00113,-9.029e-4 0,0 0,-2.243e-4 0,-2.243e-4 3.911e-4,-5e-4 9.637e-4,-6.131e-4 0.00135,-0.00113 4.609e-4,-5.871e-4 0.00135,-9.725e-4 0.0018,-0.00157 4.782e-4,-6.087e-4 8.769e-4,-0.00117 0.00135,-0.0018 2.554e-4,-3.071e-4 6.435e-4,-3.623e-4 9.03e-4,-6.74e-4 0,0 2.242e-4,-2.242e-4 2.242e-4,-2.242e-4 8.77e-4,-0.00109 0.00184,-0.00177 0.00269,-0.00293 2.485e-4,-3.221e-4 6.521e-4,-5.739e-4 9.03e-4,-9.03e-4 3.198e-4,-4.107e-4 0.00103,-7.043e-4 0.00135,-0.00113 2.887e-4,-3.486e-4 6.13e-4,-5.434e-4 9.029e-4,-9.03e-4 0,0 0,-2.243e-4 0,-2.243e-4 3.234e-4,-4.026e-4 8.045e-4,-4.87e-4 0.00112,-9.029e-4 0,0 0,-2.244e-4 0,-2.244e-4 3.197e-4,-4.107e-4 8.043e-4,-4.783e-4 0.00113,-9.03e-4 4.435e-4,-5.695e-4 9.117e-4,-9.898e-4 0.00135,-0.00157 1.783e-4,-2.312e-4 4.957e-4,-2.151e-4 6.739e-4,-4.478e-4 3.198e-4,-4.107e-4 8.044e-4,-7.043e-4 0.00113,-0.00112 2.53e-4,-3.1145e-4 6.478e-4,-3.5745e-4 9.03e-4,-6.7365e-4 0,0 0,-2.243e-4 0,-2.243e-4 2.508e-4,-3.164e-4 6.478e-4,-3.532e-4 9.03e-4,-6.739e-4 0,0 0,-2.243e-4 0,-2.243e-4 3.382e-4,-4.391e-4 7.913e-4,-6.782e-4 0.00112,-0.00113 1.427e-4,-1.783e-4 3.072e-4,-2.692e-4 4.479e-4,-4.478e-4 0,0 0,-2.244e-4 0,-2.244e-4 2.508e-4,-3.175e-4 6.478e-4,-3.52e-4 9.029e-4,-6.739e-4 0,0 0,-2.244e-4 0,-2.244e-4 1.784e-4,-2.312e-4 4.957e-4,-2.15e-4 6.74e-4,-4.478e-4 2.485e-4,-3.221e-4 6.522e-4,-5.739e-4 9.029e-4,-9.03e-4 1.784e-4,-2.312e-4 4.957e-4,-4.391e-4 6.74e-4,-6.739e-4 1.783e-4,-2.278e-4 4.957e-4,-2.198e-4 6.739e-4,-4.479e-4 0,0 0,-2.242e-4 0,-2.242e-4 2.658e-4,-3.463e-4 8.609e-4,-7.74e-4 0.00113,-0.00113 2.669e-4,-3.463e-4 8.609e-4,-7.697e-4 0.00113,-0.00113 1.404e-4,-1.828e-4 3.095e-4,-2.645e-4 4.479e-4,-4.478e-4 6.261e-4,-7.87e-4 0.00141,-0.00121 0.00202,-0.00202 0,0 2.244e-4,-2.244e-4 2.244e-4,-2.244e-4 0,0 2.243e-4,-2.242e-4 2.243e-4,-2.242e-4 0,0 2.244e-4,-2.244e-4 2.244e-4,-2.244e-4 0,0 2.242e-4,-2.244e-4 2.242e-4,-2.244e-4 0,0 2.244e-4,-2.242e-4 2.244e-4,-2.242e-4 0,0 2.243e-4,-2.244e-4 2.243e-4,-2.244e-4 0.00879,-0.011616 0.016282,-0.026657 0.022244,-0.044936 0,0 0,-2.243e-4 0,-2.243e-4 0,0 2.244e-4,-2.244e-4 2.244e-4,-2.244e-4 0,0 2.243e-4,-2.243e-4 2.243e-4,-2.243e-4 0.006,-0.0187949 0.01039,-0.0416333 0.012583,-0.0689778 0,0 0,-2.2427e-4 0,-2.2427e-4 0.00116,-0.0146412 -0.00137,-0.0287928 -0.00696,-0.0426899 0,0 0,-2.2435e-4 0,-2.2435e-4 C 1.41394,0.78736848 1.368628,0.74810818 1.309565,0.70726186 1.291307,0.70199186 1.273943,0.69773386 1.257438,0.69445526 1.254968,0.66914846 1.247423,0.64472126 1.232049,0.62929686 c -0.00773,-0.00771 -0.017332,-0.0130871 -0.029434,-0.0152785 0,0 -2.244e-4,0 -2.244e-4,0 -0.012041,-0.002179 -0.026708,-0.001007 -0.043813,0.004272 -0.021945,0.006564 -0.028108,-0.0223261 -0.039095,-0.0379719 -0.0037,-0.005227 -0.0078,-0.009012 -0.013481,-0.009437 z"
       mask="none" />
    <path
       id="path34-2-1"
       style="display:inline;fill:#ffee2e;fill-opacity:1;stroke:#000000;stroke-width:0.00115038;stroke-linecap:butt;stroke-linejoin:miter;stroke-miterlimit:4;stroke-dasharray:none;stroke-opacity:1"
       d="m 1.1137278,0.55286352 c 0.022725,0.001702 0.023161,0.0564204 0.05281,0.0472187 0.068885,-0.0213779 0.093814,0.025602 0.098779,0.0763596 0.016504,0.003282 0.033857,0.007528 0.052113,0.0127997 0.078751,0.0544616 0.1329347,0.10605285 0.1282485,0.16491819 C 1.428189,1.0738502 1.2742045,0.99210513 1.2049137,1.0252617 c 0.016368,0.014999 0.027675,0.035189 0.034715,0.058185 0.023345,-0.00304 0.047058,-0.00494 0.047427,0.00451 5.609e-4,0.014388 -0.023373,0.025737 -0.023373,0.025737 0,0 0.042012,-0.00305 0.037086,0.00866 -0.00285,0.00677 -0.031612,0.020331 -0.052041,0.029653 -5.218e-4,0.066425 -0.024264,0.1369942 -0.059058,0.1732246 0.013689,4.391e-4 0.032826,0.00311 0.039978,0.015211 0.00791,0.013384 -0.034106,0.0014 -0.033682,0.0026 0.010206,0.00107 0.032447,0.025299 0.013552,0.021931 -0.01499,-0.00267 -0.02973,-0.01636 -0.043575,-0.021595 -0.00783,0.00397 -0.015985,0.00628 -0.024399,0.00649 l -0.0075,1.923e-4 c 0.00463,0.00444 0.00801,0.010081 0.00872,0.017686 0.00318,0.033414 -0.025419,0.00139 -0.034804,-0.010501 0.00622,0.011246 0.012409,0.039379 -0.00223,0.033818 -0.020873,-0.00793 -0.018312,-0.023935 -0.027354,-0.039585 l -0.044175,0.00113 c -0.0568156,-0.00345 -0.0910601,-0.023732 -0.10999902,-0.05329 -0.0466798,0.030097 -0.14396411,-0.1485302 -0.12689466,-0.1450934 0.001163,2.35e-4 0.0819885,0.041839 0.1092084,0.033882 0.007432,-0.061579 0.0333328,-0.1270108 0.0530663,-0.1705653 -0.0423843,-0.00892 -0.0713568,0.016994 -0.11020167,0.029501 0.002889,-0.032913 -0.0414597,-0.071157 -0.0966728,-0.10691777 0.0904735,-0.0265633 0.2174975,-0.11909386 0.23050417,0.028011 C 0.97925242,0.82628259 1.010259,0.71995025 1.1031455,0.6825951 1.0983355,0.6767601 1.0827585,0.6589641 1.0747815,0.6640763 0.98030706,0.72462 0.9294425,0.6924723 0.93241954,0.6652573 c 0.0191483,-0.0664686 0.057774,0.0186499 0.0844977,-0.0107576 0.018918,-0.0208179 0.037636,-0.028923 0.055213,-0.0286113 0.027119,4.8084e-4 0.051499,0.0210281 0.069823,0.0458252 0.0144,-0.002518 0.029866,-0.003838 0.046602,-0.003733 0.012227,7.901e-5 0.025157,9.5507e-4 0.038688,0.002509 C 1.2252828,0.6598892 1.2201128,0.6373973 1.2115278,0.6377203 1.0993978,0.6419483 1.0718835,0.58843 1.0882616,0.5664868 1.0992496,0.5560835 1.1073626,0.5524012 1.1137256,0.5528779 Z" />
    <path
       style="display:inline;fill:none;stroke:#000000;stroke-width:0.00410112px;stroke-linecap:butt;stroke-linejoin:miter;stroke-opacity:1"
       d="m 1.0896967,1.0717565 c -0.00312,0.00813 0.042353,0.081889 0.025568,0.087672 -0.013614,0.00469 -0.031383,-0.014952 -0.031383,-0.014952 0,0 0.015038,0.039351 0.00241,0.038013 -0.011286,-0.0012 -0.057608,-0.05863 -0.058421,-0.057883"
       id="path36-0-0"
       sodipodi:nodetypes="cscsc" />
    <path
       style="display:inline;fill:#ffeeaa;stroke:#000000;stroke-width:0.00115038;stroke-linecap:butt;stroke-linejoin:round;stroke-miterlimit:4;stroke-dasharray:none;stroke-opacity:1"
       d="m 1.2049116,1.0252601 -0.071078,-0.021421 c 0.059838,0.09549 0.02542,0.1957316 0.014799,0.3397762 0.045061,0.022654 0.1711374,-0.1765201 0.056279,-0.3183552 z"
       id="path104-6-4"
       sodipodi:nodetypes="cccc" />
    <g
       id="g1835"
       style="display:inline;stroke-width:0;stroke-miterlimit:4;stroke-dasharray:none"
       transform="matrix(-0.00410112,0,0,0.00410112,3.8619246,-0.70829224)">
      <path
         style="display:inline;opacity:0.541936;fill:#ffcc00;stroke:#ffd42a;stroke-width:0;stroke-linecap:round;stroke-linejoin:miter;stroke-miterlimit:4;stroke-dasharray:none;stroke-opacity:1;filter:url(#filter1810)"
         d="m 640.04877,435.20932 c 3.20685,5.77539 11.9382,5.54338 17.17062,5.35433"
         id="path201-3-3-2"
         sodipodi:nodetypes="cc" />
      <path
         style="display:inline;opacity:0.541936;fill:#ffcc00;stroke:#ffd42a;stroke-width:0;stroke-linecap:round;stroke-linejoin:miter;stroke-miterlimit:4;stroke-dasharray:none;stroke-opacity:1;filter:url(#filter1814)"
         d="m 636.83788,448.30138 c 4.17981,4.40895 12.4575,6.13166 20.06728,4.81609"
         id="path203-8-7-1"
         sodipodi:nodetypes="cc" />
      <path
         style="display:inline;opacity:0.541936;fill:#ffcc00;stroke:#ffd42a;stroke-width:0;stroke-linecap:round;stroke-linejoin:miter;stroke-miterlimit:4;stroke-dasharray:none;stroke-opacity:1;filter:url(#filter1818)"
         d="m 638.35212,468.15021 c 5.79741,2.78126 12.76841,3.14447 20.27959,1.0606"
         id="path205-7-3-7"
         sodipodi:nodetypes="cc" />
      <path
         style="display:inline;opacity:0.541936;fill:#ffcc00;stroke:#ffd42a;stroke-width:0;stroke-linecap:round;stroke-linejoin:miter;stroke-miterlimit:4;stroke-dasharray:none;stroke-opacity:1;filter:url(#filter1822)"
         d="m 659.39167,483.8026 c -5.47154,0.92395 -10.94348,1.1773 -16.41674,-0.74106"
         id="path207-7-5-9"
         sodipodi:nodetypes="cc" />
      <path
         style="display:inline;opacity:0.541936;fill:#ffcc00;stroke:#ffd42a;stroke-width:0;stroke-linecap:round;stroke-linejoin:miter;stroke-miterlimit:4;stroke-dasharray:none;stroke-opacity:1;filter:url(#filter1826)"
         d="m 660.89846,491.4197 c 0.27286,2.4559 -11.13329,4.33341 -13.1974,0.008"
         id="path209-1-9-9"
         sodipodi:nodetypes="cc" />
    </g>
    <path
       style="display:inline;opacity:0.96129;mix-blend-mode:normal;fill:#13eab6;fill-opacity:0.92549;stroke:none;stroke-width:0.00123034;stroke-linecap:butt;stroke-linejoin:miter;stroke-miterlimit:4;stroke-dasharray:none;stroke-opacity:1"
       d="M 0.97719408,0.97301903 C 0.9611495,0.90708849 0.92974974,0.88037812 0.87693904,0.90835535 l -0.0908922,0.0319923 c 0.0315772,0.015821 0.0904473,0.078072 0.0668376,0.10051575 0.0487789,-0.03357 0.0863731,-0.037766 0.11841753,-0.027387 z"
       id="path106-2-4"
       sodipodi:nodetypes="cccccc" />
    <path
       style="display:inline;mix-blend-mode:normal;fill:#13eab6;fill-opacity:0.92549;stroke:#159e7c;stroke-width:0.253907;stroke-linecap:butt;stroke-linejoin:miter;stroke-miterlimit:4;stroke-dasharray:none;stroke-opacity:0.92549;filter:url(#filter4548)"
       d="m 49.632896,90.106025 c -3.31115,-13.6062 -9.79119,-19.11847 -20.68984,-13.34476 l -18.757609,6.60224 c 6.516569,3.26514 18.665799,16.11182 13.793439,20.743655 10.06663,-6.927965 17.82502,-7.793915 24.43806,-5.651945 z"
       id="path4114"
       sodipodi:nodetypes="cccccc"
       transform="matrix(0.00484562,0,0,0.00484562,0.73669197,0.5363995)" />
    <path
       style="display:inline;mix-blend-mode:normal;fill:none;stroke:#000000;stroke-width:0.00145369;stroke-linecap:butt;stroke-linejoin:miter;stroke-miterlimit:4;stroke-dasharray:none;stroke-opacity:1"
       d="m 0.94774535,0.91958159 c -0.037813,-0.0122197 -0.10721178,0.006929 -0.10189186,0.0746005"
       id="path108-4-6"
       sodipodi:nodetypes="cc" />
    <path
       style="display:inline;fill:#000000;stroke:#000000;stroke-width:0.00410112px;stroke-linecap:butt;stroke-linejoin:miter;stroke-opacity:1"
       d="m 1.2118555,0.86966075 c -0.027013,0.11956678 -0.096036,0.037193 -0.053562,-0.0307463 0.019535,-0.0312464 0.065163,-0.0206026 0.053562,0.0307463 z"
       id="path179-0-8"
       sodipodi:nodetypes="sss" />
    <path
       style="display:inline;fill:#ffffff;stroke:#000000;stroke-width:0.00194822px;stroke-linecap:butt;stroke-linejoin:miter;stroke-opacity:1"
       d="m 1.2106008,0.85025225 c -0.012833,0.0567998 -0.045621,0.0176679 -0.025444,-0.0146065 0.00928,-0.0148435 0.030956,-0.009788 0.025444,0.0146065 z"
       id="path179-3-4-6"
       sodipodi:nodetypes="sss" />
    <path
       style="display:inline;fill:none;stroke:#000000;stroke-width:0.00123034;stroke-linecap:butt;stroke-linejoin:miter;stroke-miterlimit:4;stroke-dasharray:none;stroke-opacity:1"
       d="m 1.2370022,1.0765571 c -0.013151,0.023686 -0.04896,0.022734 -0.070419,0.021959"
       id="path201-3-3"
       sodipodi:nodetypes="cc" />
    <path
       style="display:inline;fill:none;stroke:#000000;stroke-width:0.00123034;stroke-linecap:butt;stroke-linejoin:miter;stroke-miterlimit:4;stroke-dasharray:none;stroke-opacity:1"
       d="m 1.2501705,1.1302493 c -0.017142,0.018081 -0.051089,0.025146 -0.082299,0.019751"
       id="path203-8-7"
       sodipodi:nodetypes="cc" />
    <path
       style="display:inline;fill:none;stroke:#000000;stroke-width:0.00123034;stroke-linecap:butt;stroke-linejoin:miter;stroke-miterlimit:4;stroke-dasharray:none;stroke-opacity:1"
       d="m 1.2439603,1.211652 c -0.023776,0.011406 -0.052365,0.012896 -0.083169,0.00435"
       id="path205-7-3"
       sodipodi:nodetypes="cc" />
    <path
       style="display:inline;fill:none;stroke:#000000;stroke-width:0.00123034;stroke-linecap:butt;stroke-linejoin:miter;stroke-miterlimit:4;stroke-dasharray:none;stroke-opacity:1"
       d="m 1.1576745,1.2758445 c 0.02244,0.00379 0.04488,0.00483 0.067327,-0.00304"
       id="path207-7-5"
       sodipodi:nodetypes="cc" />
    <path
       style="display:inline;fill:none;stroke:#000000;stroke-width:0.00123034;stroke-linecap:butt;stroke-linejoin:miter;stroke-miterlimit:4;stroke-dasharray:none;stroke-opacity:1"
       d="m 1.1514948,1.3070832 c -0.00112,0.010072 0.045659,0.017772 0.054125,3.39e-5"
       id="path209-1-9"
       sodipodi:nodetypes="cc" />
    <path
       style="display:inline;fill:#ffee2e;fill-opacity:1;stroke:#ffeeaa;stroke-width:2.22017;stroke-linecap:butt;stroke-linejoin:miter;stroke-miterlimit:4;stroke-dasharray:none;stroke-opacity:1;filter:url(#filter5297)"
       d="m 676.71495,434.22199 c 0.76043,1.98246 -12.75791,21.79993 -8.66508,23.20983 3.31954,1.14351 9.14805,-5.29516 9.14805,-5.29516 0,0 1.07216,6.23326 -0.40122,8.90228 -5.5661,10.08294 14.04689,-14.29598 14.24511,-14.1141"
       id="path36-0-0-7"
       sodipodi:nodetypes="cscsc"
       transform="matrix(-0.00332813,0,0,0.00339608,3.3353984,-0.39710774)" />
    <path
       style="display:inline;mix-blend-mode:normal;fill:none;stroke:#000000;stroke-width:0.00145369;stroke-linecap:butt;stroke-linejoin:miter;stroke-miterlimit:4;stroke-dasharray:none;stroke-opacity:1"
       d="m 0.97229518,0.95722523 c -0.0340075,-0.011319 -0.0822837,-0.010687 -0.0668602,0.05912"
       id="path4562"
       sodipodi:nodetypes="cc" />
    <path
       style="display:inline;mix-blend-mode:normal;fill:#159e7c;fill-opacity:0.92549;stroke:none;stroke-width:0.3;stroke-linecap:butt;stroke-linejoin:miter;stroke-miterlimit:4;stroke-dasharray:none;stroke-opacity:1;filter:url(#filter4580)"
       d="m 48.621896,86.846655 c -7.01813,-2.33606 -16.98104,-2.2055 -13.798,12.20059"
       id="path4578"
       sodipodi:nodetypes="cc"
       transform="matrix(0.00484562,0,0,0.00484562,0.73669197,0.5363995)" />
  </g>
  <g
     inkscape:groupmode="layer"
     id="layer3"
     inkscape:label="Capa 2"
     style="display:inline" />
</svg>
