<?xml version="1.0" encoding="UTF-8" standalone="no"?>
<svg
   xmlns:dc="http://purl.org/dc/elements/1.1/"
   xmlns:cc="http://creativecommons.org/ns#"
   xmlns:rdf="http://www.w3.org/1999/02/22-rdf-syntax-ns#"
   xmlns:svg="http://www.w3.org/2000/svg"
   xmlns="http://www.w3.org/2000/svg"
   xmlns:xlink="http://www.w3.org/1999/xlink"
   xmlns:sodipodi="http://sodipodi.sourceforge.net/DTD/sodipodi-0.dtd"
   xmlns:inkscape="http://www.inkscape.org/namespaces/inkscape"
   width="8"
   height="8"
   viewBox="0 0 2.1166666 2.1166667"
   version="1.1"
   id="svg4660"
   inkscape:version="1.0.2-2 (e86c870879, 2021-01-15)"
   sodipodi:docname="final.svg">
  <defs
     id="defs4654">
    <linearGradient
       inkscape:collect="always"
       id="linearGradient3722">
      <stop
         style="stop-color:#00b4de;stop-opacity:1"
         offset="0"
         id="stop3718" />
      <stop
         style="stop-color:#0cd1ff;stop-opacity:0;"
         offset="1"
         id="stop3720" />
    </linearGradient>
    <linearGradient
       inkscape:collect="always"
       id="linearGradient3705">
      <stop
         style="stop-color:#000000;stop-opacity:1"
         offset="0"
         id="stop3701" />
      <stop
         style="stop-color:#fff048;stop-opacity:0"
         offset="1"
         id="stop3703" />
    </linearGradient>
    <linearGradient
       inkscape:collect="always"
       id="linearGradient3669">
      <stop
         style="stop-color:#ffee2e;stop-opacity:1;"
         offset="0"
         id="stop3665" />
      <stop
         style="stop-color:#fff048;stop-opacity:0"
         offset="1"
         id="stop3667" />
    </linearGradient>
    <linearGradient
       inkscape:collect="always"
       id="linearGradient2550">
      <stop
         style="stop-color:#ffee2e;stop-opacity:1;"
         offset="0"
         id="stop2546" />
      <stop
         style="stop-color:#ffee2e;stop-opacity:0;"
         offset="1"
         id="stop2548" />
    </linearGradient>
    <filter
       style="color-interpolation-filters:sRGB"
       inkscape:label="Drop Shadow"
       id="filter4100"
       x="-0.02434188"
       width="1.0486838"
       y="-0.020114261"
       height="1.0402285">
      <feFlood
         flood-opacity="0.498039"
         flood-color="rgb(0,0,0)"
         result="flood"
         id="feFlood4090" />
      <feComposite
         in="flood"
         in2="SourceGraphic"
         operator="in"
         result="composite1"
         id="feComposite4092" />
      <feGaussianBlur
         in="composite1"
         stdDeviation="1.4510593"
         result="blur"
         id="feGaussianBlur4094" />
      <feOffset
         dx="-0.9"
         dy="-0.7"
         result="offset"
         id="feOffset4096" />
      <feComposite
         in="SourceGraphic"
         in2="offset"
         operator="over"
         result="fbSourceGraphic"
         id="feComposite4098" />
      <feColorMatrix
         result="fbSourceGraphicAlpha"
         in="fbSourceGraphic"
         values="0 0 0 -1 0 0 0 0 -1 0 0 0 0 -1 0 0 0 0 1 0"
         id="feColorMatrix4102" />
      <feFlood
         id="feFlood4104"
         flood-opacity="0.498039"
         flood-color="rgb(0,0,0)"
         result="flood"
         in="fbSourceGraphic" />
      <feComposite
         in2="fbSourceGraphic"
         id="feComposite4106"
         in="flood"
         operator="in"
         result="composite1" />
      <feGaussianBlur
         id="feGaussianBlur4108"
         in="composite1"
         stdDeviation="3"
         result="blur" />
      <feOffset
         id="feOffset4110"
         dx="-0.9"
         dy="-0.7"
         result="offset" />
      <feComposite
         in2="offset"
         id="feComposite4112"
         in="fbSourceGraphic"
         operator="over"
         result="composite2" />
    </filter>
    <filter
       inkscape:collect="always"
       style="color-interpolation-filters:sRGB"
       id="filter1810"
       x="-0.48601264"
       width="1.9720253"
       y="-1.5381728"
       height="4.0763454">
      <feGaussianBlur
         inkscape:collect="always"
         stdDeviation="3.4771411"
         id="feGaussianBlur1812" />
    </filter>
    <filter
       inkscape:collect="always"
       style="color-interpolation-filters:sRGB"
       id="filter1814"
       x="-0.41585797"
       width="1.8317159"
       y="-1.5904709"
       height="4.1809416">
      <feGaussianBlur
         inkscape:collect="always"
         stdDeviation="3.4771411"
         id="feGaussianBlur1816" />
    </filter>
    <filter
       inkscape:collect="always"
       style="color-interpolation-filters:sRGB"
       id="filter1818"
       x="-0.4115043"
       width="1.8230087"
       y="-3.4861808"
       height="7.9723616">
      <feGaussianBlur
         inkscape:collect="always"
         stdDeviation="3.4771411"
         id="feGaussianBlur1820" />
    </filter>
    <filter
       inkscape:collect="always"
       style="color-interpolation-filters:sRGB"
       id="filter1822"
       x="-0.50833106"
       width="2.0166621"
       y="-5.7777233"
       height="12.555447">
      <feGaussianBlur
         inkscape:collect="always"
         stdDeviation="3.4771411"
         id="feGaussianBlur1824" />
    </filter>
    <filter
       inkscape:collect="always"
       style="color-interpolation-filters:sRGB"
       id="filter1826"
       x="-0.63210142"
       width="2.2642028"
       y="-3.2165992"
       height="7.4331985">
      <feGaussianBlur
         inkscape:collect="always"
         stdDeviation="3.4771411"
         id="feGaussianBlur1828" />
    </filter>
    <filter
       style="color-interpolation-filters:sRGB"
       inkscape:label="Drop Shadow"
       id="filter4548">
      <feFlood
         flood-opacity="0.498039"
         flood-color="rgb(0,0,0)"
         result="flood"
         id="feFlood4538" />
      <feComposite
         in="flood"
         in2="SourceGraphic"
         operator="out"
         result="composite1"
         id="feComposite4540" />
      <feGaussianBlur
         in="composite1"
         stdDeviation="2"
         result="blur"
         id="feGaussianBlur4542" />
      <feOffset
         dx="-0.9"
         dy="-0.7"
         result="offset"
         id="feOffset4544" />
      <feComposite
         in="offset"
         in2="SourceGraphic"
         operator="atop"
         result="fbSourceGraphic"
         id="feComposite4546" />
      <feColorMatrix
         result="fbSourceGraphicAlpha"
         in="fbSourceGraphic"
         values="0 0 0 -1 0 0 0 0 -1 0 0 0 0 -1 0 0 0 0 1 0"
         id="feColorMatrix4550" />
      <feFlood
         id="feFlood4552"
         flood-opacity="0.498039"
         flood-color="rgb(0,0,0)"
         result="flood"
         in="fbSourceGraphic" />
      <feComposite
         in2="fbSourceGraphic"
         id="feComposite4554"
         in="flood"
         operator="out"
         result="composite1" />
      <feGaussianBlur
         id="feGaussianBlur4556"
         in="composite1"
         stdDeviation="2"
         result="blur" />
      <feOffset
         id="feOffset4558"
         dx="-0.9"
         dy="-0.7"
         result="offset" />
      <feComposite
         in2="fbSourceGraphic"
         id="feComposite4560"
         in="offset"
         operator="atop"
         result="composite2" />
    </filter>
    <filter
       inkscape:collect="always"
       style="color-interpolation-filters:sRGB"
       id="filter5297"
       x="-0.11046773"
       width="1.2209355"
       y="-0.089719065"
       height="1.1794381">
      <feGaussianBlur
         inkscape:collect="always"
         stdDeviation="1.0938825"
         id="feGaussianBlur5299" />
    </filter>
    <filter
       inkscape:collect="always"
       style="color-interpolation-filters:sRGB"
       id="filter4580"
       x="-0.091870077"
       width="1.1837403"
       y="-0.099349499"
       height="1.198699">
      <feGaussianBlur
         inkscape:collect="always"
         stdDeviation="0.55153919"
         id="feGaussianBlur4582" />
    </filter>
    <linearGradient
       inkscape:collect="always"
       xlink:href="#linearGradient2550"
       id="linearGradient2552"
       x1="3.4853306"
       y1="4.7773271"
       x2="-1.8435935"
       y2="9.9735956"
       gradientUnits="userSpaceOnUse"
       gradientTransform="matrix(23.740689,0,0,23.740689,0.35034756,77.084398)" />
    <linearGradient
       inkscape:collect="always"
       xlink:href="#linearGradient3669"
       id="linearGradient3663"
       x1="0.65998554"
       y1="1.8162218"
       x2="-1.2370665"
       y2="3.6003952"
       gradientUnits="userSpaceOnUse" />
    <linearGradient
       inkscape:collect="always"
       xlink:href="#linearGradient3705"
       id="linearGradient3698"
       gradientUnits="userSpaceOnUse"
       x1="0.86442453"
       y1="1.5624726"
       x2="-0.35458094"
       y2="2.4237182"
       gradientTransform="translate(-0.01826099,0.04217263)" />
    <linearGradient
       inkscape:collect="always"
       xlink:href="#linearGradient3722"
       id="linearGradient3724"
       x1="1.4098332"
       y1="0.94574654"
       x2="-1.2385337"
       y2="3.7137775"
       gradientUnits="userSpaceOnUse" />
    <filter
       inkscape:collect="always"
       style="color-interpolation-filters:sRGB"
       id="filter3748"
       x="-7.8906263e-05"
       width="1.0001578"
       y="-7.4803259e-05"
       height="1.0001496">
      <feGaussianBlur
         inkscape:collect="always"
         stdDeviation="0.00011328071"
         id="feGaussianBlur3750" />
    </filter>
    <mask
       maskUnits="userSpaceOnUse"
       id="mask3757">
      <rect
         style="display:inline;opacity:1;mix-blend-mode:normal;fill:url(#linearGradient3761);fill-opacity:1;fill-rule:nonzero;stroke:none;stroke-width:0.254;stroke-linecap:round;filter:url(#filter3748)"
         id="rect3759"
         width="2.1130996"
         height="2.1130996"
         x="0.0083521744"
         y="0.0083521716"
         ry="0.03340869" />
    </mask>
    <linearGradient
       inkscape:collect="always"
       xlink:href="#linearGradient3722"
       id="linearGradient3761"
       gradientUnits="userSpaceOnUse"
       x1="1.4098332"
       y1="0.94574654"
       x2="-1.2385337"
       y2="3.7137775" />
  </defs>
  <sodipodi:namedview
     id="base"
     pagecolor="#ffffff"
     bordercolor="#666666"
     borderopacity="1.0"
     inkscape:pageopacity="0.0"
     inkscape:pageshadow="2"
     inkscape:zoom="41.112409"
     inkscape:cx="4.6687008"
     inkscape:cy="3.8966634"
     inkscape:document-units="mm"
     inkscape:current-layer="layer1"
     inkscape:document-rotation="0"
     showgrid="false"
     inkscape:window-width="1258"
     inkscape:window-height="728"
     inkscape:window-x="92"
     inkscape:window-y="0"
     inkscape:window-maximized="0"
     units="px"
     showguides="false" />
  <metadata
     id="metadata4657">
    <rdf:RDF>
      <cc:Work
         rdf:about="">
        <dc:format>image/svg+xml</dc:format>
        <dc:type
           rdf:resource="http://purl.org/dc/dcmitype/StillImage" />
        <dc:title />
      </cc:Work>
    </rdf:RDF>
  </metadata>
  <g
     inkscape:label="Capa 1"
     inkscape:groupmode="layer"
     id="layer1"
     style="display:inline;filter:url(#filter3748);opacity:1">
    <path
       id="path2623"
       style="display:inline;mix-blend-mode:normal;fill:url(#linearGradient3698);fill-opacity:1;stroke:none;stroke-width:0.003px;stroke-linecap:butt;stroke-linejoin:miter;stroke-miterlimit:4;stroke-dasharray:none;stroke-opacity:1"
       d="m 1.0777961,0.14139138 c -0.00553,-4.1434e-4 -0.012298,0.00253 -0.01912,0.005168 -0.0022,8.2602e-4 -0.00436,3.6089e-4 -0.00672,0.00155 0,0 -5.159e-4,5.1673e-4 -5.159e-4,5.1673e-4 0,0 -5.16e-4,5.1673e-4 -5.16e-4,5.1673e-4 0,0 -5.159e-4,5.1673e-4 -5.159e-4,5.1673e-4 0,0 -5.16e-4,5.1673e-4 -5.16e-4,5.1673e-4 -0.00908,0.005038 -0.019371,0.011722 -0.031006,0.0227376 0,0 0,5.1674e-4 0,5.1674e-4 0,0 -5.16e-4,0 -5.16e-4,0 0,0 -5.159e-4,5.1673e-4 -5.159e-4,5.1673e-4 0,0 0,5.1673e-4 0,5.1673e-4 0,0 -5.159e-4,5.1673e-4 -5.159e-4,5.1673e-4 0,0 -5.16e-4,0 -5.16e-4,0 0,0 -5.159e-4,5.1673e-4 -5.159e-4,5.1673e-4 0,0 -5.159e-4,5.1673e-4 -5.159e-4,5.1673e-4 0,0 0,5.1673e-4 0,5.1673e-4 0,0 -5.16e-4,5.1673e-4 -5.16e-4,5.1673e-4 -3.413e-4,3.2041e-4 -6.879e-4,1.9061e-4 -0.00103,5.1673e-4 0,0 0,5.1674e-4 0,5.1674e-4 -3.387e-4,3.175e-4 -6.932e-4,1.9357e-4 -0.00103,5.1673e-4 0,0 0,5.1673e-4 0,5.1673e-4 -3.387e-4,3.175e-4 -6.932e-4,1.9358e-4 -0.00103,5.1673e-4 0,0 0,5.1673e-4 0,5.1673e-4 -3.387e-4,3.175e-4 -6.932e-4,1.9358e-4 -0.00103,5.1673e-4 0,0 0,5.1673e-4 0,5.1673e-4 -3.413e-4,3.2041e-4 -6.879e-4,1.9061e-4 -0.00103,5.1673e-4 0,0 0,5.1674e-4 0,5.1674e-4 -3.439e-4,3.2305e-4 -6.853e-4,1.8777e-4 -0.00103,5.1673e-4 0,0 0,5.1673e-4 0,5.1673e-4 -5.556e-4,5.1779e-4 -9.869e-4,5.0033e-4 -0.00155,0.001033 0,0 0,5.1673e-4 0,5.1673e-4 0,0 0,5.1673e-4 0,5.1673e-4 -3.413e-4,3.2015e-4 -6.905e-4,1.9085e-4 -0.00103,5.1673e-4 -5.609e-4,5.2282e-4 -9.816e-4,4.953e-4 -0.00155,0.001033 0,0 0,5.1673e-4 0,5.1673e-4 -5.61e-4,5.2282e-4 -9.816e-4,4.953e-4 -0.00155,0.001033 -1.954e-4,2.6177e-4 1.899e-4,7.6782e-4 0,0.001033 -5.583e-4,5.1859e-4 -9.869e-4,4.9954e-4 -0.00155,0.001033 0,0 0,5.1673e-4 0,5.1673e-4 -5.582e-4,5.1858e-4 -9.869e-4,4.9953e-4 -0.00155,0.001033 -7.7789e-4,7.1781e-4 -0.00128,8.0248e-4 -0.00207,0.00155 -1.954e-4,2.6178e-4 1.899e-4,7.6782e-4 0,0.001033 -5.583e-4,5.1858e-4 -9.869e-4,4.9953e-4 -0.00155,0.001033 -7.778e-4,7.1781e-4 -0.00128,8.0248e-4 -0.00207,0.00155 0,0 0,5.1673e-4 0,5.1673e-4 -7.778e-4,7.1782e-4 -0.00128,8.0248e-4 -0.00207,0.00155 0,0 0,5.1673e-4 0,5.1673e-4 -7.778e-4,7.1781e-4 -0.00128,8.0248e-4 -0.00207,0.00155 -1.954e-4,2.6178e-4 1.9e-4,7.6782e-4 0,0.001033 -7.699e-4,7.1253e-4 -0.00128,8.0831e-4 -0.00207,0.00155 -9.736e-4,8.9323e-4 -0.00159,0.001126 -0.00258,0.002067 0,0 0,5.1673e-4 0,5.1673e-4 -7.779e-4,7.1781e-4 -0.00128,8.0248e-4 -0.00207,0.00155 0,0 0,5.1673e-4 0,5.1673e-4 -9.79e-4,8.9932e-4 -0.00158,0.00112 -0.00259,0.002067 0,0 0,5.1673e-4 0,5.1673e-4 -9.737e-4,8.9324e-4 -0.00159,0.001126 -0.00258,0.002067 -1.974e-4,2.6445e-4 1.918e-4,7.6518e-4 0,0.001033 -7.699e-4,7.1252e-4 -0.00128,8.083e-4 -0.00207,0.00155 0,0 0,5.1673e-4 0,5.1673e-4 -0.00109,9.9801e-4 -0.00198,0.001009 -0.0031,0.002067 0,0 0,5.1673e-4 0,5.1673e-4 -9.79e-4,8.9932e-4 -0.00158,0.00112 -0.00258,0.002067 -1.974e-4,2.6446e-4 1.919e-4,7.6518e-4 0,0.001033 -9.816e-4,9.017e-4 -0.00158,0.001117 -0.00258,0.002067 0,0 0,5.1674e-4 0,5.1674e-4 -0.0011,0.001005 -0.00197,0.001001 -0.0031,0.002067 -1.974e-4,2.6445e-4 1.918e-4,7.6517e-4 0,0.001033 -9.816e-4,9.017e-4 -0.00158,0.001117 -0.00259,0.002067 -1.967e-4,2.6353e-4 1.912e-4,7.6597e-4 0,0.001033 -0.0011,0.001007 -0.00197,9.9907e-4 -0.0031,0.002067 -1.967e-4,2.6353e-4 1.912e-4,7.6597e-4 0,0.001033 -0.0011,0.001007 -0.00197,9.9907e-4 -0.0031,0.002067 -1.967e-4,2.6353e-4 1.912e-4,7.6597e-4 0,0.001033 -0.0011,0.001007 -0.00197,9.9907e-4 -0.0031,0.002067 0,0 0,5.1673e-4 0,5.1673e-4 -0.00131,0.001187 -0.00227,0.00131 -0.00362,0.002584 -2.963e-4,3.9661e-4 2.831e-4,0.001145 0,0.00155 -0.0011,0.001007 -0.00197,9.9907e-4 -0.0031,0.002067 0,0 0,5.1673e-4 0,5.1673e-4 -0.00131,0.001187 -0.00227,0.00131 -0.00362,0.002584 -1.954e-4,2.6178e-4 1.9e-4,7.6782e-4 0,0.001033 -0.0013,0.001178 -0.00228,0.00132 -0.00362,0.002584 -1.974e-4,2.6446e-4 1.918e-4,7.6518e-4 0,0.001033 -0.0013,0.001178 -0.00228,0.00132 -0.00362,0.002584 -1.974e-4,2.6446e-4 1.918e-4,7.6517e-4 0,0.001033 -0.0013,0.001178 -0.00228,0.00132 -0.00362,0.002584 -1.974e-4,2.6445e-4 1.918e-4,7.6518e-4 0,0.001033 -0.00131,0.001187 -0.00227,0.00131 -0.00362,0.002584 -2.937e-4,3.9265e-4 2.805e-4,0.001149 0,0.00155 -0.00131,0.001189 -0.00227,0.001308 -0.00362,0.002584 0,0 0,5.1673e-4 0,5.1673e-4 -0.00151,0.001364 -0.00257,0.00162 -0.00413,0.003101 -2.963e-4,3.9661e-4 2.831e-4,0.001145 0,0.00155 -0.00131,0.001189 -0.00227,0.001308 -0.00362,0.002584 -1.967e-4,2.6353e-4 1.912e-4,7.6597e-4 0,0.001033 -0.00152,0.001367 -0.00257,0.001616 -0.00413,0.003101 -1.974e-4,2.6446e-4 1.919e-4,7.6518e-4 0,0.001033 -0.00152,0.001367 -0.00257,0.001616 -0.00413,0.003101 -1.974e-4,2.6445e-4 1.919e-4,7.6517e-4 0,0.001033 -0.00152,0.001367 -0.00257,0.001616 -0.00413,0.003101 -1.967e-4,2.6353e-4 1.912e-4,7.6597e-4 0,0.001033 -0.00163,0.001463 -0.00296,0.001501 -0.00465,0.003101 -1.974e-4,2.6445e-4 1.918e-4,7.6517e-4 0,0.001033 -0.00153,0.001376 -0.00256,0.001605 -0.00413,0.003101 -2.937e-4,3.9264e-4 2.805e-4,0.001149 0,0.00155 -0.00163,0.001463 -0.00296,0.001501 -0.00465,0.003101 -3.122e-4,4.1805e-4 -2.187e-4,0.001122 -5.159e-4,0.00155 -0.0014,0.001267 -0.00218,0.001734 -0.00362,0.003101 -1.967e-4,2.6353e-4 1.912e-4,7.6597e-4 0,0.001033 -0.00172,0.00154 -0.00286,0.001925 -0.00465,0.003617 -1.967e-4,2.6352e-4 1.911e-4,7.6729e-4 0,0.001035 -0.00172,0.00154 -0.00286,0.001926 -0.00465,0.003617 -1.968e-4,2.6353e-4 1.911e-4,7.673e-4 0,0.001035 -0.00182,0.001622 -0.00327,0.001826 -0.00517,0.003617 -2.964e-4,3.9687e-4 2.831e-4,0.001146 0,0.00155 -0.00165,0.001476 -0.00295,0.001484 -0.00465,0.003101 -4.075e-4,5.4504e-4 -1.34e-4,0.001505 -5.16e-4,0.002066 -0.00152,0.001368 -0.00257,0.001617 -0.00413,0.003101 -1.968e-4,2.6376e-4 1.914e-4,7.6464e-4 0,0.001035 -0.00185,0.001648 -0.00324,0.001794 -0.00517,0.003617 -2.936e-4,3.9158e-4 2.805e-4,0.001148 0,0.00155 -0.00185,0.001648 -0.00324,0.001794 -0.00517,0.003617 -2.937e-4,3.9159e-4 2.805e-4,0.001148 0,0.00155 -0.00183,0.001632 -0.00326,0.00181 -0.00517,0.003617 -2.937e-4,3.9159e-4 2.805e-4,0.001148 0,0.00155 -0.00185,0.001648 -0.00324,0.001794 -0.00517,0.003617 -4.074e-4,5.4504e-4 -1.341e-4,0.001505 -5.159e-4,0.002066 -0.00172,0.00154 -0.00286,0.001926 -0.00465,0.003617 -1.972e-4,2.6424e-4 1.917e-4,7.6465e-4 0,0.001035 -0.00202,0.001786 -0.00357,0.002135 -0.00568,0.004134 -2.963e-4,3.9687e-4 2.831e-4,0.001146 0,0.00155 -0.00185,0.001648 -0.00324,0.001794 -0.00517,0.003617 -2.937e-4,3.9423e-4 2.805e-4,0.001148 0,0.00155 -0.00205,0.001815 -0.00354,0.002101 -0.00568,0.004134 -2.937e-4,3.9423e-4 2.805e-4,0.001148 0,0.00155 -0.00203,0.001799 -0.00356,0.002119 -0.00568,0.004134 -2.963e-4,3.9687e-4 2.831e-4,0.001143 0,0.00155 -0.00203,0.001799 -0.00356,0.002119 -0.00568,0.004134 -2.99e-4,3.9952e-4 2.858e-4,0.001143 0,0.00155 -0.0013,0.001148 -0.00228,0.001349 -0.00362,0.002585 -3.466e-4,-1.2171e-4 -0.0012,1.2716e-4 -0.00155,0 -0.017532,-0.006407 -0.035649,-0.0198395 -0.053227,-0.0304891 0,0 -5.159e-4,0 -5.159e-4,0 -0.01753,-0.0105876 -0.034243,-0.0184012 -0.049609,-0.0144693 0,0 -5.16e-4,0 -5.16e-4,0 0,0 -5.159e-4,5.1594e-4 -5.159e-4,5.1594e-4 0,0 -5.16e-4,5.1594e-4 -5.16e-4,5.1594e-4 0,0 -5.159e-4,5.1594e-4 -5.159e-4,5.1594e-4 -0.00695,0.002432 -0.014021,0.006455 -0.020154,0.0149863 0,0 0,5.1594e-4 0,5.1594e-4 0,0 -5.159e-4,0 -5.159e-4,0 0,0 0,5.1594e-4 0,5.1594e-4 0,0 -5.16e-4,5.1593e-4 -5.16e-4,5.1593e-4 0,0 -5.159e-4,5.1594e-4 -5.159e-4,5.1594e-4 0,0 -5.159e-4,5.1594e-4 -5.159e-4,5.1594e-4 -2.805e-4,3.7306e-4 -0.00127,6.4823e-4 -0.00155,0.001035 0,0 0,5.1594e-4 0,5.1594e-4 -4.498e-4,5.9795e-4 -0.00111,9.1281e-4 -0.00155,0.00155 0,0 0,5.1594e-4 0,5.1594e-4 0,0 -5.16e-4,0 -5.16e-4,0 0,0 -5.159e-4,5.1594e-4 -5.159e-4,5.1594e-4 0,0 0,5.1594e-4 0,5.1594e-4 0,0 -5.159e-4,5.1593e-4 -5.159e-4,5.1593e-4 0,0 -5.16e-4,0 -5.16e-4,0 -4.604e-4,5.9532e-4 -0.00109,9.1811e-4 -0.00155,0.00155 -4.524e-4,6.0325e-4 -0.0011,9.1017e-4 -0.00155,0.00155 0,0 -5.159e-4,5.1594e-4 -5.159e-4,5.1594e-4 0,0 0,5.1594e-4 0,5.1594e-4 -4.604e-4,5.9531e-4 -0.0011,3.9952e-4 -0.00155,0.001035 -4.657e-4,6.0325e-4 -0.00109,9.1016e-4 -0.00155,0.00155 -4.657e-4,6.0325e-4 -0.00109,9.1016e-4 -0.00155,0.00155 -6.35e-4,8.2021e-4 -0.00144,0.001691 -0.00207,0.002585 -2.805e-4,3.7042e-4 -7.567e-4,1.3087e-4 -0.00104,5.1594e-4 -8.229e-4,0.001032 -0.00178,0.001431 -0.00258,0.002585 -3.599e-4,4.7096e-4 -6.774e-4,5.3975e-4 -0.00103,0.001035 -6.509e-4,8.1492e-4 -0.00194,0.001175 -0.00259,0.002066 -5.451e-4,6.9585e-4 -0.00153,0.001318 -0.00207,0.002066 -7.858e-4,0.001003 -0.0013,0.001987 -0.00207,0.003101 -4.604e-4,5.9532e-4 -0.00161,9.1811e-4 -0.00207,0.00155 -5.451e-4,6.9586e-4 -0.00101,8.0169e-4 -0.00155,0.00155 -0.00101,0.001228 -0.00212,0.001693 -0.0031,0.003101 -8.837e-4,0.001109 -0.00172,0.001852 -0.00258,0.003101 -6.377e-4,8.255e-4 -0.00144,0.001169 -0.00207,0.002066 -8.149e-4,0.001024 -0.00178,0.001439 -0.00258,0.002585 -6.509e-4,8.1492e-4 -0.00143,0.001175 -0.00207,0.002066 -0.0011,0.00132 -0.00254,0.001566 -0.00362,0.003101 -8.229e-4,0.001032 -0.00178,0.001431 -0.00258,0.002585 -0.00107,0.001302 -0.00206,0.002114 -0.0031,0.003617 -8.149e-4,0.001024 -0.00178,0.001439 -0.00258,0.002585 -0.001,0.00122 -0.00212,0.001704 -0.0031,0.003101 -0.001,0.00122 -0.00212,0.001704 -0.0031,0.003101 -8.255e-4,0.001008 -0.00229,0.001455 -0.0031,0.002585 -0.00125,0.001482 -0.0024,0.002379 -0.00362,0.004134 -8.255e-4,0.001008 -0.00229,0.001455 -0.0031,0.002585 -0.00135,0.001603 -0.00282,0.002727 -0.00413,0.004651 -8.917e-4,0.001119 -0.00171,0.001839 -0.00259,0.003101 -0.00119,0.001421 -0.00246,0.001947 -0.00362,0.003617 -0.00111,0.001333 -0.00253,0.001548 -0.00362,0.003101 -0.00129,0.001498 -0.00289,0.001834 -0.00413,0.003617 -0.00127,0.001498 -0.00239,0.002357 -0.00362,0.004134 -0.00146,0.001701 -0.00324,0.00258 -0.00465,0.004651 -0.00107,0.001307 -0.00206,0.002109 -0.0031,0.003617 -0.00136,0.001585 -0.00281,0.002228 -0.00413,0.004134 -0.00136,0.001585 -0.00281,0.002228 -0.00413,0.004134 -0.00129,0.001503 -0.00288,0.001826 -0.00413,0.003617 -0.00154,0.001746 -0.00316,0.002495 -0.00465,0.004651 -0.00141,0.001632 -0.00329,0.002159 -0.00465,0.004134 -0.00154,0.00177 -0.00316,0.002987 -0.00465,0.005168 -0.00126,0.00149 -0.0024,0.002371 -0.00362,0.004134 -0.00155,0.001752 -0.00315,0.002487 -0.00465,0.004651 -0.00155,0.001752 -0.00315,0.002487 -0.00465,0.004651 -0.00149,0.001683 -0.0032,0.002069 -0.00465,0.004134 -0.00186,0.002027 -0.0039,0.00307 -0.00568,0.005684 -0.00137,0.001577 -0.0028,0.00223 -0.00413,0.004134 -0.00186,0.002027 -0.0039,0.00307 -0.00568,0.005684 -0.00167,0.001879 -0.00356,0.002812 -0.00517,0.005168 -0.00165,0.00186 -0.00358,0.00284 -0.00517,0.005168 -0.00167,0.001876 -0.00356,0.002814 -0.00517,0.005168 -0.00174,0.001955 -0.0035,0.003208 -0.00517,0.005684 -0.00149,0.00168 -0.00321,0.002072 -0.00465,0.004134 -0.00205,0.00217 -0.00424,0.003325 -0.0062,0.006201 -0.00186,0.002027 -0.0039,0.00307 -0.00568,0.005684 -0.00184,0.002011 -0.00392,0.003099 -0.00568,0.005684 -0.00184,0.002011 -0.00392,0.003099 -0.00568,0.005684 -0.00193,0.002106 -0.00384,0.003462 -0.00568,0.006201 -0.00174,0.001905 -0.00349,0.002749 -0.00517,0.005168 -0.00221,0.002302 -0.00462,0.003599 -0.00672,0.006718 -0.00174,0.001905 -0.00349,0.002749 -0.00517,0.005168 -0.00216,0.002244 -0.00466,0.003177 -0.00672,0.006201 -0.00213,0.002244 -0.00418,0.003715 -0.0062,0.006718 -0.00204,0.002159 -0.00426,0.003346 -0.0062,0.006201 -0.00197,0.002082 -0.00432,0.002955 -0.0062,0.005684 -0.00229,0.002355 -0.00454,0.004006 -0.00672,0.007235 -0.00193,0.002048 -0.00383,0.003011 -0.00568,0.005684 -0.00243,0.002439 -0.00493,0.003819 -0.00724,0.007235 -0.00224,0.002318 -0.00459,0.003565 -0.00672,0.006718 -0.00224,0.002318 -0.00459,0.003565 -0.00672,0.006718 -0.00234,0.002426 -0.00501,0.003894 -0.00723,0.007235 -0.00204,0.002159 -0.00426,0.003346 -0.0062,0.006201 -0.00254,0.002548 -0.00535,0.00414 -0.00775,0.007752 -0.00213,0.002249 -0.00417,0.003707 -0.0062,0.006718 -0.00234,0.002357 -0.00501,0.003459 -0.00724,0.006718 -0.00243,0.002439 -0.00493,0.003818 -0.00724,0.007235 -0.00254,0.002545 -0.00535,0.004144 -0.00775,0.007752 -0.00223,0.002289 -0.0046,0.003604 -0.00672,0.006718 -0.0027,0.002638 -0.00572,0.004437 -0.00827,0.008268 -0.00223,0.002289 -0.0046,0.003604 -0.00672,0.006718 -0.00274,0.002653 -0.00569,0.004393 -0.00827,0.008268 -0.00248,0.002498 -0.00489,0.00424 -0.00724,0.007751 -0.00252,0.00249 -0.00537,0.003708 -0.00775,0.007235 -0.00263,0.002553 -0.00527,0.004072 -0.00775,0.007751 -0.00274,0.002653 -0.00569,0.004393 -0.00827,0.008268 -0.0027,0.002638 -0.00572,0.004437 -0.00827,0.008268 -0.00243,0.002408 -0.00494,0.003862 -0.00724,0.007235 -0.00293,0.002751 -0.00603,0.004643 -0.00878,0.008785 -0.00267,0.002606 -0.00523,0.004495 -0.00775,0.008268 -0.00285,0.00271 -0.00611,0.004242 -0.00879,0.008268 -0.00281,0.002724 -0.00563,0.004772 -0.00827,0.008785 -0.00261,0.002543 -0.00529,0.004099 -0.00775,0.007752 -0.00312,0.00287 -0.00639,0.004867 -0.0093,0.009302 -0.00271,0.002627 -0.0052,0.004444 -0.00775,0.008268 -0.00299,0.002764 -0.00598,0.004586 -0.00879,0.008785 -0.00299,0.002764 -0.00598,0.004586 -0.00879,0.008785 -0.00292,0.0027 -0.00605,0.00421 -0.00879,0.00827 -0.00321,0.00287 -0.00683,0.00479 -0.00982,0.0093 -0.00301,0.00282 -0.00597,0.00502 -0.00879,0.0093 -0.00309,0.00286 -0.00642,0.00491 -0.0093,0.0093 -0.00291,0.00274 -0.00605,0.00467 -0.00878,0.00878 -0.00311,0.00283 -0.0064,0.00492 -0.0093,0.0093 -0.00311,0.00283 -0.00639,0.00492 -0.0093,0.0093 -0.00311,0.00283 -0.00639,0.00492 -0.0093,0.0093 -0.00328,0.00294 -0.00676,0.00517 -0.00982,0.00982 -0.003,0.00273 -0.00597,0.00461 -0.00879,0.00879 -0.00353,0.00302 -0.00706,0.00536 -0.010335,0.010335 -0.00336,0.003 -0.0067,0.00554 -0.00982,0.010335 -0.00305,0.00281 -0.00644,0.00448 -0.0093,0.00879 -0.00348,0.00301 -0.0071,0.00542 -0.010335,0.010335 -0.0034,0.00301 -0.00666,0.00548 -0.00982,0.010335 -0.00322,0.00288 -0.00681,0.00477 -0.00982,0.0093 -0.00356,0.00307 -0.00704,0.00579 -0.010335,0.010852 -0.00333,0.00296 -0.00672,0.0051 -0.00982,0.00982 -0.0035,0.00301 -0.00709,0.0054 -0.010335,0.010335 -0.0035,0.00301 -0.00709,0.0054 -0.010335,0.010335 -0.00353,0.00303 -0.00706,0.00535 -0.010335,0.010335 -0.00367,0.00311 -0.00746,0.00563 -0.010852,0.010852 -0.00342,0.00295 -0.00716,0.00503 -0.010335,0.00982 -0.00392,0.00323 -0.00777,0.00626 -0.011369,0.011886 -0.0034,0.00302 -0.00666,0.00549 -0.00982,0.010335 -0.00372,0.00312 -0.00741,0.00556 -0.010852,0.010852 -0.00365,0.00306 -0.00748,0.0052 -0.010852,0.010335 -0.0038,0.0031 -0.00786,0.00552 -0.011369,0.010852 -0.00384,0.00317 -0.00783,0.00591 -0.011369,0.011369 -0.00379,0.00316 -0.00787,0.00597 -0.011369,0.011369 -0.00351,0.00298 -0.00708,0.00543 -0.010335,0.010335 -0.00401,0.00319 -0.00768,0.00622 -0.011369,0.011886 -0.00403,0.00326 -0.00819,0.00612 -0.011886,0.011886 -0.00381,0.00316 -0.00786,0.00594 -0.011369,0.011369 -0.00374,0.00309 -0.0074,0.0056 -0.010852,0.010852 -0.00424,0.0033 -0.00853,0.00636 -0.012402,0.012402 -0.00381,0.00315 -0.00734,0.00596 -0.010852,0.011369 -0.00402,0.00315 -0.00819,0.00575 -0.011886,0.011369 -0.00416,0.00324 -0.00859,0.006 -0.012402,0.011886 -0.00412,0.00328 -0.00811,0.00651 -0.011886,0.012402 -0.00398,0.00319 -0.00771,0.00626 -0.011369,0.011886 -0.0042,0.00323 -0.00856,0.00598 -0.012402,0.011886 -0.00424,0.0033 -0.00853,0.00636 -0.012402,0.012402 -0.00424,0.0033 -0.00853,0.00635 -0.012402,0.012402 -0.00426,0.00335 -0.00851,0.00678 -0.012402,0.012919 -0.00396,0.0032 -0.00824,0.00574 -0.011886,0.011369 -0.00431,0.00327 -0.00898,0.00631 -0.012919,0.012402 -0.00433,0.00331 -0.00845,0.00676 -0.012402,0.012919 -0.00411,0.00317 -0.00812,0.00615 -0.011886,0.011886 -0.00465,0.00335 -0.00921,0.00684 -0.013436,0.013436 -0.00439,0.00332 -0.00892,0.00667 -0.012919,0.012919 -0.00422,0.00325 -0.00854,0.00644 -0.012402,0.012402 -0.00442,0.00328 -0.00889,0.00668 -0.012919,0.012919 -0.0046,0.00335 -0.00926,0.00691 -0.013436,0.013436 -0.00452,0.00338 -0.00881,0.00695 -0.012919,0.013436 -0.0043,0.00325 -0.00847,0.00636 -0.012402,0.012402 -0.00477,0.00336 -0.00963,0.00668 -0.013952,0.013436 -0.00473,0.00341 -0.00915,0.00718 -0.013436,0.013953 -0.00451,0.00334 -0.00933,0.00651 -0.013436,0.012919 -0.00466,0.00335 -0.00921,0.00683 -0.013436,0.013436 -0.00473,0.0034 -0.00915,0.00719 -0.013436,0.013953 -0.00454,0.0033 -0.0093,0.00653 -0.013436,0.012919 -0.00497,0.00344 -0.00998,0.00736 -0.014469,0.014469 -0.00467,0.0034 -0.0092,0.00727 -0.013436,0.013952 -0.00461,0.00335 -0.00924,0.00689 -0.013436,0.013436 -0.00482,0.00337 -0.00959,0.00713 -0.013953,0.013952 -0.005,0.00342 -0.00996,0.00735 -0.014469,0.014469 -0.00488,0.00344 -0.010058,0.00696 -0.014469,0.013953 -0.00471,0.00336 -0.00917,0.00728 -0.013436,0.013953 -0.00517,0.00349 -0.01034,0.00755 -0.014986,0.014986 -0.00479,0.00341 -0.00962,0.00711 -0.013953,0.013952 -0.005,0.00342 -0.00996,0.00735 -0.014469,0.014469 -0.005,0.00342 -0.00996,0.00735 -0.014469,0.014469 -0.00506,0.00342 -0.00991,0.00728 -0.014469,0.014469 -0.00517,0.00349 -0.01034,0.00755 -0.014986,0.014986 -0.00507,0.00347 -0.0099,0.0077 -0.014469,0.014986 -0.00494,0.00337 -0.010006,0.00698 -0.014469,0.013953 -0.00531,0.00344 -0.01074,0.00744 -0.015503,0.014986 -0.00526,0.00349 -0.010264,0.00794 -0.014986,0.015503 -0.00514,0.00345 -0.010359,0.00764 -0.014986,0.014986 -0.00509,0.00337 -0.00988,0.0073 -0.014469,0.014469 -0.00567,0.00352 -0.010964,0.00836 -0.01602,0.016536 -0.00507,0.00342 -0.0099,0.00726 -0.014469,0.014469 -0.00536,0.00336 -0.01069,0.00747 -0.015503,0.014986 -0.0056,0.00347 -0.011022,0.00802 -0.01602,0.01602 -0.00538,0.00348 -0.010681,0.00778 -0.015503,0.015503 -0.00535,0.00344 -0.010702,0.00788 -0.015503,0.015503 -0.011917,0.0075 -0.022652,0.021901 -0.031523,0.05271 -0.00466,0.042605 0.051972,0.085322 0.1545125,0.067696 0.00183,0.00119 0.00284,0.00243 0.00465,0.00362 -0.0063,0.00206 -0.013473,0.00594 -0.019637,0.00775 0.00263,0.00171 0.00411,0.00346 0.00672,0.00517 -0.00611,0.00199 -0.013145,0.00548 -0.01912,0.00723 0.00263,0.00171 0.00411,0.00346 0.00672,0.00517 -0.00631,0.00206 -0.013467,0.00594 -0.019637,0.00775 0.00263,0.00171 0.00411,0.00346 0.00672,0.00517 -0.0063,0.00206 -0.013473,0.00594 -0.019637,0.00775 0.00263,0.00171 0.00411,0.00346 0.00672,0.00517 -0.0063,0.00206 -0.013473,0.00594 -0.019637,0.00775 0.00263,0.00171 0.00411,0.00346 0.00672,0.00517 -0.00631,0.00206 -0.013467,0.00594 -0.019637,0.00775 0.00263,0.00171 0.00411,0.00346 0.00672,0.00517 -0.00631,0.00206 -0.013467,0.00594 -0.019637,0.00775 0.00286,0.00185 0.0044,0.00383 0.00724,0.00568 -0.0066,0.00216 -0.014225,0.00586 -0.020671,0.00775 0.00286,0.00185 0.0044,0.00383 0.00724,0.00568 -0.00645,0.00211 -0.013849,0.0059 -0.020154,0.00775 0.00264,0.00171 0.0041,0.00345 0.00672,0.00517 -0.00646,0.00211 -0.013842,0.0059 -0.020154,0.00775 0.00286,0.00185 0.0044,0.00383 0.00723,0.00568 -0.0066,0.00217 -0.014218,0.00586 -0.020671,0.00775 0.00286,0.00185 0.0044,0.00383 0.00724,0.00568 -0.0066,0.00217 -0.014218,0.00586 -0.020671,0.00775 0.00299,0.00193 0.0048,0.00374 0.00775,0.00568 -0.0068,0.00224 -0.014547,0.00632 -0.021187,0.00827 0.00286,0.00185 0.0044,0.00382 0.00723,0.00568 -0.00674,0.00222 -0.014601,0.00582 -0.021187,0.00775 0.00286,0.00185 0.0044,0.00383 0.00724,0.00568 -0.0066,0.00217 -0.014218,0.00586 -0.020671,0.00775 0.00286,0.00185 0.0044,0.00383 0.00724,0.00568 -0.00681,0.00224 -0.01454,0.00632 -0.021187,0.00827 0.00286,0.00185 0.0044,0.00383 0.00723,0.00568 -0.0068,0.00224 -0.014547,0.00632 -0.021187,0.00827 0.00286,0.00185 0.0044,0.00383 0.00724,0.00568 -0.0068,0.00224 -0.014547,0.00632 -0.021187,0.00827 0.00286,0.00185 0.0044,0.00383 0.00724,0.00568 -0.00681,0.00224 -0.01454,0.00632 -0.021187,0.00827 0.00286,0.00185 0.0044,0.00383 0.00723,0.00568 -0.00681,0.00224 -0.01454,0.00632 -0.021187,0.00827 0.00308,0.002 0.0047,0.0042 0.00775,0.0062 -0.0071,0.00234 -0.015298,0.00624 -0.022221,0.00827 0.00286,0.00185 0.0044,0.00383 0.00723,0.00568 -0.00681,0.00224 -0.01454,0.00632 -0.021187,0.00827 0.00308,0.002 0.0047,0.0042 0.00775,0.0062 -0.0071,0.00235 -0.015291,0.00623 -0.022221,0.00827 0.00308,0.002 0.0047,0.0042 0.00775,0.0062 -0.0071,0.00235 -0.015291,0.00623 -0.022221,0.00827 0.00308,0.002 0.0047,0.0042 0.00775,0.0062 -0.0071,0.00235 -0.015291,0.00623 -0.022221,0.00827 0.00308,0.002 0.0047,0.0042 0.00775,0.0062 -0.0071,0.00235 -0.015291,0.00623 -0.022221,0.00827 0.00308,0.002 0.0047,0.0042 0.00775,0.0062 -0.0073,0.00242 -0.015621,0.00669 -0.022737,0.00879 0.00309,0.002 0.00469,0.00419 0.00775,0.0062 -0.0071,0.00235 -0.015291,0.00623 -0.022221,0.00827 0.00308,0.002 0.0047,0.0042 0.00775,0.0062 -0.0073,0.00242 -0.015621,0.00669 -0.022738,0.00879 0.00308,0.002 0.0047,0.0042 0.00775,0.0062 -0.0073,0.00242 -0.01562,0.00669 -0.022738,0.00879 0.00321,0.00208 0.00509,0.00411 0.00827,0.0062 -0.00732,0.00243 -0.015601,0.00669 -0.022737,0.00879 0.00309,0.002 0.00469,0.00419 0.00775,0.0062 -0.00745,0.00247 -0.015996,0.00665 -0.023254,0.00878 0.00321,0.00208 0.00509,0.00411 0.00827,0.0062 -0.00746,0.00247 -0.015989,0.00665 -0.023254,0.00878 0.00331,0.00214 0.005,0.00457 0.00827,0.00672 -0.00745,0.00247 -0.015996,0.00665 -0.023254,0.00878 0.00309,0.002 0.00469,0.00419 0.00775,0.0062 -0.00746,0.00247 -0.015989,0.00665 -0.023255,0.00879 0.00321,0.00208 0.00509,0.00411 0.00827,0.0062 -0.00765,0.00255 -0.016318,0.00711 -0.023771,0.0093 0.00331,0.00214 0.005,0.00457 0.00827,0.00672 -0.00747,0.00248 -0.015977,0.00665 -0.023254,0.00878 0.00321,0.00208 0.00509,0.00411 0.00827,0.0062 -0.00767,0.00255 -0.016298,0.00711 -0.023771,0.0093 0.00321,0.00208 0.00509,0.00411 0.00827,0.0062 -0.0078,0.0026 -0.016694,0.00707 -0.024288,0.0093 0.00331,0.00214 0.005,0.00457 0.00827,0.00672 -0.0076,0.00253 -0.016365,0.00661 -0.023771,0.00879 0.1269495,0.082259 0.2288509,0.1702626 0.2222086,0.2459798 0.073461,-0.023659 0.13261361,-0.065605 0.20515581,-0.069247 2.473e-4,0.00292 -2.426e-4,0.00438 0.00103,0.00878 -0.00153,-7.408e-4 -0.012752,-0.00565 -0.012919,-0.00568 -0.00544,-0.00108 -0.00521,0.00703 -0.00155,0.019637 -0.00151,-7.144e-4 -0.012752,-0.00565 -0.012919,-0.00569 -0.00549,-0.00111 -0.00478,0.00735 -0.00103,0.020153 -0.00153,-7.408e-4 -0.012752,-0.00565 -0.012919,-0.00568 -0.00554,-0.00111 -0.00491,0.00762 -0.00104,0.020672 -0.00166,-7.937e-4 -0.01326,-0.00616 -0.013436,-0.0062 -0.00554,-0.00111 -0.0049,0.00713 -0.00104,0.020153 -0.00166,-7.937e-4 -0.01326,-0.00616 -0.013436,-0.0062 -0.00549,-0.00111 -0.00479,0.00735 -0.00104,0.020153 -0.00153,-7.408e-4 -0.012752,-0.00565 -0.012919,-0.00569 -0.00554,-0.00111 -0.00542,0.00763 -0.00155,0.020672 -0.00166,-7.938e-4 -0.01326,-0.00616 -0.013436,-0.0062 -0.00554,-0.00111 -0.00489,0.00764 -0.00103,0.020672 -0.00165,-7.938e-4 -0.013261,-0.00616 -0.013436,-0.0062 -0.00561,-0.00114 -0.00453,0.00785 -5.159e-4,0.021188 -0.00177,-8.467e-4 -0.01377,-0.00616 -0.013953,-0.0062 -0.00554,-0.00111 -0.00491,0.00761 -0.00103,0.020672 -0.00175,-8.467e-4 -0.013771,-0.00616 -0.013953,-0.0062 -0.00561,-0.00114 -0.00453,0.00785 -5.159e-4,0.021188 -0.00177,-8.467e-4 -0.013771,-0.00616 -0.013953,-0.0062 -0.00561,-0.00114 -0.00455,0.00782 -5.159e-4,0.021188 -0.00187,-8.996e-4 -0.014282,-0.00616 -0.014469,-0.0062 -0.00561,-0.00114 -0.00455,0.00782 -5.159e-4,0.021188 -0.00187,-8.996e-4 -0.014282,-0.00616 -0.014469,-0.0062 -0.00561,-0.00114 -0.00455,0.00782 -5.159e-4,0.021188 -0.00187,-8.996e-4 -0.014282,-0.00616 -0.014469,-0.0062 -0.00561,-0.00114 -0.00455,0.00782 -5.159e-4,0.021188 -0.00187,-8.996e-4 -0.014282,-0.00616 -0.014469,-0.0062 -0.00573,-0.00116 -0.00431,0.0083 0,0.02222 -0.00211,-0.00101 -0.015303,-0.00668 -0.015503,-0.00672 -0.00571,-0.00114 -0.00476,0.00791 -5.159e-4,0.021704 -0.00192,-9.261e-4 -0.014279,-0.00668 -0.014469,-0.00672 -0.00573,-0.00116 -0.00431,0.0083 0,0.02222 -0.00213,-0.00103 -0.015302,-0.00668 -0.015503,-0.00672 -0.00573,-0.00116 -0.00431,0.0083 0,0.02222 -0.00213,-0.00103 -0.015301,-0.00668 -0.015503,-0.00672 -0.00573,-0.00116 -0.00431,0.0083 0,0.02222 -0.00213,-0.00103 -0.015301,-0.00668 -0.015503,-0.00672 -0.00573,-0.00116 -0.00431,0.0083 0,0.022222 -0.00213,-0.00103 -0.015301,-0.00668 -0.015503,-0.00672 -0.00578,-0.00116 -0.00442,0.00859 0,0.022738 -0.00228,-0.00108 -0.015811,-0.00719 -0.01602,-0.00723 -0.039241,-0.00791 0.1846482,0.4030718 0.29197197,0.3338298 0.043551,0.068005 0.1220727,0.1150324 0.2526977,0.1229897 l 0.1018026,-0.00259 c 0.020789,0.035997 0.015052,0.072718 0.063045,0.09095 0.013761,0.00523 0.018098,-0.00381 0.01912,-0.016536 0.01005,0.00172 0.014498,-0.00476 0.015503,-0.015502 0.00568,9.79e-4 0.010928,0.00111 0.013436,-0.00259 0.017791,0.014647 0.030802,0.016756 0.034107,-0.00517 0.00849,0.00249 0.013536,-0.00293 0.015503,-0.015502 0.00869,0.00275 0.013969,-0.00288 0.01602,-0.015502 0.00844,0.00249 0.013492,-0.00313 0.015503,-0.015502 0.00831,0.00233 0.013513,-0.00326 0.015503,-0.015502 0.00428,0.00116 0.00902,0.00381 0.011886,0.00156 0.026581,0.01443 0.054008,0.035282 0.082166,0.040308 0.019415,0.00346 0.018305,-0.00661 0.010852,-0.018087 0.00156,3.704e-4 0.00308,0.0018 0.00465,0.00206 0.019415,0.00346 0.018305,-0.00609 0.010852,-0.017571 0.00156,3.704e-4 0.00308,0.0018 0.00465,0.00206 0.018102,0.00323 0.017781,-0.00513 0.011886,-0.015502 4.302e-4,-3.704e-4 2.108e-4,-0.00111 5.167e-4,-0.00156 0.00107,2.371e-4 0.00204,0.00135 0.0031,0.00156 0.018182,0.00324 0.017875,-0.00506 0.011886,-0.015502 3.392e-4,-2.511e-4 2.417e-4,-7.408e-4 5.168e-4,-0.00103 0.001,2.21e-4 0.0021,8.467e-4 0.0031,0.00103 0.017784,0.00317 0.017413,-0.00489 0.011886,-0.014986 6.77e-4,-4.233e-4 5.64e-5,-0.00151 5.167e-4,-0.00206 0.00107,2.383e-4 0.00203,0.00135 0.0031,0.00156 0.017783,0.00317 0.017413,-0.00489 0.011886,-0.014986 3.657e-4,-2.336e-4 2.129e-4,-7.673e-4 5.167e-4,-0.00103 8.557e-4,1.834e-4 0.00173,8.731e-4 0.00258,0.00103 0.017882,0.00319 0.018044,-0.00532 0.012402,-0.015502 3.657e-4,-2.337e-4 2.129e-4,-7.673e-4 5.168e-4,-0.00103 8.588e-4,1.841e-4 0.00172,8.731e-4 0.00258,0.00103 0.018063,0.00322 0.017736,-0.00516 0.011886,-0.015502 0,0 5.167e-4,-5.291e-4 5.167e-4,-5.291e-4 8.556e-4,1.83e-4 0.00173,8.731e-4 0.00258,0.00103 0.017387,0.0031 0.017477,-0.00472 0.012402,-0.01447 5.313e-4,-2.63e-4 -4.345e-4,-0.00124 0,-0.00156 8.556e-4,1.836e-4 0.00173,8.731e-4 0.00258,0.00103 0.018063,0.00322 0.018253,-0.00568 0.012402,-0.016021 8.522e-4,1.823e-4 0.00173,8.731e-4 0.00258,0.00103 0.017433,0.00311 0.017529,-0.00468 0.012402,-0.01447 6.385e-4,-2.646e-4 -4.6e-6,-0.00122 5.168e-4,-0.00156 7.096e-4,1.479e-4 0.00136,8.995e-4 0.00207,0.00103 0.017107,0.00305 0.017162,-0.00444 0.012402,-0.013952 6.712e-4,-2.484e-4 -4.06e-5,-0.00124 5.167e-4,-0.00156 7.096e-4,1.476e-4 0.00136,8.996e-4 0.00207,0.00103 0.017103,0.00305 0.017158,-0.00496 0.012402,-0.01447 4.013e-4,-1.481e-4 -3.612e-4,-8.731e-4 0,-0.00103 6.506e-4,1.339e-4 0.00142,3.969e-4 0.00207,5.292e-4 0.01716,0.00306 0.017221,-0.0044 0.012402,-0.013952 5.035e-4,-1.579e-4 6.73e-5,-8.466e-4 5.167e-4,-0.00103 5.059e-4,1.008e-4 0.00104,4.233e-4 0.00155,5.291e-4 0.017388,0.0031 0.017994,-0.00523 0.012919,-0.014986 0,0 0,-5.291e-4 0,-5.291e-4 6.517e-4,1.338e-4 0.00142,3.968e-4 0.00207,5.291e-4 0.016826,0.003 0.01685,-0.00417 0.012402,-0.013435 0,0 0,-5.292e-4 0,-5.292e-4 5.009e-4,-1.566e-4 6.92e-5,-8.467e-4 5.167e-4,-0.00103 5.036e-4,1.006e-4 0.00105,4.234e-4 0.00155,5.292e-4 0.016827,0.003 0.01685,-0.00417 0.012402,-0.013435 0,0 0,-5.292e-4 0,-5.292e-4 4.841e-4,-1.508e-4 8.22e-5,-8.467e-4 5.168e-4,-0.00103 5.035e-4,1.006e-4 0.00105,4.234e-4 0.00155,5.292e-4 0.017108,0.00305 0.017162,-0.00496 0.012402,-0.01447 5.015e-4,10e-5 0.00105,4.234e-4 0.00155,5.292e-4 0.017108,0.00305 0.017679,-0.00548 0.012919,-0.014986 4.971e-4,9.92e-5 0.00105,4.233e-4 0.00155,5.292e-4 0.017506,0.00312 0.017095,-0.00461 0.011886,-0.01447 2.555e-4,-6.11e-5 7.887e-4,6.75e-5 0.00103,0 3.582e-4,6.93e-5 6.752e-4,4.498e-4 0.00103,5.292e-4 0.017108,0.00305 0.017679,-0.00496 0.012919,-0.01447 0,0 5.167e-4,0 5.167e-4,0 0,0 0,-5.292e-4 0,-5.292e-4 3.564e-4,6.91e-5 6.771e-4,4.498e-4 0.00103,5.292e-4 0.017506,0.00312 0.017095,-0.00461 0.011886,-0.01447 2.557e-4,-5.71e-5 7.882e-4,6.33e-5 0.00103,0 0,0 5.167e-4,0 5.167e-4,0 0,0 5.168e-4,5.292e-4 5.168e-4,5.292e-4 0.017506,0.00312 0.017095,-0.00461 0.011886,-0.01447 2.607e-4,-5.79e-5 7.834e-4,6.41e-5 0.00103,0 0,0 5.167e-4,0 5.167e-4,0 0,0 5.167e-4,5.292e-4 5.167e-4,5.292e-4 0.017785,0.00317 0.017414,-0.00489 0.011886,-0.014986 7.125e-4,1.484e-4 0.00135,8.996e-4 0.00207,0.00103 0.017108,0.00305 0.017163,-0.00444 0.012402,-0.013952 3.583e-4,6.93e-5 6.753e-4,4.498e-4 0.00103,5.292e-4 0.017108,0.00305 0.01768,-0.00496 0.012919,-0.01447 3.554e-4,6.85e-5 6.782e-4,4.498e-4 0.00103,5.292e-4 0.017108,0.00305 0.017163,-0.00445 0.012402,-0.013954 3.554e-4,6.87e-5 6.782e-4,4.497e-4 0.00103,5.291e-4 0.016319,0.00291 0.017844,-0.00462 0.013953,-0.013435 0.017109,0.00305 0.017163,-0.00496 0.012402,-0.01447 3.564e-4,6.88e-5 6.771e-4,4.498e-4 0.00103,5.292e-4 0.016319,0.00291 0.017328,-0.0041 0.013436,-0.01292 0.016432,0.00293 0.016933,-0.00452 0.012919,-0.013436 0.016432,0.00293 0.01745,-0.00452 0.013436,-0.013435 0.016433,0.00293 0.016933,-0.004 0.012919,-0.01292 0.016433,0.00293 0.01745,-0.00452 0.013436,-0.013436 0.016433,0.00293 0.016933,-0.004 0.012919,-0.01292 0.016433,0.00293 0.016933,-0.004 0.012919,-0.01292 0.016433,0.00293 0.016933,-0.004 0.012919,-0.01292 0.016154,0.00288 0.016633,-0.00373 0.012919,-0.012401 0.016154,0.00288 0.016633,-0.00425 0.012919,-0.01292 0.01533,0.00249 0.016043,-0.0039 0.012402,-0.012401 0.015363,0.00251 0.016562,-0.00441 0.012919,-0.01292 0.01533,0.00249 0.016043,-0.0039 0.012402,-0.012401 0.01533,0.00249 0.016043,-0.0039 0.012402,-0.012401 0.01533,0.00249 0.016042,-0.0039 0.012402,-0.012401 0.01533,0.00249 0.016043,-0.0039 0.012402,-0.012401 0.014518,0.00206 0.0161,-0.00398 0.012402,-0.012401 0.014335,0.00201 0.015434,-0.0036 0.011886,-0.011885 0.014334,0.00204 0.015895,-0.00364 0.012402,-0.011885 0.013294,0.00167 0.015486,-0.00409 0.012402,-0.011885 0.012589,0.00135 0.014905,-0.00425 0.011886,-0.011885 0.012797,0.00135 0.014646,-0.00404 0.011369,-0.011885 0.013211,0.00161 0.014961,-0.0036 0.011886,-0.011369 0.013225,0.00161 0.014963,-0.00411 0.011886,-0.011885 0.012479,0.0013 0.014378,-0.00377 0.011369,-0.011369 0.012461,0.00132 0.014784,-0.00385 0.011886,-0.011369 0.011672,0.00101 0.014058,-0.00414 0.011369,-0.011369 0.011673,0.00101 0.014058,-0.00414 0.011369,-0.011369 0.011773,0.00101 0.014204,-0.00401 0.011369,-0.011369 0.011539,9.525e-4 0.01353,-0.00365 0.010852,-0.010851 0.011673,0.00101 0.014058,-0.00414 0.011369,-0.011369 0.011539,9.525e-4 0.013529,-0.00365 0.010852,-0.010853 0.011539,9.525e-4 0.013529,-0.00365 0.010852,-0.010851 0.011539,9.525e-4 0.01353,-0.00365 0.010852,-0.010853 0.011539,9.525e-4 0.01353,-0.00365 0.010852,-0.01085 0.011539,9.525e-4 0.01353,-0.00365 0.010852,-0.010853 0.010846,6.614e-4 0.013466,-0.00382 0.010852,-0.010853 0.010699,6.086e-4 0.012935,-0.00334 0.010335,-0.010335 0.010699,6.086e-4 0.012935,-0.00334 0.010335,-0.010335 0.010731,6.35e-4 0.013357,-0.00341 0.010852,-0.010335 0.010101,3.837e-4 0.012782,-0.00357 0.010335,-0.010335 0.010053,3.308e-4 0.012357,-0.00351 0.00982,-0.010335 0.010476,5.873e-4 0.012682,-0.00306 0.010335,-0.00982 0.00991,3.89e-4 0.013052,-0.00379 0.010852,-0.010335 0.00914,7.55e-5 0.011949,-0.00348 0.00982,-0.00982 0.00914,7.55e-5 0.011949,-0.00348 0.00982,-0.00982 0.00914,7.83e-5 0.011949,-0.00349 0.00982,-0.00982 0.00914,7.54e-5 0.011949,-0.00348 0.00982,-0.00982 0.00893,7.38e-5 0.011713,-0.00319 0.00982,-0.0093 0.00855,-7.44e-5 0.01168,-0.00382 0.00982,-0.00982 0.00835,-1.502e-4 0.011146,-0.00336 0.0093,-0.0093 0.00868,-9.31e-5 0.011364,-0.00363 0.0093,-0.00982 0.0084,-1.318e-4 0.011667,-0.00334 0.00982,-0.0093 0.00767,-3.254e-4 0.010882,-0.0032 0.0093,-0.00878 0.00789,-2.964e-4 0.011032,-0.00355 0.0093,-0.0093 0.00779,-3.599e-4 0.010579,-0.00352 0.00879,-0.0093 0.00786,-3.334e-4 0.011103,-0.0035 0.0093,-0.0093 0.00747,-3.995e-4 0.010348,-0.00274 0.00879,-0.00827 0.00789,-2.964e-4 0.011032,-0.00355 0.0093,-0.0093 0.00716,-5.08e-4 0.010322,-0.00335 0.00879,-0.00879 0.00724,-5.318e-4 0.010457,-0.00322 0.00879,-0.00879 0.00712,-5.979e-4 0.01,-0.0032 0.00827,-0.00878 0.00747,-3.995e-4 0.010348,-0.00274 0.00879,-0.00827 0.00724,-5.319e-4 0.010457,-0.00322 0.00879,-0.00879 0.00662,-6.932e-4 0.00976,-0.003 0.00827,-0.00827 0.00694,-5.821e-4 0.00979,-0.0029 0.00827,-0.00827 0.00694,-5.821e-4 0.00979,-0.0029 0.00827,-0.00827 0.00669,-5.609e-4 0.01001,-0.00269 0.00879,-0.00775 0.00596,-8.017e-4 0.00944,-0.00344 0.00827,-0.00827 0.00573,-8.731e-4 0.0089,-0.003 0.00775,-0.00775 0.00596,-7.991e-4 0.00944,-0.00344 0.00827,-0.00827 0.00573,-8.732e-4 0.0089,-0.003 0.00775,-0.00775 0.00573,-8.732e-4 0.0089,-0.003 0.00775,-0.00775 0.00573,-8.732e-4 0.0089,-0.00301 0.00775,-0.00775 0.00573,-8.732e-4 0.0089,-0.003 0.00775,-0.00775 0.00524,-9.42e-4 0.00869,-0.00281 0.00775,-0.00723 0.00512,-9.79e-4 0.00816,-0.00285 0.00724,-0.00723 0.00542,-9.445e-4 0.00883,-0.00316 0.00775,-0.00775 0.00499,-0.00109 0.00832,-0.00327 0.00723,-0.00775 0.00479,-0.00107 0.00814,-0.00246 0.00724,-0.00672 0.00483,-0.00106 0.00814,-0.00295 0.00724,-0.00723 0.0049,-0.0011 0.00826,-0.00283 0.00723,-0.00723 0.0046,-0.00112 0.00761,-0.00252 0.00672,-0.00672 0.00484,-0.00106 0.00814,-0.00295 0.00723,-0.00723 0.0044,-0.00117 0.00759,-0.0026 0.00672,-0.00672 0.0046,-0.00112 0.00761,-0.00252 0.00672,-0.00672 0.0046,-0.00112 0.00761,-0.00252 0.00672,-0.00672 0.00425,-0.00114 0.00743,-0.00229 0.00672,-0.0062 0.00424,-0.00111 0.00788,-0.00287 0.00723,-0.00672 0.00364,-0.00124 0.0068,-0.00259 0.0062,-0.0062 0.00398,-0.00125 0.007,-0.00281 0.0062,-0.00672 0.00378,-0.00121 0.00733,-0.00253 0.00672,-0.0062 0.00348,-0.00128 0.00679,-0.00266 0.0062,-0.0062 0.00344,-0.00128 0.00679,-0.00268 0.0062,-0.0062 0.00331,-0.00124 0.00664,-0.00235 0.0062,-0.00568 0.0033,-0.00131 0.00626,-0.00274 0.00568,-0.0062 0.00331,-0.00124 0.00664,-0.00235 0.0062,-0.00568 0.00317,-0.00126 0.00612,-0.00241 0.00568,-0.00568 0.00317,-0.00126 0.00612,-0.00241 0.00568,-0.00568 0.00317,-0.00126 0.00612,-0.00241 0.00568,-0.00568 0.0033,-0.00131 0.00626,-0.00274 0.00568,-0.0062 0.00296,-0.0013 0.00611,-0.00199 0.00568,-0.00517 0.00286,-0.00137 0.00568,-0.00246 0.00517,-0.00568 0.00296,-0.0013 0.00611,-0.00199 0.00568,-0.00517 0.00277,-0.00132 0.00558,-0.00208 0.00517,-0.00517 0.00277,-0.00132 0.00558,-0.00208 0.00517,-0.00517 0.00277,-0.00132 0.00558,-0.00208 0.00517,-0.00517 0.00277,-0.00132 0.00558,-0.00208 0.00517,-0.00517 0.00251,-0.00128 0.00544,-0.00182 0.00517,-0.00465 0.00237,-0.0013 0.00492,-0.00189 0.00465,-0.00465 0.00262,-0.00132 0.00553,-0.00219 0.00517,-0.00517 0.0022,-0.00128 0.00538,-0.00203 0.00517,-0.00465 0.00195,-0.0013 0.00485,-0.00217 0.00465,-0.00465 0.00185,-0.00123 0.00475,-0.00183 0.00465,-0.00413 0.00185,-0.00133 0.00386,-0.00218 0.00362,-0.00465 0.00221,-0.00121 0.00528,-0.00162 0.00517,-0.00413 0.00179,-0.00129 0.00431,-0.00228 0.00413,-0.00465 0.00185,-0.00123 0.00475,-0.00182 0.00465,-0.00413 0.00164,-0.00123 0.00423,-0.00195 0.00413,-0.00413 0.00164,-0.00123 0.00423,-0.00195 0.00413,-0.00413 0.00162,-0.00123 0.00423,-0.00196 0.00413,-0.00413 0.00143,-0.00122 0.00371,-0.00156 0.00362,-0.00362 0.00164,-0.00123 0.00423,-0.00195 0.00413,-0.00413 0.00143,-0.00122 0.00371,-0.00156 0.00362,-0.00362 0.00142,-0.00121 0.0037,-0.00159 0.00362,-0.00362 0.00157,-0.00122 0.00422,-0.00149 0.00413,-0.00362 0.00122,-0.00119 0.00317,-0.00173 0.0031,-0.00362 0.00143,-0.00122 0.00371,-0.00156 0.00362,-0.00362 0.00129,-0.00114 0.00362,-0.00125 0.00362,-0.0031 0.00123,-0.0012 0.00318,-0.00171 0.0031,-0.00362 0.00128,-0.00114 0.00362,-0.00126 0.00362,-0.0031 0.00109,-0.00111 0.00311,-0.00139 0.0031,-0.0031 0.00109,-0.00111 0.00311,-0.00139 0.0031,-0.0031 9.843e-4,-9.975e-4 0.00353,-0.00109 0.00362,-0.00259 8.043e-4,-0.00104 0.00207,-0.00162 0.00207,-0.0031 9.948e-4,-10e-4 0.00353,-0.00108 0.00362,-0.00258 7.117e-4,-9.181e-4 0.00251,-0.00132 0.00259,-0.00258 9.234e-4,-0.00106 0.00258,-0.00153 0.00258,-0.0031 8.229e-4,-9.551e-4 0.00302,-0.00122 0.0031,-0.00258 6.8e-4,-9.048e-4 0.00251,-0.00135 0.00259,-0.00258 5.397e-4,-8.414e-4 0.00201,-9.684e-4 0.00207,-0.00207 7.117e-4,-9.181e-4 0.00251,-0.00132 0.00258,-0.00259 5.345e-4,-8.335e-4 0.002,-9.79e-4 0.00207,-0.00207 6.827e-4,-9.075e-4 0.00251,-0.00134 0.00259,-0.00259 5.398e-4,-8.414e-4 0.002,-9.684e-4 0.00207,-0.00207 5.398e-4,-8.414e-4 0.002,-9.684e-4 0.00207,-0.00207 5.212e-4,-8.308e-4 0.00201,-9.869e-4 0.00207,-0.00207 4.604e-4,-7.382e-4 0.00197,-6.138e-4 0.00207,-0.00155 4.207e-4,-7.7e-4 0.00149,-0.0011 0.00155,-0.00207 4.603e-4,-7.382e-4 0.00197,-6.139e-4 0.00207,-0.00155 3.571e-4,-6.667e-4 0.00147,-7.355e-4 0.00155,-0.00155 3.704e-4,-6.773e-4 0.00147,-7.196e-4 0.00155,-0.00155 3.704e-4,-6.773e-4 0.00147,-7.197e-4 0.00155,-0.00155 2.366e-4,-4.392e-4 0.00143,-5.265e-4 0.00155,-0.00103 2.699e-4,-5.847e-4 9.604e-4,-8.572e-4 0.00103,-0.00155 2.474e-4,-4.524e-4 0.00143,-5.106e-4 0.00155,-0.00103 1.654e-4,-3.572e-4 0.00146,-6.35e-4 0.00155,-0.00103 2.622e-4,-5.768e-4 9.605e-4,-8.705e-4 0.00103,-0.00155 1.572e-4,-3.466e-4 0.00146,-6.482e-4 0.00155,-0.00103 0,0 0,-5.159e-4 0,-5.159e-4 1.655e-4,-3.572e-4 9.419e-4,-6.35e-4 0.00103,-0.00103 1.582e-4,-3.493e-4 0.00146,-6.456e-4 0.00155,-0.00103 0,0 0,-5.159e-4 0,-5.159e-4 1.573e-4,-3.466e-4 0.00146,-6.482e-4 0.00155,-0.00103 0,0 5.16e-4,0 5.16e-4,0 0,0 0,-5.159e-4 0,-5.159e-4 0,0 5.159e-4,0 5.159e-4,0 0,0 5.16e-4,0 5.16e-4,0 0,0 0,-5.16e-4 0,-5.16e-4 0,0 0,-5.159e-4 0,-5.159e-4 0,0 5.159e-4,0 5.159e-4,0 5.689e-4,-0.00251 -0.00223,-0.00668 -0.00413,-0.010335 0,0 5.159e-4,0 5.159e-4,0 9.684e-4,-2.673e-4 -2.672e-4,-0.0017 5.16e-4,-0.00207 0.00142,-3.149e-4 9.842e-4,-0.00155 0.00207,-0.00207 0.00119,-2.634e-4 0.00111,-0.00115 0.00207,-0.00155 0.00138,-3.069e-4 0.00101,-0.00157 0.00207,-0.00207 0.00119,-2.646e-4 0.00111,-0.00115 0.00207,-0.00155 0.00126,-3.017e-4 5.715e-4,-0.0016 0.00155,-0.00207 0.00103,-2.471e-4 7.011e-4,-0.0012 0.00155,-0.00155 0.00103,-2.47e-4 7.011e-4,-0.0012 0.00155,-0.00155 8.017e-4,-1.914e-4 8.599e-4,-7.778e-4 0.00155,-0.00103 0.001,-2.401e-4 7.223e-4,-0.00121 0.00155,-0.00155 0.00103,-2.464e-4 7.065e-4,-0.0012 0.00155,-0.00155 0,0 5.159e-4,0 5.159e-4,0 5.239e-4,-1.44e-4 4.6e-5,-8.599e-4 5.16e-4,-0.00103 7.99e-4,-1.915e-4 8.599e-4,-7.779e-4 0.00155,-0.00103 0,0 5.16e-4,0 5.16e-4,0 5.238e-4,-1.441e-4 4.59e-5,-8.599e-4 5.159e-4,-0.00103 0,0 5.159e-4,0 5.159e-4,0 5.239e-4,-1.439e-4 4.59e-5,-8.599e-4 5.16e-4,-0.00103 0,0 5.159e-4,0 5.159e-4,0 5.239e-4,-1.44e-4 4.59e-5,-8.599e-4 5.159e-4,-0.00103 0,0 5.16e-4,0 5.16e-4,0 5.265e-4,-1.449e-4 4.33e-5,-0.00138 5.159e-4,-0.00155 2.507e-4,-6e-5 7.938e-4,-4.498e-4 0.00103,-5.159e-4 0,0 5.16e-4,0 5.16e-4,0 0,0 0,-5.159e-4 0,-5.159e-4 0,0 5.159e-4,0 5.159e-4,0 0,0 0,-5.16e-4 0,-5.16e-4 0,0 5.16e-4,0 5.16e-4,0 0,0 0,-5.159e-4 0,-5.159e-4 0,0 5.159e-4,0 5.159e-4,0 0,0 0,-5.159e-4 0,-5.159e-4 0,0 5.159e-4,0 5.159e-4,0 0,0 0,-5.16e-4 0,-5.16e-4 0,0 5.16e-4,0 5.16e-4,0 0.00649,-0.00179 0.0092,-0.00574 0.00465,-0.013436 0,0 -5.159e-4,0 -5.159e-4,0 -0.016613,-0.027636 -0.060117,-0.034233 -0.091466,-0.035231 0.01862,-0.019389 0.034611,-0.044487 0.050126,-0.071314 0,0 5.159e-4,-5.159e-4 5.159e-4,-5.159e-4 2.56e-4,-4.445e-4 7.779e-4,-5.874e-4 0.00103,-0.00103 0,0 5.159e-4,-5.159e-4 5.159e-4,-5.159e-4 0,0 5.159e-4,-5.159e-4 5.159e-4,-5.159e-4 0,0 5.16e-4,-5.16e-4 5.16e-4,-5.16e-4 0,0 5.159e-4,-5.159e-4 5.159e-4,-5.159e-4 0,0 5.159e-4,-5.16e-4 5.159e-4,-5.16e-4 0,0 5.16e-4,-5.159e-4 5.16e-4,-5.159e-4 0.016323,-0.029196 0.030508,-0.06177 0.04238,-0.09664 0,0 0,-5.16e-4 0,-5.16e-4 0.018527,-0.054549 0.033298,-0.1137842 0.03824,-0.1736328 1.068e-4,-2.105e-4 9.472e-4,-8.281e-4 0.00103,-0.00103 1.962e-4,-4.656e-4 -6.482e-4,-5.874e-4 -5.159e-4,-0.00103 6.35e-4,-8.731e-4 0.00432,-0.00231 0.00465,-0.0031 0,0 -5.159e-4,-5.159e-4 -5.159e-4,-5.159e-4 7.541e-4,-9.922e-4 0.00479,-0.00272 0.00517,-0.00362 1.926e-4,-4.577e-4 -6.483e-4,-5.953e-4 -5.16e-4,-0.00103 6.324e-4,-8.705e-4 0.00432,-0.00231 0.00465,-0.0031 1.926e-4,-4.578e-4 -6.483e-4,-5.954e-4 -5.16e-4,-0.00103 5.662e-4,-8.017e-4 0.00383,-0.00237 0.00413,-0.0031 0,0 -5.16e-4,-5.16e-4 -5.16e-4,-5.16e-4 6.853e-4,-9.234e-4 0.0043,-0.00278 0.00465,-0.00362 0,0 -5.16e-4,-5.16e-4 -5.16e-4,-5.16e-4 6.324e-4,-8.705e-4 0.00432,-0.00231 0.00465,-0.0031 1.927e-4,-4.578e-4 -6.483e-4,-5.953e-4 -5.16e-4,-0.00103 5.583e-4,-7.937e-4 0.00383,-0.00237 0.00413,-0.0031 0,0 -5.159e-4,-5.159e-4 -5.159e-4,-5.159e-4 5.662e-4,-8.017e-4 0.00383,-0.00237 0.00413,-0.0031 0,0 -5.159e-4,-5.159e-4 -5.159e-4,-5.159e-4 5.662e-4,-8.017e-4 0.00383,-0.00237 0.00413,-0.0031 0,0 -5.159e-4,-5.159e-4 -5.159e-4,-5.159e-4 5.662e-4,-8.017e-4 0.00382,-0.00237 0.00413,-0.0031 0,0 -5.16e-4,-5.159e-4 -5.16e-4,-5.159e-4 5.61e-4,-7.938e-4 0.00383,-0.00237 0.00413,-0.0031 0,0 0,-5.159e-4 0,-5.159e-4 4.55e-4,-6.8e-4 0.00335,-0.00195 0.00362,-0.00259 1.926e-4,-4.577e-4 -6.482e-4,-5.953e-4 -5.159e-4,-0.00103 4.577e-4,-6.826e-4 0.00335,-0.00195 0.00362,-0.00259 0,0 -5.16e-4,-5.159e-4 -5.16e-4,-5.159e-4 4.578e-4,-6.826e-4 0.00335,-0.00195 0.00362,-0.00259 0,0 -5.159e-4,-5.159e-4 -5.159e-4,-5.159e-4 4.604e-4,-6.853e-4 0.00335,-0.00195 0.00362,-0.00259 0,0 -5.16e-4,-5.159e-4 -5.16e-4,-5.159e-4 4.604e-4,-6.853e-4 0.00335,-0.00195 0.00362,-0.00259 0,0 -5.159e-4,-5.16e-4 -5.159e-4,-5.16e-4 4.577e-4,-6.826e-4 0.00335,-0.00195 0.00362,-0.00258 0,0 -5.16e-4,-5.16e-4 -5.16e-4,-5.16e-4 4.578e-4,-6.826e-4 0.00335,-0.00195 0.00362,-0.00259 0,0 0,-5.159e-4 0,-5.159e-4 3.572e-4,-5.636e-4 0.00288,-0.00154 0.0031,-0.00207 1.927e-4,-4.577e-4 -6.483e-4,-5.953e-4 -5.16e-4,-0.00103 3.572e-4,-5.636e-4 0.00288,-0.00154 0.0031,-0.00207 0,0 -5.16e-4,-5.159e-4 -5.16e-4,-5.159e-4 3.572e-4,-5.636e-4 0.00288,-0.00154 0.0031,-0.00207 0,0 -5.159e-4,-5.16e-4 -5.159e-4,-5.16e-4 3.571e-4,-5.635e-4 0.00288,-0.00154 0.0031,-0.00207 0,0 -5.159e-4,-5.159e-4 -5.159e-4,-5.159e-4 3.572e-4,-5.636e-4 0.00288,-0.00154 0.0031,-0.00207 0,0 -5.159e-4,-5.159e-4 -5.159e-4,-5.159e-4 3.572e-4,-5.636e-4 0.00288,-0.00154 0.0031,-0.00207 0,0 -5.159e-4,-5.16e-4 -5.159e-4,-5.16e-4 3.545e-4,-5.609e-4 0.00288,-0.00154 0.0031,-0.00207 0,0 0,-5.159e-4 0,-5.159e-4 2.199e-4,-3.837e-4 0.00191,-0.00118 0.00207,-0.00155 3.043e-4,-4.947e-4 0.00239,-0.0016 0.00259,-0.00207 1.926e-4,-4.577e-4 -6.482e-4,-5.953e-4 -5.159e-4,-0.00103 2.646e-4,-4.471e-4 0.00241,-0.00113 0.00259,-0.00155 0,0 0,-5.16e-4 0,-5.16e-4 2.175e-4,-3.81e-4 0.00191,-0.00119 0.00207,-0.00155 2.189e-4,-3.837e-4 0.00191,-0.00118 0.00207,-0.00155 0,0 -5.16e-4,-5.159e-4 -5.16e-4,-5.159e-4 2.198e-4,-3.837e-4 0.00191,-0.00118 0.00207,-0.00155 0,0 0,-5.159e-4 0,-5.159e-4 2.725e-4,-3.969e-4 0.00186,-0.00117 0.00207,-0.00155 0,0 0,-5.159e-4 0,-5.159e-4 1.454e-4,-2.726e-4 0.00144,-7.7e-4 0.00155,-0.00103 2.19e-4,-3.836e-4 0.00191,-0.00118 0.00207,-0.00155 0,0 -5.16e-4,-5.159e-4 -5.16e-4,-5.159e-4 0,0 5.16e-4,-5.16e-4 5.16e-4,-5.16e-4 1.44e-4,-2.725e-4 0.00144,-7.699e-4 0.00155,-0.00103 1.451e-4,-2.725e-4 0.00144,-7.699e-4 0.00155,-0.00103 0,0 -5.16e-4,-5.16e-4 -5.16e-4,-5.16e-4 1.465e-4,-2.751e-4 0.00144,-7.673e-4 0.00155,-0.00103 0,0 0,-5.159e-4 0,-5.159e-4 1.456e-4,-2.725e-4 0.00144,-7.7e-4 0.00155,-0.00103 1.45e-4,-2.726e-4 0.00144,-7.7e-4 0.00155,-0.00103 0,0 -5.159e-4,-5.159e-4 -5.159e-4,-5.159e-4 1.456e-4,-2.725e-4 0.00144,-7.699e-4 0.00155,-0.00103 1.069e-4,-2.104e-4 9.473e-4,-8.282e-4 0.00103,-0.00103 1.067e-4,-2.104e-4 9.472e-4,-8.282e-4 0.00103,-0.00103 2.506e-4,-4.259e-4 0.0019,-0.00166 0.00207,-0.00207 8.11e-5,-1.656e-4 9.657e-4,-3.545e-4 0.00103,-5.159e-4 0,0 -5.159e-4,-5.159e-4 -5.159e-4,-5.159e-4 8.92e-5,-1.679e-4 0.00147,-8.679e-4 0.00155,-0.00103 0,0 5.16e-4,-5.159e-4 5.16e-4,-5.159e-4 0,0 5.159e-4,-5.159e-4 5.159e-4,-5.159e-4 0,0 5.159e-4,-5.16e-4 5.159e-4,-5.16e-4 0,0 5.16e-4,-5.159e-4 5.16e-4,-5.159e-4 0,0 5.159e-4,-5.159e-4 5.159e-4,-5.159e-4 0.00283,-0.00673 -0.00132,-0.011341 -0.00879,-0.014469 -0.019454,-0.0079 -0.055153,-0.00582 -0.066663,-0.00517 0,0 5.159e-4,-5.159e-4 5.159e-4,-5.159e-4 0,0 5.159e-4,0 5.159e-4,0 3.599e-4,-3.413e-4 6.8e-4,-6.879e-4 0.00103,-0.00103 4.709e-4,-3.705e-4 5.635e-4,-0.00117 0.00103,-0.00155 0,0 5.159e-4,0 5.159e-4,0 0,0 0,-5.159e-4 0,-5.159e-4 3.651e-4,-2.884e-4 6.694e-4,-7.409e-4 0.00103,-0.00103 0,0 5.16e-4,-5.159e-4 5.16e-4,-5.159e-4 3.783e-4,-2.99e-4 6.561e-4,-7.276e-4 0.00103,-0.00103 0,0 5.159e-4,0 5.159e-4,0 0,0 5.16e-4,-5.16e-4 5.16e-4,-5.16e-4 0,0 5.159e-4,-5.159e-4 5.159e-4,-5.159e-4 0,0 5.159e-4,-5.159e-4 5.159e-4,-5.159e-4 0,0 0,-5.16e-4 0,-5.16e-4 0,0 5.16e-4,-5.159e-4 5.16e-4,-5.159e-4 2.831e-4,-2.221e-4 7.514e-4,-8.07e-4 0.00103,-0.00103 3.784e-4,-2.964e-4 6.562e-4,-7.303e-4 0.00103,-0.00103 2.644e-4,-2.608e-4 7.726e-4,-7.699e-4 0.00103,-0.00103 3.784e-4,-2.963e-4 6.562e-4,-7.302e-4 0.00103,-0.00103 0,0 5.159e-4,-5.159e-4 5.159e-4,-5.159e-4 3.731e-4,-2.911e-4 6.615e-4,-7.356e-4 0.00103,-0.00103 0,0 5.16e-4,-5.159e-4 5.16e-4,-5.159e-4 0,0 5.159e-4,-5.159e-4 5.159e-4,-5.159e-4 0,0 5.159e-4,-5.16e-4 5.159e-4,-5.16e-4 0,0 5.16e-4,-5.159e-4 5.16e-4,-5.159e-4 0,0 5.159e-4,-5.159e-4 5.159e-4,-5.159e-4 0,0 5.159e-4,0 5.159e-4,0 0,0 0,-5.16e-4 0,-5.16e-4 0.00264,-0.00207 0.00471,-0.00487 0.00723,-0.00723 0,0 0,-5.16e-4 0,-5.16e-4 0.00225,-0.00212 0.00472,-0.00387 0.00672,-0.0062 0,0 0,-5.16e-4 0,-5.16e-4 0,0 5.16e-4,-5.159e-4 5.16e-4,-5.159e-4 2.352e-4,-2.831e-4 8.043e-4,-2.315e-4 0.00103,-5.159e-4 0,0 5.159e-4,-5.16e-4 5.159e-4,-5.16e-4 0,0 5.16e-4,-5.159e-4 5.16e-4,-5.159e-4 0,0 5.159e-4,-5.159e-4 5.159e-4,-5.159e-4 0,0 5.16e-4,-5.16e-4 5.16e-4,-5.16e-4 0,0 5.159e-4,-5.159e-4 5.159e-4,-5.159e-4 0,0 5.159e-4,-5.16e-4 5.159e-4,-5.16e-4 0.00199,-0.00284 0.00179,-0.00625 0.0031,-0.0093 0.00397,-0.0046 0.00863,-0.00734 0.012402,-0.012402 0.00177,-0.00221 0.00395,-0.00338 0.00568,-0.00568 0.00211,-0.0026 0.00466,-0.00398 0.00672,-0.00672 0.00194,-0.0024 0.00431,-0.00368 0.0062,-0.0062 0.00178,-0.00203 0.00394,-0.00304 0.00568,-0.00517 0,0 0,-5.159e-4 0,-5.159e-4 0.0022,-0.0027 0.0051,-0.00387 0.00723,-0.00672 0.00214,-0.00265 0.00464,-0.00444 0.00672,-0.00723 0.00161,-0.00201 0.00359,-0.00307 0.00517,-0.00517 0.00194,-0.0024 0.00431,-0.00368 0.0062,-0.0062 0.00177,-0.00221 0.00395,-0.00338 0.00568,-0.00568 0.00194,-0.0024 0.00431,-0.00368 0.0062,-0.0062 0.00178,-0.00221 0.00395,-0.00338 0.00568,-0.00568 0.00178,-0.00221 0.00395,-0.00338 0.00568,-0.00568 0.00379,-0.00442 0.00827,-0.00703 0.011886,-0.011886 0.00344,-0.00406 0.00756,-0.00643 0.010852,-0.010852 0.00144,-0.00182 0.00324,-0.00277 0.00465,-0.00465 0.00161,-0.00201 0.00359,-0.00307 0.00517,-0.00517 0.00336,-0.00396 0.00763,-0.00603 0.010852,-0.010335 0.00135,-0.00171 0.00281,-0.00288 0.00413,-0.00465 0.00161,-0.00201 0.00359,-0.00307 0.00517,-0.00517 0.00144,-0.00182 0.00324,-0.00277 0.00465,-0.00465 0.00144,-0.00181 0.00324,-0.00277 0.00465,-0.00465 0.00144,-0.00181 0.00324,-0.00277 0.00465,-0.00465 0.00128,-0.00144 0.00288,-0.00213 0.00413,-0.00362 2.035e-4,-2.699e-4 3.148e-4,-7.646e-4 5.159e-4,-0.00103 0.00301,-0.0036 0.00692,-0.00543 0.00982,-0.0093 9.79e-4,-0.00125 0.00265,-0.00234 0.00362,-0.00362 0.00101,-0.00116 0.0021,-0.00191 0.0031,-0.0031 0,0 5.159e-4,-5.16e-4 5.159e-4,-5.16e-4 0.00142,-0.0017 0.00325,-0.00238 0.00465,-0.00413 0,0 5.159e-4,-5.159e-4 5.159e-4,-5.159e-4 0.00147,-0.00187 0.00321,-0.00323 0.00465,-0.00517 8.414e-4,-9.763e-4 0.00175,-0.00158 0.00259,-0.00258 0,0 5.16e-4,-5.159e-4 5.16e-4,-5.159e-4 0.00275,-0.00332 0.00613,-0.00524 0.00878,-0.00879 8.149e-4,-0.00104 0.0023,-0.00204 0.0031,-0.0031 9.789e-4,-0.00125 0.00265,-0.00234 0.00362,-0.00362 9.789e-4,-0.00125 0.00265,-0.00234 0.00362,-0.00362 0.00101,-0.00118 0.00211,-0.00189 0.0031,-0.0031 0,0 5.159e-4,-5.16e-4 5.159e-4,-5.16e-4 0.00237,-0.00289 0.00494,-0.00469 0.00723,-0.00775 7.461e-4,-9.234e-4 0.00185,-0.00113 0.00259,-0.00207 0,0 0,-5.159e-4 0,-5.159e-4 8.996e-4,-0.00115 0.00221,-0.00141 0.0031,-0.00259 0.00106,-0.00135 0.00309,-0.00223 0.00413,-0.00362 0.0011,-0.0014 0.00202,-0.00269 0.0031,-0.00413 5.874e-4,-7.064e-4 0.00148,-8.334e-4 0.00207,-0.00155 0,0 5.159e-4,-5.159e-4 5.159e-4,-5.159e-4 0.00202,-0.00251 0.00423,-0.00408 0.0062,-0.00672 5.715e-4,-7.409e-4 0.0015,-0.00132 0.00207,-0.00207 7.355e-4,-9.446e-4 0.00237,-0.00162 0.0031,-0.00259 6.641e-4,-8.017e-4 0.00141,-0.00125 0.00207,-0.00207 0,0 0,-5.159e-4 0,-5.159e-4 7.435e-4,-9.261e-4 0.00185,-0.00112 0.00258,-0.00207 0,0 0,-5.16e-4 0,-5.16e-4 7.355e-4,-9.445e-4 0.00185,-0.0011 0.00259,-0.00207 0.00102,-0.00131 0.00209,-0.00227 0.0031,-0.00362 4.101e-4,-5.319e-4 0.00114,-4.948e-4 0.00155,-0.00103 7.355e-4,-9.445e-4 0.00185,-0.00162 0.00259,-0.00258 5.82e-4,-7.171e-4 0.00149,-8.229e-4 0.00207,-0.00155 0,0 0,-5.159e-4 0,-5.159e-4 5.767e-4,-7.276e-4 0.00149,-8.123e-4 0.00207,-0.00155 0,0 0,-5.159e-4 0,-5.159e-4 7.779e-4,-0.00101 0.00182,-0.00156 0.00258,-0.00259 3.281e-4,-4.101e-4 7.065e-4,-6.191e-4 0.00103,-0.00103 0,0 0,-5.16e-4 0,-5.16e-4 5.768e-4,-7.302e-4 0.00149,-8.096e-4 0.00207,-0.00155 0,0 0,-5.16e-4 0,-5.16e-4 4.101e-4,-5.318e-4 0.00114,-4.947e-4 0.00155,-0.00103 5.715e-4,-7.408e-4 0.0015,-0.00132 0.00207,-0.00207 4.101e-4,-5.318e-4 0.00114,-0.00101 0.00155,-0.00155 4.101e-4,-5.239e-4 0.00114,-5.054e-4 0.00155,-0.00103 0,0 0,-5.159e-4 0,-5.159e-4 6.112e-4,-7.964e-4 0.00198,-0.00178 0.00259,-0.00259 6.138e-4,-7.964e-4 0.00198,-0.00177 0.00259,-0.00259 3.228e-4,-4.206e-4 7.117e-4,-6.085e-4 0.00103,-0.00103 0.00144,-0.00181 0.00324,-0.00277 0.00465,-0.00465 0,0 5.16e-4,-5.16e-4 5.16e-4,-5.16e-4 0,0 5.159e-4,-5.159e-4 5.159e-4,-5.159e-4 0,0 5.16e-4,-5.159e-4 5.16e-4,-5.159e-4 0,0 5.159e-4,-5.16e-4 5.159e-4,-5.16e-4 0,0 5.159e-4,-5.159e-4 5.159e-4,-5.159e-4 0,0 5.16e-4,-5.16e-4 5.16e-4,-5.16e-4 0.020226,-0.026718 0.037449,-0.061309 0.05116,-0.10335202 0,0 0,-5.159e-4 0,-5.159e-4 0,0 5.16e-4,-5.16e-4 5.16e-4,-5.16e-4 0,0 5.159e-4,-5.159e-4 5.159e-4,-5.159e-4 0.013802,-0.043228 0.023895,-0.095754 0.028939,-0.15864664 0,0 0,-5.1594e-4 0,-5.1594e-4 0.00268,-0.0336741 -0.00316,-0.066222 -0.01602,-0.0981852 0,0 0,-5.1594e-4 0,-5.1594e-4 C 1.7860034,0.63938652 1.6817869,0.54908906 1.5459439,0.4551441 1.5039509,0.4430175 1.4640139,0.4332302 1.4260546,0.4256885 1.4203546,0.3674837 1.4030206,0.31130283 1.3676606,0.27582683 c -0.017782,-0.0177297 -0.039863,-0.0301004 -0.067696,-0.03514 0,0 -5.16e-4,0 -5.16e-4,0 -0.027693,-0.005014 -0.061428,-0.002312 -0.1007698,0.009819 -0.050472,0.0150915 -0.064646,-0.0513489 -0.089917,-0.0873332 -0.00851,-0.0120183 -0.017939,-0.0207253 -0.031006,-0.0217041 z"
       mask="url(#mask3757)" />
    <rect
       style="opacity:0.706452;mix-blend-mode:normal;fill:url(#linearGradient3724);fill-opacity:1;fill-rule:nonzero;stroke:none;stroke-width:0.254;stroke-linecap:round"
       id="rect1879"
       width="2.1130996"
       height="2.1130996"
       x="0.0083521744"
       y="0.0083521716"
       ry="0.03340869" />
    <path
       id="path34-2-1"
       style="display:inline;fill:#ffee2e;fill-opacity:1;stroke:#000000;stroke-width:0.00264583;stroke-linecap:butt;stroke-linejoin:miter;stroke-miterlimit:4;stroke-dasharray:none;stroke-opacity:1"
       d="m 1.0958851,0.09942839 c 0.052265,0.0039151 0.05327,0.12976429 0.121461,0.10860182 0.158432,-0.0491681 0.2157677,0.0588827 0.2271885,0.17562363 0.037957,0.007541 0.077871,0.0173129 0.1198582,0.0294394 C 1.7455153,0.53835285 1.870137,0.65701039 1.859359,0.7923983 1.8191332,1.2976772 1.464975,1.109667 1.305609,1.1859257 c 0.037645,0.034496 0.063651,0.080933 0.079844,0.1338226 0.053693,-0.00698 0.108232,-0.011358 0.1090809,0.01039 0.00129,0.033092 -0.053758,0.059192 -0.053758,0.059192 0,0 0.096626,-0.007 0.085297,0.019915 -0.00656,0.015581 -0.072707,0.046761 -0.1196919,0.068201 -0.0012,0.152776 -0.055807,0.3150809 -0.1358309,0.3984093 0.031484,0.00101 0.075497,0.00714 0.091948,0.034985 0.018185,0.030782 -0.078441,0.00321 -0.077467,0.00597 0.023473,0.00245 0.074628,0.058187 0.031171,0.050441 -0.034477,-0.00615 -0.06838,-0.037629 -0.1002192,-0.049667 -0.018005,0.00913 -0.036766,0.01443 -0.056116,0.014922 l -0.017262,4.424e-4 c 0.010651,0.010201 0.018402,0.023187 0.020062,0.040677 0.0073,0.076852 -0.058463,0.00319 -0.080047,-0.024152 0.014296,0.025865 0.02854,0.09057 -0.00514,0.077781 C 1.0294729,2.009026 1.0353619,1.972205 1.0145659,1.93621 L 0.91296493,1.93881 C 0.78230497,1.9308541 0.70354423,1.884206 0.65998554,1.8162218 0.55262377,1.8854443 0.32887414,1.4746087 0.36813309,1.4825131 c 0.002684,5.405e-4 0.18856976,0.096229 0.25117489,0.077928 C 0.636409,1.418812 0.69597218,1.2683216 0.74135872,1.168148 0.64387563,1.1476281 0.57724057,1.2072334 0.48789892,1.2359988 0.49454262,1.1602999 0.39254337,1.0723401 0.26555552,0.99009259 0.47364059,0.92899824 0.76579073,0.71618167 0.7957055,1.0545168 0.78659045,0.72825943 0.85791454,0.48369953 1.0715486,0.3977843 1.060476,0.38436364 1.0246605,0.34343361 1.0063138,0.35519094 c -0.21728733,0.13924797 -0.33427357,0.0653103 -0.32742659,0.002708 0.04404,-0.15287594 0.13287794,0.042894 0.19434118,-0.0247417 0.0435103,-0.0478801 0.0865603,-0.0665224 0.12698751,-0.0658059 0.062373,0.001106 0.118445,0.0483641 0.1605908,0.10539631 0.033119,-0.005796 0.068691,-0.008834 0.1071833,-0.008585 0.02812,1.8177e-4 0.057861,0.002194 0.088982,0.005766 -0.00452,-0.0243805 -0.01639,-0.0761116 -0.036145,-0.0753673 -0.2578943,0.009716 -0.32117612,-0.11336578 -0.2835071,-0.16383311 0.025272,-0.0239266 0.043932,-0.0323964 0.058565,-0.03129985 z" />
    <path
       style="display:inline;fill:none;stroke:#000000;stroke-width:0.00943241px;stroke-linecap:butt;stroke-linejoin:miter;stroke-opacity:1"
       d="m 1.0406146,1.2928606 c -0.00717,0.018699 0.09741,0.1883421 0.058805,0.2016408 -0.031311,0.010786 -0.072179,-0.03439 -0.072179,-0.03439 0,0 0.034586,0.090507 0.00555,0.087427 -0.025958,-0.00275 -0.13249644,-0.1348456 -0.13436596,-0.13313"
       id="path36-0-0"
       sodipodi:nodetypes="cscsc" />
    <path
       style="display:inline;fill:#ffeeaa;stroke:#000000;stroke-width:0.00264583;stroke-linecap:butt;stroke-linejoin:round;stroke-miterlimit:4;stroke-dasharray:none;stroke-opacity:1"
       d="M 1.305604,1.1859209 1.1421283,1.1366535 c 0.1376244,0.2196228 0.058464,0.4501744 0.034037,0.7814711 0.1036388,0.052103 0.3936086,-0.4059882 0.1294387,-0.7322037 z"
       id="path104-6-4"
       sodipodi:nodetypes="cccc" />
    <g
       id="g1835"
       style="display:inline;stroke-width:0;stroke-miterlimit:4;stroke-dasharray:none"
       transform="matrix(-0.00943242,0,0,0.00943242,7.4166228,-2.801177)">
      <path
         style="display:inline;opacity:0.541936;fill:#ffcc00;stroke:#ffd42a;stroke-width:0;stroke-linecap:round;stroke-linejoin:miter;stroke-miterlimit:4;stroke-dasharray:none;stroke-opacity:1;filter:url(#filter1810)"
         d="m 640.04877,435.20932 c 3.20685,5.77539 11.9382,5.54338 17.17062,5.35433"
         id="path201-3-3-2"
         sodipodi:nodetypes="cc" />
      <path
         style="display:inline;opacity:0.541936;fill:#ffcc00;stroke:#ffd42a;stroke-width:0;stroke-linecap:round;stroke-linejoin:miter;stroke-miterlimit:4;stroke-dasharray:none;stroke-opacity:1;filter:url(#filter1814)"
         d="m 636.83788,448.30138 c 4.17981,4.40895 12.4575,6.13166 20.06728,4.81609"
         id="path203-8-7-1"
         sodipodi:nodetypes="cc" />
      <path
         style="display:inline;opacity:0.541936;fill:#ffcc00;stroke:#ffd42a;stroke-width:0;stroke-linecap:round;stroke-linejoin:miter;stroke-miterlimit:4;stroke-dasharray:none;stroke-opacity:1;filter:url(#filter1818)"
         d="m 638.35212,468.15021 c 5.79741,2.78126 12.76841,3.14447 20.27959,1.0606"
         id="path205-7-3-7"
         sodipodi:nodetypes="cc" />
      <path
         style="display:inline;opacity:0.541936;fill:#ffcc00;stroke:#ffd42a;stroke-width:0;stroke-linecap:round;stroke-linejoin:miter;stroke-miterlimit:4;stroke-dasharray:none;stroke-opacity:1;filter:url(#filter1822)"
         d="m 659.39167,483.8026 c -5.47154,0.92395 -10.94348,1.1773 -16.41674,-0.74106"
         id="path207-7-5-9"
         sodipodi:nodetypes="cc" />
      <path
         style="display:inline;opacity:0.541936;fill:#ffcc00;stroke:#ffd42a;stroke-width:0;stroke-linecap:round;stroke-linejoin:miter;stroke-miterlimit:4;stroke-dasharray:none;stroke-opacity:1;filter:url(#filter1826)"
         d="m 660.89846,491.4197 c 0.27286,2.4559 -11.13329,4.33341 -13.1974,0.008"
         id="path209-1-9-9"
         sodipodi:nodetypes="cc" />
    </g>
    <path
       style="display:inline;opacity:0.96129;mix-blend-mode:normal;fill:#13eab6;fill-opacity:0.92549;stroke:none;stroke-width:0.00282972;stroke-linecap:butt;stroke-linejoin:miter;stroke-miterlimit:4;stroke-dasharray:none;stroke-opacity:1"
       d="M 0.78186331,1.0657684 C 0.74496147,0.91413107 0.67274324,0.85269836 0.55128084,0.91704475 l -0.20904831,0.0735801 c 0.0726253,0.0363888 0.20802511,0.17956175 0.15372402,0.23118225 0.11218977,-0.07721 0.19865486,-0.086861 0.27235534,-0.062989 z"
       id="path106-2-4"
       sodipodi:nodetypes="cccccc" />
    <path
       style="display:inline;mix-blend-mode:normal;fill:#13eab6;fill-opacity:0.92549;stroke:#159e7c;stroke-width:0.253907;stroke-linecap:butt;stroke-linejoin:miter;stroke-miterlimit:4;stroke-dasharray:none;stroke-opacity:0.92549;filter:url(#filter4548)"
       d="m 49.632896,90.106025 c -3.31115,-13.6062 -9.79119,-19.11847 -20.68984,-13.34476 l -18.757609,6.60224 c 6.516569,3.26514 18.665799,16.11182 13.793439,20.743655 10.06663,-6.927965 17.82502,-7.793915 24.43806,-5.651945 z"
       id="path4114"
       sodipodi:nodetypes="cccccc"
       transform="matrix(0.01114472,0,0,0.01114472,0.22871858,0.06156194)" />
    <path
       style="display:inline;mix-blend-mode:normal;fill:none;stroke:#000000;stroke-width:0.00334342;stroke-linecap:butt;stroke-linejoin:miter;stroke-miterlimit:4;stroke-dasharray:none;stroke-opacity:1"
       d="M 0.71413239,0.94286461 C 0.62716412,0.91476075 0.46754977,0.95879298 0.47978534,1.1144434"
       id="path108-4-6"
       sodipodi:nodetypes="cc" />
    <path
       style="display:inline;fill:#000000;stroke:#000000;stroke-width:0.00943241px;stroke-linecap:butt;stroke-linejoin:miter;stroke-opacity:1"
       d="m 1.3215746,0.82804881 c -0.062128,0.27499859 -0.2208775,0.0855419 -0.1231901,-0.070716 0.044929,-0.0718663 0.1498717,-0.0473857 0.1231901,0.070716 z"
       id="path179-0-8"
       sodipodi:nodetypes="sss" />
    <path
       style="display:inline;fill:#ffffff;stroke:#000000;stroke-width:0.00448082px;stroke-linecap:butt;stroke-linejoin:miter;stroke-opacity:1"
       d="M 1.318689,0.78340997 C 1.289175,0.91404682 1.2137622,0.82404617 1.260168,0.74981657 1.281511,0.71567677 1.331364,0.72730617 1.318689,0.78340997 Z"
       id="path179-3-4-6"
       sodipodi:nodetypes="sss" />
    <path
       style="display:inline;fill:none;stroke:#000000;stroke-width:0.00282972;stroke-linecap:butt;stroke-linejoin:miter;stroke-miterlimit:4;stroke-dasharray:none;stroke-opacity:1"
       d="M 1.3794111,1.3039019 C 1.3491628,1.3583779 1.266805,1.3561895 1.2174502,1.3544063"
       id="path201-3-3"
       sodipodi:nodetypes="cc" />
    <path
       style="display:inline;fill:none;stroke:#000000;stroke-width:0.00282972;stroke-linecap:butt;stroke-linejoin:miter;stroke-miterlimit:4;stroke-dasharray:none;stroke-opacity:1"
       d="m 1.4096974,1.4273917 c -0.039426,0.041587 -0.1175042,0.057836 -0.1892829,0.045427"
       id="path203-8-7"
       sodipodi:nodetypes="cc" />
    <path
       style="display:inline;fill:none;stroke:#000000;stroke-width:0.00282972;stroke-linecap:butt;stroke-linejoin:miter;stroke-miterlimit:4;stroke-dasharray:none;stroke-opacity:1"
       d="m 1.3954145,1.6146144 c -0.054684,0.026234 -0.1204371,0.02966 -0.1912857,0.010004"
       id="path205-7-3"
       sodipodi:nodetypes="cc" />
    <path
       style="display:inline;fill:none;stroke:#000000;stroke-width:0.00282972;stroke-linecap:butt;stroke-linejoin:miter;stroke-miterlimit:4;stroke-dasharray:none;stroke-opacity:1"
       d="m 1.1969607,1.7622545 c 0.05161,0.00872 0.1032234,0.011105 0.1548494,-0.00699"
       id="path207-7-5"
       sodipodi:nodetypes="cc" />
    <path
       style="display:inline;fill:none;stroke:#000000;stroke-width:0.00282972;stroke-linecap:butt;stroke-linejoin:miter;stroke-miterlimit:4;stroke-dasharray:none;stroke-opacity:1"
       d="m 1.1827477,1.8341022 c -0.00257,0.023165 0.1050141,0.040874 0.1244837,7.81e-5"
       id="path209-1-9"
       sodipodi:nodetypes="cc" />
    <path
       style="display:inline;fill:#ffee2e;stroke:#ffeeaa;stroke-width:2.22017;stroke-linecap:butt;stroke-linejoin:miter;stroke-miterlimit:4;stroke-dasharray:none;stroke-opacity:1;filter:url(#filter5297);fill-opacity:1"
       d="m 676.71495,434.22199 c 0.76043,1.98246 -12.75791,21.79993 -8.66508,23.20983 3.31954,1.14351 9.14805,-5.29516 9.14805,-5.29516 0,0 1.07216,6.23326 -0.40122,8.90228 -5.5661,10.08294 14.04689,-14.29598 14.24511,-14.1141"
       id="path36-0-0-7"
       sodipodi:nodetypes="cscsc"
       transform="matrix(-0.00765454,0,0,0.00781084,6.2056345,-2.0854657)" />
    <path
       style="display:inline;mix-blend-mode:normal;fill:none;stroke:#000000;stroke-width:0.00334342;stroke-linecap:butt;stroke-linejoin:miter;stroke-miterlimit:4;stroke-dasharray:none;stroke-opacity:1"
       d="M 0.770596,1.0294436 C 0.6923809,1.0034089 0.58134706,1.0048639 0.61682115,1.1654158"
       id="path4562"
       sodipodi:nodetypes="cc" />
    <path
       style="display:inline;mix-blend-mode:normal;fill:#159e7c;fill-opacity:0.92549;stroke:none;stroke-width:0.3;stroke-linecap:butt;stroke-linejoin:miter;stroke-miterlimit:4;stroke-dasharray:none;stroke-opacity:1;filter:url(#filter4580)"
       d="m 48.621896,86.846655 c -7.01813,-2.33606 -16.98104,-2.2055 -13.798,12.20059"
       id="path4578"
       sodipodi:nodetypes="cc"
       transform="matrix(0.01114472,0,0,0.01114472,0.22871858,0.06156194)" />
  </g>
  <g
     inkscape:groupmode="layer"
     id="layer3"
     inkscape:label="Capa 2"
     style="display:inline" />
</svg>
